/* XPM */
static char *result[] = {
/* columns rows colors chars-per-pixel */
"64 64 149 2 ",
"   c #373625",
".  c #393725",
"X  c #3A3B26",
"o  c #3D3E29",
"O  c #2C4A02",
"+  c #325207",
"@  c #35540C",
"#  c #3B570D",
"$  c #365909",
"%  c #3B5A0E",
"&  c #375716",
"*  c #375B11",
"=  c #3C5C13",
"-  c #375A18",
";  c #3D5C1B",
":  c #3F600F",
">  c #3C6014",
",  c #3F611A",
"<  c #3F4129",
"1  c #415F15",
"2  c #425F1A",
"3  c #496D0B",
"4  c #436216",
"5  c #4A6713",
"6  c #476816",
"7  c #4A6916",
"8  c #44641B",
"9  c #4A651C",
"0  c #466A1D",
"q  c #4B6B1D",
"w  c #516D1E",
"e  c #4E701E",
"r  c #52731E",
"t  c #42452D",
"y  c #44482D",
"u  c #405E20",
"i  c #4A4F32",
"p  c #466521",
"a  c #4A6622",
"s  c #466922",
"d  c #4C6C23",
"f  c #4B6528",
"g  c #46682B",
"h  c #4D6C2A",
"j  c #526D24",
"k  c #526E2A",
"l  c #596E2D",
"z  c #4E7125",
"x  c #4E712B",
"c  c #537225",
"v  c #597626",
"b  c #567926",
"n  c #5A7926",
"m  c #54742B",
"M  c #59762C",
"N  c #56792C",
"B  c #5A7A2D",
"V  c #4B6830",
"C  c #526E33",
"Z  c #596F31",
"A  c #567431",
"S  c #5A7632",
"D  c #567931",
"F  c #5C7C33",
"G  c #5D763B",
"H  c #5D7C39",
"J  c #60772F",
"K  c #617E2F",
"L  c #617636",
"P  c #687736",
"I  c #627D34",
"U  c #697837",
"Y  c #61763A",
"T  c #627D3B",
"R  c #6A7D3C",
"E  c #5E7C42",
"W  c #637C42",
"Q  c #697D40",
"!  c #893918",
"~  c #C97050",
"^  c #5E812D",
"/  c #5E8134",
"(  c #5F823A",
")  c #62822E",
"_  c #6B8F2D",
"`  c #638235",
"'  c #698537",
"]  c #668837",
"[  c #6B8B36",
"{  c #64843B",
"}  c #6A853C",
"|  c #66893C",
" . c #6B8A3D",
".. c #708B3E",
"X. c #6E903E",
"o. c #73913E",
"O. c #658441",
"+. c #6A8542",
"@. c #668942",
"#. c #6C8B43",
"$. c #658248",
"%. c #688148",
"&. c #6D8C49",
"*. c #708646",
"=. c #728D44",
"-. c #798A46",
";. c #738E4A",
":. c #798E4E",
">. c #6E9144",
",. c #6E9149",
"<. c #729245",
"1. c #799545",
"2. c #7A9B47",
"3. c #74934B",
"4. c #79944C",
"5. c #76994D",
"6. c #7B9B4D",
"7. c #6F8D50",
"8. c #728B53",
"9. c #788D52",
"0. c #769452",
"q. c #7A9552",
"w. c #759852",
"e. c #7C9C53",
"r. c #7B935B",
"t. c #819651",
"y. c #819D53",
"u. c #839D5B",
"i. c #82A255",
"p. c #88AA54",
"a. c #84A35A",
"s. c #89A55D",
"d. c #84A95C",
"f. c #89A95E",
"g. c #98BC5A",
"h. c #84A262",
"j. c #8BAA64",
"k. c #92A563",
"l. c #90AC62",
"z. c #8FB167",
"x. c #93B164",
"c. c #92B46C",
"v. c #9BB96F",
"b. c #95B671",
"n. c #9DBA77",
"m. c #E4854D",
"M. c #AFCF7C",
"N. c #F8C79C",
"B. c #D4F894",
/* pixels */
"T A 3.8 F S p { | k &.a f F H H ( | >.^ @.( | #.q } 4.' d |  .z | <.S } S +.l I S S f H #.O.s | H H ` B F | N m H <.S | A h T W ",
"+.h H a #.h A H S & h w.&.h F h / z / ( ( ^ ( N ` 4.I I 6.#.| N D m I I I S *.+.H G 3.@.H 3.3.m #.H <.` F =.` =.S | 0.m T H +.O.",
"+.A e.{ A +.N { d { s A w.A O.h ^ e./ @./ @.,.N  .R 1.R | M / { e.{ =...} k ;.W k +.{ H ( / h { #. .3.8 ` c 8 a M ` A +.{ H A &.",
"{ T S +.8 3./ w.F ` F { O.O.S @.x 5.x ( ( / / w.M  .} } <.<.` / h m m 3.' I :.;.T m +.F z.,.8 ( N 4 d F N 3.v c #.3.{ +.j.1 H A ",
"O.S 3.S #.#.N d F m x 3.S h H O.{ x >.D @.( H T } ..4.T } ` e.B i.{ } k +.R L 4.} j W S ( @.@.c.z e.D / F > S } &.3.| D * m 8 D ",
"0.{ H p 3.a m 6./ | O.,.A c.{ h e.D D ( A e.T O.S ' M =.I } F / * <.M k T 4.} J =.I T k x ( > 5.x / e./ F N @ S H 4 N N { z | / ",
"S x | m F { >./ F / { m ( 4.a #.O.H D O.( A a A l I  .` c B { h { N S ` =.-.2 U L F O.{ ,., x e.>.> | / = c a c M H N x 0 e >./ ",
"#.{ #.m m ,.z { ( N 0 D &.4.j.x ( H O.H $.A +.T +.#.I F d 6.4 3.m H  .` 6.} -.U S =.#.m x / w.* >.>./ ( M ;.T 2 M M > / N , , N ",
"D e.i.` / x ( @.B m ,.5.>.#.H | H O.F A +.0.S +.=.N 3./  ./ ` | | | F i.} J R *.1.c } F #.| @.( | | x 3.M a k I a 9 H c d @.b / ",
"H +.| ,./ N >.^ #.N / m / | A m #.f T W S +.;.I { #.M F z 5./ | N @.`  .M -.v R J -.e.y.N #.{ 0 ,.0 / S s.+.k j k i.M |  ./ 5.( ",
"H H ( #.x , ,.^ N / B z D z | { S F T k S L k T M { c #.` | / I #.F N  .=.j =.q M } c &.H @.<.5./ x | 0 a { M 3.a j.{ d ,.z / ( ",
"m a D 0 ( ( | ^ / >.| m | { ( S #.k { &.S *.{ S I N c N / / B  .` M <.} } ' v 1.' c F | / x z e.| @.x 4 F M &.M <.c m { / , @.( ",
"m O.( 3., z / 5.X.( X.@.#.N { ( ( >.N 3.u.S +.c I { ` ` ..1.' I q } #.B ' ' # 9 j | B 0 m z F 4 ,.h 3.` ` ` ` N B F H { 0 D g s ",
"{ A x 0.@./ ( / , @.| ^ F F d N x 0 m / M I l I =.q B | ..I v y.<.B -.1.K I I I 4.S  .>./ { L &.@.F #.{ m  .F N 4.= M 4.@ @.w.H ",
"h &.H D | D / ^ ^ / z , >.| @.D / N #.| +.` 4.F B o...) b [ ' B } <.} <.c ..y.I  .q | F +  .S | 8 H #.D / ` 4.b e.a 3.{ s A h W ",
"F +.&.N z D x D D ^ | >.D @.z @.z | | ( c ` ' ' { ` n B t.' K [ } I ' M ..I =.I } <.<.F e.c F  .| +.m d S  .` b F v &.{ w.G A ; ",
"( O.| #.m F m N N >./ @.^ @.^ ^ z N c q #.| 1.' c n ` <.n n >.o.<.F y.S &.M } | { =. .H { N 0 / m O.m ,.( F ^ e N | / { m A - +.",
"{ H H B ` i.z N | ` N ] ( / ( X.z , q ` |  .b b b X.n b / / ! ! ! ! -.B =.l L l S s.m M c | / | #.8 h ,.b.z ^ <.> N X.6 ( 0 A ( ",
"c | c / ( 0 m N N ` ` N | / X.^ e 2.4 { S B ) ) b ^ B ! ! ! m.m.m.m.! -.*.' 8 +.S k 3.I ` c N N | @.O.x #./ ^ ^ N N z X.D h H A ",
"/ >./ F 3.5.A F h #.,.B / [ 6.^ ^ 7 c >.{ ` ) r X.b ! m.m.m.m.m.m.m.m.! F *.l } M q.#.&.` { { F N { x ( z / ] / z z F c | w.s $.",
"/ N | >.>.h { H @ O.{ B ) ) o.o.K K ` c  .|  .X.` ! m.m.m.m.m.m.~ ~ ~ ~ ! } -.M +.M j d ` { { B F e.d d 0 d ] 2.` m N  .8 { x O.",
"6 N / z 8 x w.x m a #.N B ) ^ 5 o.M 8 >.z B ^ ` ! m.m.m.m.m.~ ~ ~ ~ ~ ~ ~ ! I y.M j T M ` h | { N 0 / #.z N b N N m >.0 ` m A k ",
",.c 3./ ( F ,.H m #.F ] B ) n r b N M <.<.c  .! m.m.m.m.~ ~ ~ ~ ~ ~ ~ ~ ~ ~ ! 8  .a } M T 4 =.B / N N / , | ] : B f.z B d O.0.O.",
"` | #.a | S S 4 { #.` n 2.r b ^ 0 0 N h j c =.! m.m.m.~ ~ ~ ~ ~ ~ ~ ! ~ ~ ~ ~ ! #.} F I `  .H c e.] / z z / / { %  . .,.` #.e.A ",
"4.M 9 I 8 =.9 B c | z $ N b b X.b N c H S m [ ! N.m.m.~ ~ ~ ~ ~ ~ ~ ~ ! ~ ~ ~ ! B  .F F <.M =.H ` q  .>.z 8 h m f.d #.4 +.D a 4.",
"S e.l I ` #.d I /  . .` / / 5.N e z >.8 8 { ! N.N.N.~ ~ ~ ~ ~ ~ ~ ~ ~ ! ~ ~ ~ ! c | a M B { #.q ^ N 8 F | | q 0 ` $ 4 q i.m @.{ ",
"I k T I i.I | 5.^ z z | x z z m N B | H { h ! N.N.N.~ ~ ~ ~ ~ ~ ~ ~ ~ ! ~ ~ ~ ! ` >.m B B I M F d.B 3.q 4 z f + | N e.<.3.z w.#.",
"u.L =.4.K F d D 0 0 X.| z ( z / B v I H m | ! N.N.~ ~ ~ ~ ~ ~ ~ ~ ~ ~ ! ~ ~ ! <.n ` q F v ` S m B c 4 F / 4.h D #.{ #.d m #.S e.",
"' -.J M =.9 #./ N / / x ( x z ` c M c = m S > ! N.~ ~ ~ ~ ~ ~ ~ ~ ~ ! m.~ ~ ! X.b >.e X.I #.` ` B B F F j h k h 0 N 8 m { z N ` ",
"1.} ` N 0 #.>.( @.,.@.s F ( H 0 ` } T | B ,.0 ! N.~ ~ ~ ! ~ ~ ~ ~ ! m.~ ~ ! o.` b b c b } ` S c  .4 [ N I S G A N d F 4.x ,.N { ",
"[ [ B  .{ #.D s ( w.h x O.a F B I  .m m * 4 <.H ! ! ~ ~ ~ ! ! ! m.~ ~ ~ ~ ! ^ X.N 6 ^ ` ` c M F ` B #.v ` m ; A I b ` s S N e.5.",
"' } I M B ` { 8 ( D &.g ( m m z N } p H h S c 0 q ! ~ ~ ~ ~ ~ ~ ~ ~ ~ ~ ! X.b q c p.e b c ^ v } M I } k F O.$.H ` ` z | z /  .5.",
"*.I -.` 5.^ >.5.m { 0 3.` N z / 4 T { H { F / B e ` ! ~ ~ ~ ~ ~ ~ ~ ! ! o.] ^ n M.5 K ` ) v } =.J j B } I } M } ` ` 0 B B <.b } ",
"I ' +.v ] _ r e c #.3.#.N c 0 B N k k S H B N q |  .| ! ! ~ ~ ~ ! ! ] ^ r ]  .n n ' # J I  .=.c I I J M ` R ..3.N #. ./ .. .` ' ",
"R t.4.B e X./ ] ( { a ,.z n c 8 M j +.M h m ` d [ | B e.M ! ! ! ` ] >./ ^ o. .b r 1.} k k J v F F M <.} I I ' v | i.` 1.J  .I w ",
"} v ,.e.| ] ^ ^ c F | 0 ^ e N B j } &.* h &.` [ ^ [ ..k 4.R [ } ] e | b 2.M [ ` ' r K ` M ..M H ` } M ..I -.a 4.I =.M ` 3...-.' ",
"R l.&.#.( z / z #.N <. .^ e ` #.c I k T ;.c } ` ' [ #.L t.J ' [ N c N  .2.` B M [ 2.=.j ` B F M q c c M 3.` M q R s.w P } I ;. .",
"1.9 #.;.D w.N >./ | n c [ 4 B  .T # I ' I -.1.} 4...j  .' M B M B 5.| | p. .6.N ` [ e.F 3.} M B c L F ` N h c.c l t.-.J ..y.a #.",
"c | h S ( ( N | <.<.n ^ q r v B N } S &.I } ' 1.9 ..v I L c c [  .c F ( ] 6.` |  .i.q { I F S B I ..N N / ` #.} 9 P U l } S F A ",
"/ ,.3.F @.( / >.B 8  .^ ) ' 4.B =.` I I I j K ' -.v c R M M [ F F #.F 5.| | <./ | B ` { } B I #.I I e.N | d.z { k.U R R :.O.H x ",
"B <.{ $.x @.( ,.#.c B o.n o.` B c F  .{ M ..<.I y. .<.[ K I M 3.q 0 3.a `  .d / c 5.>./ k I ` 8 H  .#.N I F } M R w R T P T ;.&.",
"/ F H - O.w.D @.; { |  .K n I q N { N ` ] | ..9 `  ...M ) c N c #.F x 3./ { | / 6.6 / e.| j 3.k F / m #.6.2 +.<.l R L R l k W k ",
"&.H a 7.( @.@.s 8 k ` q J J ..<.N m F #.X.` | q  .F B b ` o o y o { { N F B | h ] c z S v e.} I F { ` d m e.F l U P *.l +.r.w.+.",
"+.n.T H $.g , x S k M =.[ [ ' v c ` B n c b c <.` c < X y < . t o   o t 4 / z #.| ] #.{ 3.} S I a 4.8 ` F H H T *.t.Q L T Q T A ",
"T +.W W s @.H &.0.W j l ..c j y.j v q 7 ] ) ] B | B < y < X . . o t o t #.` ,.N q / ,.c B c M S #.T &.+.h S N 3.j } R T ;.;.A a.",
"S $.;.&.$.( F +.%.u.T T } [ ' 5 M 9 [ 1.q ] / | > ` < X X < X < X   o o 9 F z / ] | F / { 8 4.T L ' k F H +.&.3.S +.H 4.S +.O.h ",
"+.W W O.3.#.+.F A W l ;.-.n J K t.4.K K  .^ 0 B | | <.^ X.i . . o ;.l +.3.B 5.{ N X.m { { T *.S k H 9 T T +.T { 0.F ,.( H #.+.;.",
"q.Z f %.Z G 0.O.W r.%.R ..4.j T ' I <.) o.^ ` B z z ^ [ ] q I y.=.j =.} | c  .F ^ e.d #.M ` 9 4.#.} I S m u.k D 8 , | D S +.*.T ",
"j G +.W E V t.Z 9.Q W Z Y L v H h l | ` ` n ^ n ` #.m S B o.2.) I M I a H I | { m ` `  .I k  .` B N O.F { H +.x x | e.N @.@.O.$.",
";.T C 8.W E Y Q Q Q Z *.L L l S k 8 { | ] M r 6.$ | | S  .n y.[ J #.p.<.| I H { T H 3.H J j v j M  .D F F 0 x ,., z D x x ( x C ",
"&.T 8.E r.W Y U Y Y 9.P M k { T m c c | #.z 3.<.0  ./ 4 B F % #.) ` c B <.{ { N H { a M c B F B <./ #./ N | 4 d ,.@.p ( z | N / ",
"S 0.V W W Y +.Y 9.l l l v ' +.2 ` B B a B S { z ^ ) p.n q  ./ F ) ` B ` ` v B @.m B j k j.` I I d ` q | | ` / N / N ( H e.( >.| ",
"{ H %.A T 0.u S q.*.+.} *.j M ' K  .3.{ F k p B N n r n q ` h @.B n )  .] m / F d / #.m d S 0.#.F m T F d ` ` 7 B / W &.&.@.F #.",
"( +.H D h H T T T 4.L M K K #.F ' 6.d j S { e.&.` 1.^ ^ H 3.s H ` q q q ^ ` , n B z h #.h { m &.A M ' ' | a ` ` | F & = S m O.&.",
"O.&.f 4.S +.S k +.F ` v K o.L { v M F #.B c M I / m S | F N ( ,.B : c b <.e n B z c B a M j ` j K 9 w v I T H H T z _ g.6 | e.r.",
"H h  .{ O S d q.l M 2.` q c } 4 I F q #.`  .F c 4.| / h D S / / #.>.0 c / z z ` q ` | ` H I F ` b g.x.v F m j { h c 3 B.> A h F ",
"h H @ ` e.` m | A { / ] i.q 1.{ T S 4 n n b c b = A A p m m s 3.#.` c { v v F N =.B I { `  .I j c y.3.f &.` ` <.d.9 h c S A S ` ",
"H p F b ` #.h O.4 H | N b ` 3.4 m H e.B 6 M 1.' <.h G A x F ` / 1 N B j S N 1 I  .q v { I v 1 4.9 9 9 T T F N e = c a a.A +.` 6 ",
"H A e.0 c | H O.0.d d q B 1 5.z #.} }  .I M J ` ' k { A #.B m D I c j } ' k v #.I F j F -.I H I q a  .{ M m 2.` q c o.8 S { H m ",
"u H S F 3.S h s x { d >.| 0 =.N a {  .$ S } ` 4.M ` #.S ` ,.F { u.=.I I M F ` M 8 ` ` e.9 M q #.m 9 v = B  .q / d { ) X.` a T h ",
"G f S c A 8 O.N D e.h m O.s #.F { I F k R H j ` M ' } } B ` N I ` 7 K y.F I 4.= ,.4.{ f B h H F H H { #.D ( C g S & A A +.v.T S ",
"h k m O.8 H H A m F A h.G & >.8 F { B 9 ;.T ' -.L ' v #.w L { s.c ` ' ] v F { m ; , s m +.p | A | H m 0 D H ,.H #.F &.h a <.A ; ",
"f G 0.{ p w.x { N D g V %.H e.d 8 T a e.` 4.4.L v =.M y.} M 6.n o.[ q n / { #.a x @.h A A h , { ( g ; &.> s #.H N F N k G H G A ",
"S &.a T &.H , { @.#.p E V w.h 2.| m +.T M M 4.} U K I ' ' I B J o.K n ' >.<.S S ( C H A ( #.g ( x D ( g ( ( ( H B `  .H H A H k "
};
