/* XPM */
static char *da228b4917054b92f12b4ea525ec3597oEHhutEniZ1fYTdy[] = {
/* columns rows colors chars-per-pixel */
"64 64 240 2 ",
"   c #4F1717",
".  c #561818",
"X  c #621919",
"o  c #5C361C",
"O  c #692E1C",
"+  c #442424",
"@  c #472D27",
"#  c #552C2C",
"$  c #493728",
"%  c #563734",
"&  c #5B3B3B",
"*  c #612929",
"=  c #782B29",
"-  c #7D3D28",
";  c #693D3D",
":  c #743C3C",
">  c #783838",
",  c #2C4A02",
"<  c #38570E",
"1  c #3C5C14",
"2  c #3B5A18",
"3  c #3F600F",
"4  c #3F611A",
"5  c #435C1B",
"6  c #59501F",
"7  c #436216",
"8  c #476816",
"9  c #4D6F15",
"0  c #44641B",
"q  c #4A651C",
"w  c #456A1C",
"e  c #4B6B1D",
"r  c #516A1E",
"t  c #4E701F",
"y  c #4A4726",
"u  c #4C5826",
"i  c #525B2E",
"p  c #504630",
"a  c #594637",
"s  c #595735",
"d  c #6F4F29",
"f  c #614B3E",
"g  c #62583A",
"h  c #466521",
"j  c #4B6622",
"k  c #476825",
"l  c #4C6B24",
"z  c #4D6C2A",
"x  c #526D25",
"c  c #54652A",
"v  c #536D2A",
"b  c #5A6D2C",
"n  c #4E7125",
"m  c #4D712B",
"M  c #537225",
"N  c #597627",
"B  c #587925",
"V  c #54742B",
"C  c #5A752C",
"Z  c #56792C",
"A  c #5B7A2D",
"S  c #4B6830",
"D  c #596B33",
"F  c #567432",
"G  c #5B7532",
"H  c #567932",
"J  c #5C7C33",
"K  c #5F753B",
"L  c #5D7C3A",
"P  c #62792E",
"I  c #6F6932",
"U  c #626939",
"Y  c #667736",
"T  c #627D34",
"R  c #62743B",
"E  c #637D3B",
"W  c #6A7D3C",
"Q  c #5F4040",
"!  c #644241",
"~  c #6C4545",
"^  c #654C42",
"/  c #6B4947",
"(  c #764544",
")  c #734C4C",
"_  c #7C4C4B",
"`  c #695344",
"'  c #74534C",
"]  c #7A594E",
"[  c #7C5352",
"{  c #795853",
"}  c #5E7C42",
"|  c #6B6945",
" . c #736148",
".. c #687541",
"X. c #637C42",
"o. c #9D281F",
"O. c #882928",
"+. c #9C2625",
"@. c #982825",
"#. c #942B2A",
"$. c #9D2C2C",
"%. c #833429",
"&. c #9C332B",
"*. c #833333",
"=. c #8B3535",
"-. c #833C3C",
";. c #9C3535",
":. c #963A39",
">. c #A42B22",
",. c #A42C2C",
"<. c #AB2D2C",
"1. c #B62F2F",
"2. c #B82F2F",
"3. c #A8332A",
"4. c #B8352A",
"5. c #BA312E",
"6. c #B92F30",
"7. c #A53636",
"8. c #B23131",
"9. c #BD3B37",
"0. c #C3352C",
"q. c #C93A2B",
"w. c #D23F26",
"e. c #D13D29",
"r. c #C53D31",
"t. c #89432A",
"y. c #925231",
"u. c #B4443D",
"i. c #D9452A",
"p. c #D34B32",
"a. c #E04626",
"s. c #E34C29",
"d. c #E6552E",
"f. c #E65C33",
"g. c #EA6335",
"h. c #834444",
"j. c #834B4B",
"k. c #8B4949",
"l. c #974E4C",
"z. c #845656",
"x. c #8A5454",
"c. c #835B55",
"v. c #865959",
"b. c #8D5D5D",
"n. c #925F5F",
"m. c #9B5959",
"M. c #A64949",
"N. c #BA4644",
"B. c #B74B4B",
"V. c #A65856",
"C. c #B65959",
"Z. c #886558",
"A. c #8A6666",
"S. c #8C6464",
"D. c #926161",
"F. c #9A6666",
"G. c #936969",
"H. c #9E6A6A",
"J. c #9A7676",
"K. c #A26464",
"L. c #A36C6C",
"P. c #A96F6F",
"I. c #B76868",
"U. c #B66F70",
"Y. c #A57271",
"T. c #AC7272",
"R. c #AC7C7C",
"E. c #B57777",
"W. c #B67979",
"Q. c #B97D7D",
"!. c #CD5446",
"~. c #D76055",
"^. c #EA6F4F",
"/. c #C86963",
"(. c #E77B67",
"). c #5D832E",
"_. c #5D8134",
"`. c #5F823B",
"'. c #64842E",
"]. c #638235",
"[. c #698537",
"{. c #688937",
"}. c #64843B",
"|. c #6A853C",
" X c #66893D",
".X c #6B8A3D",
"XX c #708D3E",
"oX c #6D903D",
"OX c #74923F",
"+X c #658442",
"@X c #6B8542",
"#X c #688645",
"$X c #6C8B43",
"%X c #6C8C49",
"&X c #728D44",
"*X c #738E4A",
"=X c #798B49",
"-X c #6E9144",
";X c #729145",
":X c #74934B",
">X c #79944B",
",X c #77984A",
"<X c #7B9A4D",
"1X c #6F8D50",
"2X c #748C52",
"3X c #779554",
"4X c #7A9552",
"5X c #7C9B53",
"6X c #829C55",
"7X c #81A255",
"8X c #83A35A",
"9X c #88A65B",
"0X c #98BC5A",
"qX c #A9807E",
"wX c #86A563",
"eX c #94AF69",
"rX c #95B367",
"tX c #AC8686",
"yX c #B48383",
"uX c #BD8484",
"iX c #B58B8B",
"pX c #BB8C8C",
"aX c #BC9292",
"sX c #C18787",
"dX c #C28B8B",
"fX c #C59191",
"gX c #C99595",
"hX c #C79999",
"jX c #CC9C9C",
"kX c #D19E9E",
"lX c #CEA2A2",
"zX c #CFA9A9",
"xX c #D4A4A4",
"cX c #D8A9A9",
"vX c #DDB1B1",
"bX c #E3B9B9",
"nX c #D4F894",
"mX c #EBCDCD",
"MX c #EFD4D4",
"NX c #F6E4E4",
/* pixels */
"E V :Xq J J h }.}.V #Xh l G E L ]..X-XJ $X}.}.$Xl |.>X|.l  X$Xn }.;XC }.F @Xv T J J l L #X+Xl }.J _.}.J J }.V V J :XJ }.F z E X.",
"#Xz J h @Xv F L F 1 z 3X%Xz L z J l _. X}.Z }.C ].>XT T <X$X XA V C T T E J &X@XJ J :X#XG :X:XV @XJ ;X].J $X}.-XJ }.3XV E L #X}.",
"@XF 5X}.F @XV }.l }.h J 5XV +Xz J 8X_.}.J $X;XA $X].>X].|.A ].}.5X}.;X$X|.v *X}.v @X}.J }._.z }.$X$X>X0 ].V 0 l C }.F @X}.L F $X",
"}.E F $X0 :X].5XJ }.J }.}.+XG #Xn :XV }.`.v u | C |.|.|.&X;X].J l V C >X|.T *X*XE s i F eX-X0 `.Z 1 l J V ;XC M @X:X}.@XwX7 J V ",
"}.J :XF $X@XZ l J V V :XJ z J +X`.l s & / v.P.[ |..X>X}.|.}.5XZ 7X}.|.v @X|.C >X|.z.P.z./ & s wXn 5XA J J 1 J }.&X:X.XJ 1 V 0 H ",
"4XE J q :Xl V 5XJ  X}.:XF eX}.y | [ b.D.P.x.:.E F }.C &XT }.J _.< -XV v T >X|.P $XK ;.x.P.D.b.[ s u 7X_.J V < C J 7 A V }.n $X_.",
"F V }.V J }.$X_.J J _.V }.@X! b.S.S.S.F.( ,.3.V V T .X}.M A }.l ].A J E &X&Xq T J G 3.$._ F.D.D.D.b.! G 1 V j V C J Z V e w -X_.",
"%X}.@XV V :Xn }.}.Z w H s b.T.D.S.S.S.F.= 2.%.}.$X@XT J l <X0 :XV J .X].<X|.&XE G &X%.2.= L.D.D.D.D.T.v.p &X}.5 F C 1 _.n w w Z ",
"J 5X7X}.J V  X$XJ V $X' F.K.+.x.D.D.D.F.> D.qXR *XV >XJ @XJ ].}. X.XA 7X|.C W &X>Xc yXn.> P.b.D.D.x.o.K.D.` v T q q J V l $Xn _.",
"J @X}.$XJ V -XJ $XJ c.T.L.=.5.*.D.D.Y.sXxXgXuXv.}.$XV J n <X_. XJ .X]..XC &XC |.G b.uXjXxXuXY.D.D.*.5.=.H.T.] v v 7XA }..X_.:X X",
"L J L %XV 0 :XV C c.V.@.x.b.h.D.yXgXkXfXE.C.E.b.V }.M $X}..XJ J $XJ V .X&Xx &Xr C D.E.C.E.gXkXgXR.n.h.n.x.+.V.Z.j 9X}.l :Xn J `.",
"V l J q }.}..XV = L.#.1.j.D.Y.uXdXuXQ.W.N.d.N.b.}.V M A J _.J $X].C ;X|.|.|.C >XT F.u.d.B.W.Q.uXgXQ.P.D.h.1.#.K.- V C }.J 7 +X}.",
"V +X}.:Xq l J t.2.O.b.j.D.Y.jXjXuXpXtXaXI.e.C.b.T |.].]..X>X|.T e }.$XA ].[.< q v D.C.e.U.iXtXpXsXjXjXL.D.j.b.O.2.t.T }.q V l l ",
"}.F V :X$XJ O 1.5.w.h.n.P.xXQ.jX_ : <.7.b.E.T.v.$Xe A |..X].N 6X;XA ;X;XT T T T :Xb.T.E.b.7.,.: [ lXQ.xXL.D.-.w.2.1.O :X< #X3XL ",
"l #XJ J  XD h.<.e.,.x.P.jXE.sX_ ,.2.1.2.;.~ ! ~ A &X.X].N [.[.A |.&X|.;Xx .X6XT |./ ! ! 7.2.1.2.$.z.sXW.jXL.x.<.e.<._ R j V z E ",
"L @X%XZ v ( S.h.*.x.Y.xXE.Q.iX-.2.1.1.t.b ].p ) [.].N A <X].].[..XT }.C $XT &X].}._ s J =X3.1.1.2.> aXW.W.xXL.x.*.j.S.: 4XJ F 2 ",
"E @X@X@X6 +.-.b.b.b.gXuXE.Q.J.1.2.<.d e .X.X;XG N A ].;XA B ;X;X;XJ 5XJ $XC |.|.}...|.J .XV d 1.1.1.tXW.E.uXsXb.b.x.-.+.6 F 1 @X",
"}.J J J %.2.0.$.b.yXgXE.E.Q.R.,.%.e e }.}..XB B B .XA B _.).).{.A 6X*XJ *XC T C G 8XC F l  XJ }.t.,.iXW.E.E.jXQ.b.>.0.2.- h F L ",
"M  XV c <.1.w.k.F.xXE.E.E.E.gXF.$ ;Xq }.C A ].'.B ].A l J }.{.,X.X].&X;X$X|.q @XC V :XT }.M V A p L.fXE.E.E.E.xXD.k.i.1.,.u L F ",
"_.-XJ g > 4.,.b.yXuXE.E.E.E.E.E.W.] c %X}.].'.M oXB Z A J A C @ + $ E M G &Xv |.C 4X$X$X].}.K { W.E.E.E.E.E.E.dXR.x.,.4.: | h #X",
"_.Z  X) D.x.b.D.sXuXE.W.W.E.E.E.E.E.P.f +X|.oX.X].t e ].A y + & & & + i x |.&XC @XC x l E ` P.E.E.E.E.E.W.W.E.dXuXS.b.x.D.~ z +X",
"w B J z.V.>.x.F.xXE.sXgXaXfXE.E.E.E.E.W.n.] J ].M M V D / [ # ! ) ! # [ / U T 6XC x E ] D.W.E.E.E.E.E.fXaXfXsXE.cXF.x.>.K.[ F v ",
";XM :XD.=.5.-.T.xXkXS.( 1.) F.E.E.E.E.E.E.E.' ..&XT ` b.= . # ! D.! # . = b.` 0 |.s ' E.E.E.E.E.E.E.D.( 1./ D.jXxXY.*.5.-.b.3X}.",
"}.}.$ D.L.h.b.jXuXT.> 1.1.d c U D.W.E.E.E.E.W.L.D.G.! : . O.O.# @ # O.O.. ( ; H.D.P.W.E.E.E.E.E.D.U K d 1.1.: E.Q.hXb.h.L.D.5XF ",
">XV a D.b.n.D.xXsXA.#.1.1.P B .XB c.E.E.E.E.E.E.vXdX) P.#.8.:.T.zXP.7.8.=.P.) gXvXE.E.E.E.E.E.] T e .X=X1.1.O.J.uXkXD.b.b.D.l :X",
"G 5X^ K.4.:.D.xXsXA.#.1.<.T <XA t x ..b.E.E.E.sXNXuXQ.fXK.F.U.M.M.M.U.F.K.aXW.uXNXuXE.E.T.b...l J B 0 Y <.1.O.J.uXkXD.:.4.K.@X}.",
"T v ^ m.1.#.F.xXsXG.#.1.$.x n V B A |.J ` b.uXmXvXvXxXdXkXN.p.i.g.i.p.N.xXdXcXvXvXmXuXc.g J C J 9XA >Xr ,.1.O.J.uXkXD.$.8.K.5X$X",
"6XT ` F.x.b.D.xXE.jX_ 8.$.E l ].A C T J v D dXuXW.cXxXmX(.g.s.5.0.5.s.g.(.MXlXxXW.uXpXv V }.C V A M 7 P ,.8.j.gXW.kXD.b.x.D.J 5X",
"}.>X^ D.D.D.D.xXE.W.hXA.% v l }.V C V < V A $ ! T.jXlXbXg.s.5.i.p.w.5.s.g.bXhXgXY.; $ .X].$X].].A A A C ; G.jXE.W.kXD.D.D.D.A ].",
";X|.p D.D.D.D.xXE.E.C.sXD.p s y ].|.}.}.J %X^ z.h.n.sX!.f.q.e.= & O.e.q.f.~.sXb.h.v.f V }.].A M .Xy s y F.sXC.E.W.kXD.D.D.D.Z ].",
".X[.u b.D.D.K.pXuXN.s.9.W.~ z.s J .XV V 1 7 ^ ( . <.x.B.f.0.!.& Q.& !.0.f.B.k.,.. _ ^ ].[.n V J ].g z./ W.0.s.B.sXiXK.D.D.b.7X,X",
"[.|.J [ D.D.<.h.xXU.r.I.E.^ v M V .Xh L z F ^ h.. ,.B.B.f.5.p.# ~ * p.5.f.B.N.+.. x.f B M T M |.C T E / E.I.r.U.xX-.<.D.D.) $X;X",
"|.T &X) H.l.1.*.jXQ.T.D.i V n _.7 }.}.L }.J a )   > b.C.i.s.0.r.C.q.0.s.i.C.b.>   [ a ].].C |.&XJ x C |.s F.E.Q.jX=.1.l.H.) N .X",
"T |.|./ Y.;.1.#.R.uX| }.V M w A V v v F L J @ & & @ hXD.r.q.i.0.0.0.i.q.r.D.jX+ & % @ J ]..X$XV T T A C }.T  .sXY.#.1.=.T.! ].[.",
"|.6X>Xi F.;.&.[.J i l ;XM A M 0 J l @XF z u + ! [ ~ { Q.m.q.f.d.d.d.f.r.D.yX/ / ) ! + u x T V J J C ;X|.T T |.u }.>X$.=.F.R T x ",
"|.C &X5X' l.P A M J }.e A e A A l |.$X1 l K + & b.) % 7.8.I./.^.^.^./.I.8.;.& ) b.& + D C .XC J J }.A .XT &Xe <X].$XC m.` .X&X|.",
"T eX%X$X% c ].V $XV ;X.XA t ].$XV T x E *Xc @ % Q ! # X @.> gXjXMXjXfX= @.X # ! Q # $ l ].A J V e M M A >X].A e |.9Xx U p T &X$X",
">X0 %X:XF :XV -X_..XA B .X7 A $X].1 J |.J ;Xp @ + + z..   b.yXcXvXcXyXx.  . z.+ + @ s J >X|.V C M T J }.Z n eXV x 6X=XP |.6Xh @X",
"M }.z F `.H Z }.;X-XA A e t A A V |.J $XT |.].|.5 W ) v.j.F.z.jXbXgX[ F.j.v.) R G >Xe }.J J C J T &XV V _.}.@X|.q Y W b @XG G F ",
"].;X:XL #X`.J -XA 7 .XA '.{.,XC ;X].T T T M T [.&XC c a v.~ Q.bXbXbXW.~ v.a @XJ {.A ].}.|.A }.$XJ T 5XV  X9Xl |.eXY W W =X+XL n ",
"J -X}.#Xm +X}.-X$XM A oXB OX}.J M J .X}.V $X&XT 6X.X;X|.b % jXzXzXzXkX$ F .Xl ].M ;X$XJ V ].}.0 J .X$XV J J }.C |.j @XE E E *X%X",
"_.J L 2 +X3XH #X5 }.}..X'.N ].e A ].V ].}..X&Xq ]..X&XC T M b.E.E.E.v.:X].}.@XJ <Xw J 7X}.M :XV J _.Z $X5X7 |.>Xv |.Y W D v E v ",
"$XL h 1XL +X$Xh 7 M }.e A P .X;XV M ].-X$X[.}.l .XA A N {.J b.E.E.E.v.Z J A  Xl ].M n J V <X}.J J }.}.l V 5XJ V W E @Xb +X4X4X@X",
"@XrXE L #Xz 4 z F v C &X.X[.[.C V ].A B M N M ;X[.M .XM ;X}.b.E.E.E.z.:X7 _.n $X.X].$X}.>X|.J T l >X7 }.J J J E @X4X@XG E +XL F ",
"E +XE +Xk @XL *X:X}.x V XXM M 6Xl V q e {.].{.J }.A {.,X{.N b.E.E.E.z.&X$X].-XV e ].;XV C M V F @XT $X$Xl J F :Xx |.W E :X*XV 8X",
"G +X2X%X+XE J #X@X6XE |.|..X|.7 A q .X,Xe {.U ) % [..XA ].A b.E.E.E.z.}.e J n _.a ) U T }.0 4XE K |.v J J }.%X*XF @XJ :XF @X}.z ",
"@XX.E +X:X$X@XG G X.b *X;XN A A <X>XP A |.a & { }. X;XA OX9Xb.E.E.E.z.}.>XA >X}.V [ & a E T @XF v J q }.E $XE }.4XG :XE J %X@X>X",
"4XF k #XF L *X+XX.3X@XE |.>Xx ].|.T ;X .D.C.E. .M M J .X[.e b.E.E.E.z.|..XM @XJ A Z.E.C.n.| q >X@X}.J F V 6Xv F q 4  XJ H +X%XE ",
"z L #XX.K D 4XG 2X*XE G T T C J z c / E.N.i.N.E.f I V J A XXb.E.E.E.z.x J T }.I ( W.9.a.B.E.^ G A Z +XG }.J #XV V  X<XZ  X#XX.#X",
">XL F 2XX.K R W X.R D @XG G b K v i fXE.I.i.I.tX1.<.y.G .XA b.E.E.E.z.;X|.Y y.<.8.iXI.i.I.E.pXv A .XH J J w z %X0 n J V V L z F ",
"%XE 1XX.3XX.R E D K >XE C b E Y t.#.m.kXE.E.Q.iX: 1.1.1.O.U b.E.E.E.z.I O.1.1.1.( aXW.E.W.kXl.#.y.P @XJ A  X0 l :X$Xh }.n }.B ].",
"C :Xz #XX.K @XR 4Xb b C M / D.> <.2.<.H.jXE.E.fXz.O.2.1.2.: F.E.E.E.D.> 2.1.1.*.b.dXE.E.jXD.<.2.<.: D.^  X].J B J V L L 5X].;X{.",
"}.E #XF E 3X5 F 4X@X@X|.&Xx Z.Y.z.[ [ L.T.jXuXE.jXb.~ $.:.A.E.E.E.E.E.A.;.$./ A.kXE.uXjXT.H.[ [ b.Y.Z.J l ].[.8 A J +X#X#X@XG $X",
"E @XG G z J E E E 4XC C ].J @X' F.F.F.D.b.R.dXdXW.Q.lXjXjXdXE.E.E.E.E.fXjXjXlXQ.W.gXsXT.D.F.F.F.F.' }.}.}.l _.[.}.J 1 1 J V +X#X",
"+X*Xl 4XJ @XF v $XJ T A P ;XJ }.{ D.D.D.D.D.D.pXkXdXsXE.E.E.E.E.E.E.E.E.E.E.sXdXxXpXD.D.D.D.D.D.' q t V T E T J L l {.0X8 }.6X3X",
"G z .X}., F z 4Xb V >X[.e M }.7 T ) D.D.D.D.-.x.F.yXdXxXjXW.W.W.W.W.W.W.kXcXsXQ.F.k.-.D.D.D.D.) N rXrXV J V v }.z M 9 nX3 F v G ",
"z L < ].5X].V +XF }.J }.7Xe ;X}.E G ) D.D.m.0.+.b.x.x.L.Q.hXkXkXkXkXkXhXR.L.x.x.b.+.0.K.D.D.' v M <X>Xl $X}.}.;X9Xq x V F V A ].",
"E h J V ].$Xl +X0 ]..XA B {.>X0 F J >X& b.L.:.k.b.,.,.b.x.*.D.D.D.D.D.*.x.x.<.$.b.k.:.H.v.% 1 >Xe q h E E J C M 3 V h wXF +X].8 ",
"L F 5X0 M }.J +X3Xl l l J 7 >Xl @X}.|..XU ) P.F.n.u.;.n.h.q.>.O.D.O.3.0.k.n.;.u.n.H.L.) ..T T ].h l |.}.V V ;X].e l ;X0 C }.J V ",
"h L J J >XJ l l n }.l %X}.e %XV l }..X< G |.p ^ b.P.P.b.@.5.q.O.D.#.0.5.#.b.P.L.b.^ p >Xq C e $XV h C 1 A  Xe _.l }.].oX}.l E z ",
"G l F V J 0 +XV J 5Xl m +Xk %XA }.T J V }.J x T u ` / # ,.2.6.= D.= 6.2.,.# / f R :X}.l J x T J J J }.$XF }.V l G < F V .XrXL G ",
"z v V }.q L L V V J F wXL 2 $X0 J }.J q *X}.|.&XT }.C .X6 o - a ^ o - o b J }.V 1 5 l V #Xh }.V }.L V k H L %XL %XJ %Xz l &XF 2 ",
"k L :X}.h 4Xz }.Z V l F #XL 5Xl q ].l 5XE >X>XJ C &XA <X|.C <XA OX{.e A J ].@Xl z #Xz F F l 0 }.}.z 2 #X2 k %XL Z J A V J E L F ",
"G $Xj E %XL 4 }..X#Xh L S 3Xl :X}.V @XL C C >X@XT T T [.|.T J C OX'.B [.;X;XJ J +XV L F L #Xl J n H } k `._.}.J A ]..XJ L F L D "
};
