/* XPM */
static char *d2394dab372441dead1e20bd686ab5506CsESryE7W6uUZdT[] = {
/* columns rows colors chars-per-pixel */
"64 64 249 2 ",
"   c #531313",
".  c #5B1616",
"X  c #641A19",
"o  c #701A1A",
"O  c #5B2514",
"+  c #652E1D",
"@  c #422422",
"#  c #472828",
"$  c #4B2B2B",
"%  c #572929",
"&  c #493727",
"*  c #4F3232",
"=  c #563735",
"-  c #5C3C3B",
";  c #762827",
":  c #713327",
">  c #693939",
",  c #763737",
"<  c #7D3C3C",
"1  c #2C4A02",
"2  c #39570E",
"3  c #3C5C13",
"4  c #3B5B18",
"5  c #3F600F",
"6  c #3E6119",
"7  c #4D4D19",
"8  c #45591B",
"9  c #435D1B",
"0  c #436216",
"q  c #486816",
"w  c #44641B",
"e  c #49651D",
"r  c #45691C",
"t  c #4B6B1E",
"y  c #4E701F",
"u  c #4C4A28",
"i  c #50452D",
"p  c #4B5825",
"a  c #52582B",
"s  c #5A4737",
"d  c #595735",
"f  c #5B5C34",
"g  c #7A482B",
"h  c #70562B",
"j  c #67453C",
"k  c #634B3E",
"l  c #67583E",
"z  c #466521",
"x  c #4A6622",
"c  c #476825",
"v  c #4C6B24",
"b  c #4D6C2A",
"n  c #516D24",
"m  c #55642B",
"M  c #596729",
"N  c #526E2A",
"B  c #596E2D",
"V  c #4E7125",
"C  c #4E712B",
"Z  c #537225",
"A  c #597626",
"S  c #587925",
"D  c #54742B",
"F  c #59762C",
"G  c #56792D",
"H  c #5A7A2D",
"J  c #4B6830",
"K  c #5B6434",
"L  c #586C34",
"P  c #567432",
"I  c #5A7532",
"U  c #567931",
"Y  c #5C7C33",
"T  c #5F753C",
"R  c #5D7C3A",
"E  c #6B6A35",
"W  c #63643E",
"Q  c #636C3D",
"!  c #667637",
"~  c #627D34",
"^  c #64743C",
"/  c #627D3B",
"(  c #6B7D3C",
")  c #737035",
"_  c #624241",
"`  c #6B4444",
"'  c #664B43",
"]  c #6A4B46",
"[  c #6E4B49",
"{  c #734545",
"}  c #744D4C",
"|  c #794B4B",
" . c #695644",
".. c #77544E",
"X. c #7B5251",
"o. c #7E5B57",
"O. c #5E7C42",
"+. c #6A6943",
"@. c #667740",
"#. c #637C42",
"$. c #787650",
"%. c #861F1F",
"&. c #872525",
"*. c #8D2C2B",
"=. c #972926",
"-. c #9B2B2B",
";. c #813332",
":. c #8C3535",
">. c #823A3A",
",. c #8D3A3A",
"<. c #943434",
"1. c #963736",
"2. c #A02727",
"3. c #A32C2C",
"4. c #AC2D2D",
"5. c #B02E25",
"6. c #B52F2F",
"7. c #B82F2F",
"8. c #A8362D",
"9. c #B53429",
"0. c #BD332D",
"q. c #A43434",
"w. c #A93736",
"e. c #B73331",
"r. c #CA3926",
"t. c #C4352C",
"y. c #CC3A2A",
"u. c #D43E28",
"i. c #C33D35",
"p. c #97482E",
"a. c #8A4932",
"s. c #A84937",
"d. c #B6433A",
"f. c #8C612F",
"g. c #D8462A",
"h. c #D24C34",
"j. c #E24C29",
"k. c #E5552E",
"l. c #E95C2E",
"z. c #E65C34",
"x. c #EC622F",
"c. c #EA6234",
"v. c #844343",
"b. c #854C4C",
"n. c #8B4949",
"m. c #9B4645",
"M. c #835555",
"N. c #8A5555",
"B. c #845A56",
"V. c #855C5B",
"C. c #8D5C5C",
"Z. c #925D5C",
"A. c #9B5B5B",
"S. c #B94947",
"D. c #B45250",
"F. c #B75757",
"G. c #8C635C",
"H. c #856363",
"J. c #8D6161",
"K. c #926161",
"L. c #9B6565",
"P. c #936969",
"I. c #9D6B6B",
"U. c #92756D",
"Y. c #947272",
"T. c #A26464",
"R. c #A36B6B",
"E. c #A96E6E",
"W. c #B56464",
"Q. c #BA6463",
"!. c #B56B6B",
"~. c #A37171",
"^. c #AC7272",
"/. c #A47B7B",
"(. c #B57676",
"). c #B67979",
"_. c #B97D7D",
"`. c #D15643",
"'. c #E46C58",
"]. c #5D832E",
"[. c #5D8134",
"{. c #5F823B",
"}. c #64842E",
"|. c #638235",
" X c #698537",
".X c #688A37",
"XX c #64843B",
"oX c #6A853C",
"OX c #66893D",
"+X c #6B8A3D",
"@X c #708B3E",
"#X c #6D903D",
"$X c #74913F",
"%X c #658442",
"&X c #6B8543",
"*X c #668943",
"=X c #6C8B43",
"-X c #678248",
";X c #6C8C49",
":X c #778847",
">X c #728D44",
",X c #748D4A",
"<X c #6E9144",
"1X c #6F9049",
"2X c #729245",
"3X c #74934B",
"4X c #79944B",
"5X c #769A4D",
"6X c #7B9A4D",
"7X c #6F8D50",
"8X c #778B52",
"9X c #779554",
"0X c #7A9552",
"qX c #7C9B53",
"wX c #829B57",
"eX c #819D54",
"rX c #81A155",
"tX c #82A35A",
"yX c #87A75D",
"uX c #98BC5A",
"iX c #87A663",
"pX c #94AF69",
"aX c #95B468",
"sX c #AC8383",
"dX c #B48686",
"fX c #BC8383",
"gX c #BD8A8A",
"hX c #BA918F",
"jX c #C08787",
"kX c #C38C8C",
"lX c #D88783",
"zX c #C69292",
"xX c #C99595",
"cX c #C19898",
"vX c #CD9A9A",
"bX c #D19F9F",
"nX c #CEA1A1",
"mX c #D4A4A4",
"MX c #D7A8A8",
"NX c #DAAAAA",
"BX c #DBB2B2",
"VX c #E4AAA6",
"CX c #E1B5B5",
"ZX c #D4F894",
"AX c #DEC1C1",
"SX c #EACACA",
"DX c #ECD3D3",
"FX c #F3DCDC",
"GX c #F5E0E0",
/* pixels */
"/ D 3Xe Y Y z XXXXD &Xz v I / R |.+X<XY *XXXXX=Xt +X4X Xv OX=XV XX2XF XXP &XN ~ I Y v R &X%Xv XXR [.XXY Y XXG D R 3XI XXP b / #.",
"&Xb R z *XN P R P 3 b 9X;Xb R b Y v [.OXXXG XXF |.4X~ ~ 6X=XOXG D F ~ ~ / Y >X&XY Y 3X&XI 3X3XD *XR 2X|.Y =XXX<XY XX0XD / R &XXX",
"&XI qXXXP *XD XXv XXz Y qXD %Xb Y tX[.XXY =X<XH =X|.4X|.oXH |.XXqXXX2X=XoXN ,XXXN &XXXR XX{.b XX=X=X4X0 |.G w v F XXI *XXXR P =X",
"XX/ I =Xw 3X|.0XR XXY XXXX%XI &XV 2XD {.{.Y R 5XF +XoX+X>X2X|.Y v G F 3XoX~ ,X,X/ B =XY pX<Xw {.G 3 v Y G 2XF Z *X3XXX*XiX0 Y D ",
"XXY 3XY =X*XG v R D D 3XY b Y %X{.V <XU *X{.R R oX+X4XXXoXXXqXH rXXXoXN &XoXI 3XoXn %XI R XX*XaXV qXH Y Y 3 Y XX>X3X+XY 3 D w U ",
"0X/ R e 3Xv D 0XY OXXX3XI pXXXv qXY Y {.U qXXXi s W F >X~ XXY [.3 <XD N ~  .s a =X/ R D C XX6 2XD Y rXR R D 2 F Y 0 H G XXV *X[.",
"I D XXD Y XX=X[.Y Y [.D XX3Xv *XXXR P Q ` } M.I.K.m +XXXZ H XXv |.H Y XX>X .L.L.X.} ` L 1X6 D 0X<X3 OXR 3 D x D F R G D t r <X[.",
";XXX*XD D 3XV XXXXG r Y ;X3XiXN L s ..C.K.L.V.<.) *X~ Y v 6Xw 3XD R +X|.6X Xs.< R.K.K.C.' i 3X2 =X<X[.XXY >XXX9 I F 3 [.V r r G ",
"Y 0XrXXXU D OX=XY D <X5X;X=XY  .M.K.K.K.J.L.*.6.:XD 4X~ =XY |.XXOX+XH rXoXF p.6., I.K.K.K.K.X.W OXXXD 2XF v N ~ e e R D v =XV [.",
"Y *XXX=XY D <XY =XH [.D R K } R.R.K.K.K.R.` 2.q.! =XF Y V 6X[.OXY +X|.+XF >Xg 6.&.K.K.J.K.K.E.L.s x [.Y yX=XN n N rXH XX+X[.2XOX",
"R R R ;XD w 2XG G XXH V f C.R.d.-.C.K.K.R.` A.cXo.Q Z =XXX+XY Y =XY G +X>Xd hXdXN.Z.K.K.K.n.5.m.R.o./ r v XXF 3Xv yXXXv 3XC Y {.",
"D v Y e XXXX+XG Y =XXXW R.L.R.-.3.C.K./.jXMXMX).(.d D H Y Y Y =X|.F 2XoX+XX.).jXMXvXfXI.C.v.4.,.R.R.C.p Y F ;XF >XD H XXY 0 %XXX",
"D %XXX3Xe v Y 5XOXXXh L.r.<.C.C.C.^.mXkXjX(.F.F.(.W |.|.+X4XoX~ t XX=XH |.X.(.S.(._.jXvXvXL.N.C.N.4.s.L.! |.|.G Y Y R XXe D v v ",
"XXP D 3X=XR XX[.r ) &.A.3.<.C.L.kXvX_.kXzX(.g.u.!.d H oX+X|.A eX2XH 2X2X~ X.S.j.0.fXkXkXfXxXfXK.N.3.<.A.&.( H F 5X3 D 3X2 &X0XR ",
"v &XR Y OXD [.G h 6.6.v.C.C.L.vXfXmX^.V.o.vXS.S.(.W +X|.A  X XH oX>XoX2Xn X.(.0.!.dXV.P.fXkXzX_.K.C.C.*.7.3.:XZ qXv 3XXXz D b / ",
"R *X;XG D G G D 2.6.y.5.C.L.xXfXxXJ., -.7.,.V.^.K.f A H 6X|.|. X+X~ XXF =X_ L.^.X.q.6.<.> dXkXxXfXK.v.y.0.7.o Z Y G =XXXqXY P 4 ",
"/ *X*X*XG Y D ] v.0.0.v.L.vX_._.~.q.6.6.6.6.a.= V.f |.2XH S <X2X2XY qXY =X] [ s w.6.6.6.6.< _.).xX_.Z.:.y.3.N.f G XXY XXD P 3 &X",
"XXR R Y XXrX7 { K.b.; L.vXfX(.mXb.6.6.6.p.) A Z [ f H G [.[.]..XH eX,XY ,X- f F I G.-.7.6.q./.fX(.zXfXC.v.N.K.> 3 Y +Xt XXz P R ",
"Z OXD Y [.e =.4.*.C.Z.~.mX(.(.mX; 7.8.g F H |.}.S |.H v Y XX.X6X+X|.>X>X>X Xe oXF D ,Xp.6.6.Y.fX(._.xXL.K.n.*.6.+ G V +XY v R P ",
"[.<X[.Y 3X5X2.0.y.>.K.vX).(.(.fXA.; M ;XXX|.}.Z #XS G H Y H a u m oX>XZ Y >XN oXF 0X=X;XE ; ^.).(.(.fXvXC.=.u.6.: V [.Z XX0Xz %X",
"[.G OX<X;XO 6.t.-.K.fXxX(.(.(.(.vXC. .Z *X+X#X+X|.y t |.m @ $ $ $ @ Y =XZ oX>XF +XF n x } E.vX(.(.(.(.bXI.N.r.0.2.p G +X0 XXb %X",
"r G [.v 8 M.v.=.n.L.MX(.(.(.(.(.(.(.(. .K H [.|.Z Z F s X.* j _ - $ ..f XXoX~ eXF n  .K.(.(.(.(.(.(.(.fXgXC.:.=.M.j <Xr XXD P N ",
"2XZ 4XY K C.Z.N.K.~.vX(.).xXkX(.(.(.(.).R.K oX+X2Xl } b.= = [ K._ # ` N.` ( XXw ^  .(.(.(.(.(.(.zXzX(.fXxXC.K.b.I.[ n Y v %X9XXX",
"XXXX=Xv Q E.9.4.N.jXfXzX).J.V.gX(.(.(.(.(.^.V.] s } <   X % _ _ = ; . . N.- ' ' R.(.(.(.(.(.(.vX} I.xX_.MXE.>.t.,.C.+X2XXX*XqXI ",
"4XD e ~ k R.m.-.C.xX_.sX, q.4.f L.).(.(.(.(.(.bXjX` Z.%.7.*.L.sXb.6.4.; K.{ MXkX(.(.(.(.(.).G.+ 7.<.` zXkXgXn.-.A.C.^ 6 +XY v 3X",
"I qXF ~ ` K.K.C.K.mXmXX.4.6.s.H m ' ^.(.(.(._.DX).R.I.A.M.(.A.L.T.(.< E.J.(.fXDX).(.(.(.R.' =Xn 6.6.:.~.jXvXK.C.K.K.& t rXD *XXX",
"~ N / ~ } R.v.K.E.mXMX> 6.6.8.G G H ^ B.R._.SXSXmXvXzXgXF.`.g.h.g.D.W.xXzXbXNXDXMX(.C.+.L Y F ~ 6.6.=.H.kXmXL.N.v.I. .3X3Xv 0X=X",
"wX~ >X3XC.:.t.;.E.mXMX> 6.7.: |.H F ~ R a MXjXfXNXBXFX'.c.j.t.g.t.z.k.VXDXNXNX(.mXsXv Y G XXF N =.6.=.H.jXmXK.=.y.T. .v D *XY 0X",
"XX4XH F X.T.&.N.^.MXfXC.6.7.: XXZ F G 2 N ` } (.MXBXCXx.j.t.u.u.u.t.z.'.FXjXjXR.{ W t +X|.=X|.~ =.6.:.^._.mXL.n.<.R.s D XXv H |.",
"2XoX|.D } K.K.K.^.MX).xXX.-.: e |.oXXXXXY ] C.N.E.MX`.c.u.y.<.X.9.y.g.c.lXvXR.B.C.K Z G XX|.H N &.-.Y.vX(.mXL.K.K.K.k 3XV <XG |.",
"+X XH +X} K.K.K.^.MX(.).mXgXk H Y +XD D 3 ` ` X q.K.h.k.0.D.> E.> g.y.z.W.n.*.. C.a [.|..XV G Y B.nXzX(.(.mXL.K.K.K.' v Y D rX5X",
" XoXY H ` K.K.K.R.MX(.D.r.!.C.> G +Xz R b ] v.. 4.F.d.k.0.S.= Z.> g.t.z.W.7.&.X C.$.y G Z ~ K - R.F.r.W.(.mXR.C.K.K.& *Xv Y =X4X",
"+X~ >X|.@.C.K.R.< sXfXh.g.W.E.- 0 XXXXR XX' }   ; C.S.k.g.u.w.Z.t.t.k.g.W.{ X % C.a H |.|.F ^ = ).d.k.S.mXC.>.R.K.X.e Y H 2XZ +X",
"~ oX+XF ^ C.E.;.7.Y.fX!.W.R.X.I G N N I R $ - * _ gXT.g.y.y.y.y.y.y.g.e.K.kX$ = ` m 2 Y |.+X>XK B.(.F.(.MX>.6.Z.K.} +X~ +X+X|. X",
"oXeX5XH 8 C.C.6.7.n.MX(. .m Z 0 Y v *XI u # _ ` _ Y._.F.g.c.j.j.k.z.y.E.xX_ _ _ - @ XXn n ~ F ~ Y i K.fXjX=.6.<.^.` |.4XY +X~ n ",
"+XF >XeXXX..C.6.-.E U. .H t H H v oX=X3 u # _ K.[ * D.w.W.`.c.c.l.Q.F.w.>.- V.M.- @ Y |.F +XF R R XXP X.$.) 6.<.^.+.H Y 4X+X>X X",
"~ pX=X&XXXu M.3.( G 2X+XH y |.=XD ~ n / ^ @ = _ _ % ; 4.>.mXBXGXNX_.*.2.. - _ _ # & >Xn |.H Y G t Z Z H 3X|.h m.M.8Xn ~ oX~ >X=X",
"4Xw ;X3XU 3X[ &X[.+XH Z +X0 H =X|.2 Y oXY & # $ $ {     C.vXMXNXNX~.{     X.$ $ @ m 6XY 4XoXD F Z ~ Y XXH V pXl k eX:XF +XeXz *X",
"Z XXb P {.U d XX2X2XH H t y F H G oXY =X~ oXm f d M.X.< R.M.xXBX_.M.A.` C...a a +XqXt XXY Y F H ~ >XG G [.XX*X^ u ! ( M oXI I U ",
"|.2X3XR *X{.Y <XH 0 +XH }..X4XF 2X|.~ ~ ~ Z ~  X>Xa ' C.} (.CXCXmX^.X.C.- XX2XR .XH |.XXoXH XX=XY ~ qXG OXyXv  XiX! ( ( 8X*XR C ",
"Y <XXX*XC %XXX<X=XZ H +XS $XXXY Z Y +XXXG =X>X~ eX=X>XK _ vXAXAXBXxXa p |.+Xv |.Z 2X=XR D ~ XXw R +X=XD R Y XXF oXx &X/ / / ,X;X",
"[.Y R 4 %X9XU &X0 XXXX+X}.A |.t H XXG |.XX+X>Xe |.+X>XF ^ R.(.(.).X.N 3X|.XX+XY 6Xr [.rXXXZ 3XD Y [.G =X0X0 oX3XN oX^ ( L N / N ",
"=XR z 7XR %X*Xz 0 Z XXt H H +X2XG Z |.2X=X|.f f +XH H Z XXL.(.(.).} XXD Y H OXd a Z V Y G 6XXXR R XXXXv G qXY D ( / &XB &X0X0X*X",
"&XaX/ R &Xb 6 b P N F >X@X X XF D |.H S v _ C.K XXZ +XZ =XL.(.(.).[ XX3X0 R D k C.K XXXX4XoXY ~ v 5X0 XXR Y R / &X0X&XI / &XR I ",
"/ &X#.%Xc &XR ;X3XXXn D @XZ Z eXv F 8 s R.L.Q Y XXH .X6XoXL.(.(.).} XX;X=X|.<XD ] R.L.i F Z D I &X~ =X=Xv Y I 3Xn oX( / 3X,XD tX",
"I &X7X;X%X/ Y &X&XwX/  XoX+XoX0 F p L.W.t.!.K.^ 9 .X+XH ~ L.(.(.).[ ~ XXt Y M +.^.F.i.(.o.8 0X/ I oXN Y R XX;X,XI &XY 3XP &XXXb ",
"&X#./ %X3X=X*XI I #.B ,X2XA H H wXR.).d.k.D./.4.a.+X2XH +XL.(.(.).} D XX4X! 8.<.vXr.z.W.(.K.&XI N R e XX/ =X/ XX0XI 3X/ R ;X*X3X",
"0XP c -XP R ,X&X#.9X&X/ +X4Xn E h gXjX(.F.fX/.q.0.4.f.E ~ L.(.(.).[ :X) p.6.7.,.mX!.F.(.xXA.h 4X*XXXR I D wXN I e 6 OXU U %X=X/ ",
"b R -X#.T P 0XI 8X,X/ I k ' ;.6.6.<.zXfX(.)._.> 4.6.6.6.j I.(.(.).} ,.6.6.6.*.V._.(.).vX^.4.6.8.j ' @.Y XXR ;XD D OX5XG OX&X#.-X",
"3XR P 8X#.T ^ ( #.^ L &XW I.K.,.:.,.K.xXjX(.kXdX> <.6.q.` (.(.(.(.R., 6.3.:.| xX_.(.vXfXb.:.:.n.I.J.P Y Y r b ;Xw V Y D D R b P ",
";X/ 7X#.9X#.^ / L I 8X/ F f K.(.^.^.R.K.xXMX).jXfXP.V.J.mX(.(.(.(.).hXV.o.~.vX).fXNX).K.^.^.^.^.X.Y =XY H OXw v 3X*Xz XXC XXG |.",
"F 3Xb -X#.T &X^ 0XB B F Z XX+.C.J.J.J.J.L.R.vXvX(.kXkXzX(.(.(.(.(.(.fXkXkXjX(.mXzXL.J.K.J.J.K...N |.t XXXX|.Y G Y D {.R qX|.2X.X",
"XX/ -XP / 9X9 I 0X&X&XoX>Xn F W C.K.K.K.K.N.C.fXMXvXjXfX(.(.(.(.(.(.(.jXjXMXmXR.C.C.K.K.K.K.o.&XY D |.Y v [..Xq H R %X;X&X*XI =X",
"/ *XI I b Y / / / 0XF F |.Y =XY ^ C.K.K.A.4.<.C.L.I.fXvXMXMXMXMXMXMXMXjX_.L.K.N.3.-.E.J.K.X.L =XD D oXXXXXv [..XXXY 3 3 Y D %X&X",
"%X,Xz 9XY *XI N =XY ~ H H 2XY XXF p X.K.L.9.,.C.<.,.C.N.N.E.E.E.E.R.b.C.N.=.n.N.3.d.R.V.} x XXv H q y G ~ / ~ R R v .XuXq XXwX3X",
"I b oXXX1 F b 0XB D 4X.Xt Z XX0 ~ Y z  .K.E.L.N.r.3.C.n.4.;.v.K.;.:.-.C.v.0.-.K.E.R.C.W I ~ Y ~ A aXaXD Y D N XXb Z q ZX5 P N I ",
"b R 2 |.0X|.D %XP XXY .XrXt 2XXX/ Y 0 F a } X.L.A.L.K.-.y.y.>.K.-.y.t.;.I.A.R.C.X. .m .X|.+X|.Z Z 6X3Xv =XXXXX2XyXe n D I D H |.",
"/ z Y Z |.=Xv %Xw |.+XH G .X4X0 I Y qXH q F 2Xi C.C.: 6.6.0.< K.=.6.6.4.X.C.[ a oXt H XX~ F 2 4Xt e x / / Y F Z 5 D z iXP %X|.q ",
"R P qX0 Z XXR %X9Xv v v Y 0 4Xv *XXXoX+X|.F H |.I a K g &.=.% } o =.&.E Q p D =X~ Y n ~ >X~ ~ |.z v oXXXD G 2X|.t v 2X0 F XXR D ",
"z R Y Y 4XY v v V XXv ;XXXt ;XG v XX+X2 I oX|.4XF oX&XY ~ >XY XXeX>X~ ~ F H XXG 0 |.XXqXe F t =XD e F 3 H XXt [.v XX|.#XXXv / b ",
"I v I D Y w %XD Y qXv C %Xc ;XH XX~ Y D XXY n ~ F oXoXoXH Y H R |.e ~ qXY ~ 5X3 >X3XXXv Y n ~ Y R R XX=XP XXD v I 2 P D +XaXR I ",
"b N D XXe R R D D Y P iXR 4 =X0 H XXY e ,XXXoX>X~  XF >Xn Y XXyXZ |. X.XH H XXD 3 9 v D &Xz XXD XXR D c U R ;XR ;XY ;Xb v >XP 4 ",
"c R 3XXXz 0Xb XXG P v P -XR qXv 0 |.v qX/ 4X5XI F >XH 6XoXF 6XH $X.Xt H Y |.*Xv b &Xb P P v w XXXXb 4 ;X4 c ;XR G Y H D Y / R P ",
"I =Xx / ;XR 6 XX*X&Xz R J 9Xv 4XXXD &XR F F 3X&X~ ~ ~  XoX~ Y F $X}.S  X<X2XY Y %XD R P R ;Xv R C U O.c {.[.XXR H |.+XR R P R N "
};
