/* XPM */
static char *_abd859ccba04a08b98a61b5988ae069S1Ipi5txG4YKCkVG[] = {
/* columns rows colors chars-per-pixel */
"64 64 165 2 ",
"   c #521212",
".  c #422222",
"X  c #7C2424",
"o  c #2C4A02",
"O  c #325207",
"+  c #35540C",
"@  c #3B570D",
"#  c #365909",
"$  c #3B5B0E",
"%  c #375716",
"&  c #375B11",
"*  c #3C5C13",
"=  c #375A18",
"-  c #3D5C1B",
";  c #3F600F",
":  c #3D6216",
">  c #3F611A",
",  c #415F15",
"<  c #425F1A",
"1  c #496D0B",
"2  c #426216",
"3  c #4A6713",
"4  c #476816",
"5  c #4C6917",
"6  c #44641B",
"7  c #4A651D",
"8  c #456A1D",
"9  c #4B6B1D",
"0  c #516D1E",
"q  c #4E701E",
"w  c #52731E",
"e  c #405E20",
"r  c #466521",
"t  c #4A6622",
"y  c #466922",
"u  c #4C6C23",
"i  c #4B6528",
"p  c #46682B",
"a  c #4D6C2A",
"s  c #516D24",
"d  c #526E2A",
"f  c #596E2D",
"g  c #4E7125",
"h  c #4E712B",
"j  c #527225",
"k  c #597626",
"l  c #577827",
"z  c #5A7A26",
"x  c #54742B",
"c  c #59762C",
"v  c #56792C",
"b  c #5A7A2D",
"n  c #4B6830",
"m  c #526E33",
"M  c #596F31",
"N  c #567432",
"B  c #5A7632",
"V  c #567931",
"C  c #5C7C33",
"Z  c #5D763B",
"A  c #5D7C39",
"S  c #60772F",
"D  c #617E2F",
"F  c #617636",
"G  c #687736",
"H  c #627D34",
"J  c #697837",
"K  c #61763A",
"L  c #627D3B",
"P  c #6A7D3C",
"I  c #604040",
"U  c #5E7C42",
"Y  c #637C42",
"T  c #697D40",
"R  c #B72F2F",
"E  c #E04424",
"W  c #EB6437",
"Q  c #906060",
"!  c #B57777",
"~  c #5E812D",
"^  c #5E8134",
"/  c #5F823A",
"(  c #62822E",
")  c #6B8F2D",
"_  c #628235",
"`  c #698537",
"'  c #668836",
"]  c #6D8C37",
"[  c #64843B",
"{  c #6A853C",
"}  c #66893D",
"|  c #6B8A3D",
" . c #708B3E",
".. c #6F913E",
"X. c #73913E",
"o. c #658441",
"O. c #6A8543",
"+. c #668942",
"@. c #6A8941",
"#. c #6D8B41",
"$. c #688D40",
"%. c #6C8C43",
"&. c #6A8945",
"*. c #6C8B46",
"=. c #658248",
"-. c #688148",
";. c #6D8C49",
":. c #708646",
">. c #708B46",
",. c #728D44",
"<. c #728F46",
"1. c #798A46",
"2. c #728D4A",
"3. c #758E4B",
"4. c #798E4E",
"5. c #6E9144",
"6. c #6E9149",
"7. c #729245",
"8. c #789545",
"9. c #7A9A47",
"0. c #72914B",
"q. c #769249",
"w. c #74934B",
"e. c #749449",
"r. c #74934D",
"t. c #789249",
"y. c #79954C",
"u. c #76994D",
"i. c #7B9B4D",
"p. c #6F8D50",
"a. c #728B53",
"s. c #788D52",
"d. c #769452",
"f. c #7A9552",
"g. c #789752",
"h. c #759852",
"j. c #7C9C53",
"k. c #7C9B55",
"l. c #7B935B",
"z. c #7FA052",
"x. c #819651",
"c. c #819D52",
"v. c #839D5B",
"b. c #81A256",
"n. c #88AA54",
"m. c #84A35A",
"M. c #89A55D",
"N. c #84A95C",
"B. c #89A95E",
"V. c #98BC5A",
"C. c #84A262",
"Z. c #8BAA64",
"A. c #92A563",
"S. c #90AC62",
"D. c #8FB167",
"F. c #93B164",
"G. c #99B662",
"H. c #91B06A",
"J. c #93B76D",
"K. c #9BB96F",
"L. c #95B671",
"P. c #9DBA77",
"I. c #DFB1B1",
"U. c #D4F894",
"Y. c #FCEEEE",
/* pixels */
"L x 0.7 C B r [ [ x &.r u B L A _ | 5.C +.[ [ #.9 | t.{ u } %.g [ 7.c [ B O.d C N B u A &.o.u [ A _ [ C C [ v x A 0.B [ N a L T ",
"&.a A r @.d N A N * a g.;.a A a C u ^ } [ v [ c _ t.H H u.%.} b x c H H L C >.O.C C r.&.B 0.0.x @.A 7._ C %.[ *.B [ g.x L A &.[ ",
"O.N k.[ N +.x [ u [ r B k.x o.a C m.^ [ C %.6.B #._ t._ { b _ [ k.[ 7.#.{ d 2.[ d O.[ A [ ^ a [ %.%.w.6 _ v 6 u c [ N +.[ A N *.",
"[ L N *.6 0._ g.A [ C [ [ o.B &.g e.x / / C A g.c | { | <.7._ C u v c w.{ H 3.3.L f *.C D.5.6 / v * u C v 7.c j @.0.[ +.Z.2 C x ",
"[ B w.B %.@.v u A x x w.B a C o./ g 5.V +./ A A { | t.[ { [ z.v b.[ { d O.{ c w.{ s o.N A [ +.J.g j.b B C * b [ <.0.| B & x 6 V ",
"g.[ A 7 w.u x g.C } [ 0.N H.[ u k.C C / V k.[ o.N [ c <.H [ C ^ @ 5.x d H y.{ S #.L A x a [ : e.x C b.^ A x + c C 2 b v [ g $.^ ",
"N x [ x B [ %.^ C C / x [ w.u @.[ A B o.[ N u x x H | [ j b [ u _ b B [ <.1.< H C C +.[ ;.2 x j.5.& } A * x t x c A v x 9 8 5.^ ",
"*.[ @.x x 0.g [ [ v y B *.d.Z.x A A +.A [ N o.[ #.@.H C u u.6 0.x A | _ i.{ 1.L B <.#.x x A h.& %.5.^ [ B <.[ < N c * ^ g 8 8 v ",
"B g.b.[ V x } %.C x 5.u.5.%.A [ A o.B N O.d.B +.<.x w.A @.C _ [ } | b m.{ c P <.t.x { C %.[ +./ } [ x e.c u d H 7 7 A x u #.g ^ ",
"C @.[ %.C x 5.C %.b ^ x ^ } x x *.u L L B O.<.H [ %.x C j u.^ } C | _ | c <.c { b 7.j.k.x %.[ 8 5.8 ^ B M.#.d s d b.b [ | ^ e.} ",
"A A A *.x 6 e.v b [ b g C u } [ B C L d B B d H x [ j %.[ | C C #.C v | <.s <.0 c | x &.A o.7.u.C h } 8 u [ c w.u M.[ u 0.h C / ",
"x u B 7 [ [ | v C %.[ v } [ [ C *.d [ *.B >.[ C [ v j b C C C %._ c 7.{ | { c y._ j B [ / x g j.[ %.g 2 C c *.c <.x b [ C 2 +.[ ",
"x o.[ 0.7 u C u.} [ | %.%.v [ [ [ *.x r.m.c { x H { _ _ | w.{ H 9 [ %.b _ ` @ 7 s [ C 6 v j C 2 ;.u 0.[ [ _ _ v C C A [ 7 x u u ",
"[ N x w.%.A [ / 8 %.} b C C u x x y v A x H x _ <.9 b { | _ k c.7.b 7.7.H H H H u.B %.%.C [ A *.@.A 0.[ v | b c y.* x r.+ &.g.A ",
"u &.A B } x ^ v v ^ g 6 *.[ +.V v v %.} { [ y.b b <.| _ k ` ` b { <.{ 7.s | c._ | 9 | C O @.B [ 7 A @.B C _ u.l j.u w.[ t x a L ",
"A @.;.v x v v v v v } 5.V %.u %.l } } ^ x _ [ [ { _ k b i._ _ ` | H [ c #.H <._ { 7.7.C k.j C { [ &.x u B | _ j C v %.[ k.C N - ",
"L +.+.@.v C x b v 5.^ %.C %.C l g v j 9 %.| 7._ l b _ 7.    X X X X     #.c { { [ <.{ A | v 9 ^ x [ x r.[ C ~ j v [ C [ v N * O.",
"[ A A B [ b.g v _ _ v [ } ^ _ } j 9 9 [ [ | k z l . I I X R R R R R R X I I . c B m.c B u } C [ @.6 u %.L.x ~ 7.: B | 9 [ r N A ",
"j } x C ^ 8 x v v [ _ v } _ | ~ 5 8.6 [ c b ' . I Q Q Q X R R E E R R X Q Q Q I . x w.H [ j v b } [ [ x @.C ( v b v g | C u A N ",
"^ 5.^ C w.u.N A a %.5.b _ | i.( z 0 x *.[ _ . Q Q Q Q Q ! R E E E E R ! Q Q Q Q Q . #.*._ [ [ C v [ x / x ^ ' _ g g ^ j [ g.r o.",
"^ v } 5.*.u [ A + @.[ C _ z 8.8.D D H j @.I Q Q Q Q Q Q ! R W W W W R ! Q Q Q Q Q Q I u _ [ [ v C j.u u u u ' i.[ v v | 6 [ a o.",
"5 v ^ u 7 x h.x x u #.v b _ z 3 7.b 6 *.I Q Q Q Q Q ! I.! ! R R R R ! ! I.! Q Q Q Q Q I _ u [ [ C 8 A %.u b j b v x 5.8 [ x N d ",
"7.j w.C L B ;.C x @.C } b b z w l v b . Q Q Q Q Q I.I.! ! ! I.I.I.I.! ! ! I.I.Q Q Q Q Q . 6 <.b ^ v v ^ 2 } } $ b B.g C u o.d.[ ",
"[ [ #.u [ b B 2 [ %._ b 9.q j ( 8 8 . Q Q E X ! ! ! ! ! ! ! ! ! ! ! ! ! ! ! ! ! ! X E Q Q . A j j._ _ g u ^ ^ [ @ @.| 7.[ @.k.N ",
"y.x 7 H 2 <.9 C j } u # v v l | v v I Q Q X X I.! ! ! ! ! ! ! ! ! ! ! ! ! ! ! ! I.X X Q Q I <.C _ 9 | 5.g 6 u b B.u %.2 | B u w.",
"B k.c H _ #.u C C | | _ C ^ u.v q . Q Q Q ! I.! ! Q I Q ! ! ! ! ! ! ! ! Q I Q ! ! I.! Q Q Q . u C v 6 C } [ u 7 _ # 6 9 b.x @.[ ",
"H d L H m.H [ w.b 9 x } x g g v v I Q Q ! Q ! ! I j.B x Q Y.! ! ! ! Y.Q ^ v b I ! ! Q ! Q Q I C N.b w.9 6 j a O [ b j.0.0.u g.%.",
"v.H >.w.C C u C u u $.} g / g _ b I Q E X I.! I 8 z.A m.I ! I . . I ! I j | b %.I ! I.X E Q I x b j 2 C _ w.a N @.[ %.u x @.B g.",
"[ t.b b <.6 %.^ b C ^ x A x u [ . Q Q X X I.! . : x 9 7 Q .         . Q z._ _ 7.. ! I.X X Q Q . b b C C s u a i 9 b 6 x [ u b _ ",
"7.{ _ v 6 #.*.[ +.6.+.y A [ A 7 . Q Q ! ! ! I g x 8 b *..   X X X X   . 9._ 7._ l I ! ! ! Q Q . | 2 | v _ B B B v 9 A w.g 5.v _ ",
"] ` b | [ %.B y [ r.a u [ u C b I Q Q Q I.! I C 2 [ [ I   X X R R X X   I _ v ..v I ! I.Q Q Q I _ b %.c _ x e N _ l [ u B x b.u.",
"` { C b b _ [ 6 [ B &.a A x v j I Q Q Q I.! ! 5 9 C I .   X R E E R X   . I b 9 j ! ! I.Q Q Q I c H { s C +.o.A _ _ u @.u C #.8.",
"| H <._ i.v 8.u.x [ u 0._ v g ^ I Q Q Q I.! ! ! Q Q ! .   X R E E R X   . ! Q Q ! ! ! I.Q Q Q I C d c | H [ c { _ _ 6 b b 7.l | ",
"H { { c ' ] w 9 j %.0.@.x j 8 b I Q Q Q I.! ! ! ! Y.I.I   X X R R X X   I I.Y.! ! ! ! I.Q Q Q I H H b c [ _ <.w.v #.| H | | _ ` ",
"{ x.y.b 9 ..' ' _ [ u 7.j b j 6 . Q ! ! ! ! ! ! ! ! ! Q .   X X X X   . Q ! ! ! ! ! ! ! ! ! Q . C c 7.{ H H { c | b._ w.C | H s ",
"| c >.c.| } ~ b j A [ 9 b 9 b b . X X X R R ! I.! ! ! ! I .         . I ! ! ! ! I.! R R X X X . A [ b | H <.9 i._ #.b C w.| <.{ ",
"H S.*.*.[ g _ j %.v 7.| b q _ %.x X R R E W R I.! ! ! ! ! I.I . . I I.! ! ! ! ! I.R W E R R X x 9 j j b w._ b 9 { M.s H { _ <.#.",
"y.6 ;.r.V u.x 5.^ | b l ] 2 b #._ X R R E W E ! I.! ! ! Y.I b b C w.I Y.! ! ! I.! E W E R R X c j H C [ v g F.x d x.1.S | c.r @.",
"j [ a V / V v [ 7.5.b b 9 w c b v   R R E E W R I.! ! ! Q j j [ %.g C Q ! ! ! I.R W E E R R   C H <.v v ^ [ @.{ 7 G J f O.B B N ",
"_ 7.r.A +./ C 5.b 2 | b ( ' 9.c 7._ X R R E E R ! ! ! ! I c | C C %.C I ! ! ! ! R E E R R X [ #.C H k.v } N.u { A.J P P 4.+.A h ",
"C 5.[ +.h o.[ 5.%.j b | z X.[ C j C   R R R X ! ! ! ! ! Q H b w.u u 0.Q ! ! ! ! ! X R R R   [ 6 A | %.x A B [ c { t O.K K L <.;.",
"^ C A = o.h.V %.< [ [ ] ( k _ 9 b [ v   R X ! Q Q I.I.! ! Q I I I I Q ! ! I.I.Q Q ! X R   j 0.x C ^ v %.g.2 { w.d { F P M d L d ",
"*.A r p.A o.+.r 2 j [ 9 b D | 7.v j _ 7.X I Q Q Q Q ! I.! ! ! ! ! ! ! ! I.! Q Q Q Q I X v u.[ A A [ [ u v k.C x P K O.f O.g.g.+.",
"O.P.L A &.a > a N d c <. .` ` c x _ b z j I Q Q Q Q Q Q Q I.I.! ! I.I.Q Q Q Q Q Q Q I [ w.{ C H u y.2 [ A C A L O.g.O.B L O.A N ",
"L O.L o.r O.A ;.r.[ s x  .j j c.u v 7 5 ' _ . Q Q Q Q Q ! X X ! ! X X ! Q Q Q Q Q . 7.x c j x N O.H *.*.u C N r.s { P K r.3.x m.",
"B O.a.;.o.L B &.O.v.K { { ] { 2 C 7 ] 8.9 ' ^ . I Q Q Q Q E X Q Q X E Q Q Q Q I . } A H [ 6 g.L B { d B A [ *.<.N O.H r.N O.[ a ",
"-.T L o.r.*.+.B B Y f 3.7.k b b i.t.D z ] _ 8 b [ . I I Q Q Q Q Q Q Q Q I I . [ v | v [ [ _ O.N d A 7 [ L #.L [ g.A 0.L A *.+.3.",
"g.B i O.M A 3.O.T l.-.L | y.s [ { H 7.( X.b _ C j j C | . . I I I I . . | j @.C b b.u *.b [ 7 y.@.[ A N x v.d N 7 > } B V o.*.L ",
"a A -.Y Z M g.B s.2.L B H H c C a x [ _ _ l v b _ @.x B b X.9._ H b C s C H [ [ x [ [ @._ j #._ b v o.B [ A &.x x } u.v } &.Y =.",
"w.A N a.Y Z K P T K M :.B B f B d 6 _ | ' b j i.@ [ [ B | b i.| b | m.7.{ H L [ [ B w.A C s x s b | V C C 8 a 6.6 g C x x A a N ",
"*.L p.U l.Y K K M B 4.K c d [ L x x j | %.j w.7.5 | ^ 2 b C @ %._ _ j b 7.[ [ x A [ u x s b C b 5.C %.C b } 6 u 0.+.r [ h [ v _ ",
"c r.a =.Y Z O.F g.f f c d [ { 6 _ b b u B B [ u C ( n.z 9 | A C _ _ b _ _ v b @.v b s x M.[ H H u _ 9 [ [ _ C v C x A A k._ e.} ",
"[ L &.N L g.< B g.O.O.{ <.s c [ b | 0.[ C x 7 b v z w z 9 [ u @.b l _ | _ v ^ b u _ | x u N g.@.C x _ C u _ ' 4 b A =.;.&.@.B *.",
"L +.B B a A K K L g.B c ( b #.C ' i.u d B _ k.*._ 8.~ z ^ 0.u A _ 9 9 9 ^ _ 2 b b g u *.u [ x *.x x { [ [ u ^ ' [ C * - B x o.&.",
"o.<.u d.C +.N d *.C H b D X.C [ v b C *.b j c H ^ x b | A N / 5.b $ l l e.g b b u j B u B s [ u b 5 0 v H L H A A u ) V.4 [ v.d.",
"B a | [ o c a g.f x w.' 9 j } 2 H C 9 %._ | b v w.[ A u B B A ^ %.5.9 j _ g 9 _ 9 _ [ _ C H B H k G.F.x C x d [ a j 1 U.; N d B ",
"a A @ _ g._ x o.N [ ^ [ b.9 e.[ L B 2 b k l j v * N N 6 x x u 7.%._ x _ c b C v %.b H [ _ | _ j j i.w.u *.[ [ 7.B.7 s x N x b _ ",
"L r B x _ %.u o.6 _ | b v } w.6 N C j.b 4 b 8.' w.d B N x C [ A , x b j b v , H | 9 b [ H c $ y.9 7 r L L B c j * x r C.N o._ 4 ",
"A N k.7 j [ A o.d.u u u B 2 w.u @.[ { | _ c b _ { s [ N @.b v x H x s { { s c %.H b s H <.H H _ r u { [ x v 8.' 9 u 7.6 c [ A x ",
"r A B B w.B u u g [ u *.[ 9 *.v u [ | # B { _ w.c { O.C _ 7.C [ b.<.H H c b [ v 6 _ [ j.7 c 9 #.x r c * b [ 9 ^ u [ _ ..[ u L a ",
"B u N x B 6 o.x B j.u x o.y *.b [ H C x [ C s H c { { { b C b A _ 7 H j.C H y.* 7.w.[ u B s H C A A [ %.N [ x u B @ N x | K.A B ",
"a d x [ 7 A A x x C N C.A % %.6 C [ B 7 3.[ { <.H { c <.s C [ M.j _ ` ' b C [ x * < u x &.r [ x [ A x y V A ;.A ;.B ;.a u <.N - ",
"i A r.[ 6 g.a [ v N u m =.A k.u 6 _ u k.L y.y.C c <.b i.{ c u.b X.] 9 b C _ @.u a &.a N N u 6 [ [ a - &.* y ;.A v C b x C L A N ",
"B *.t L ;.A > [ @.&.r A n d.u w.[ x O.A c c w.O.H H H ` { H C c X.( z ` 5.7.B B [ x A N A &.u A h V U p / ^ [ A b _ | A A N A d "
};
