/* XPM */
static char *c3451c38fe2a4056d78b1f39baed9699DiZVcBdRsZToaU1L[] = {
/* columns rows colors chars-per-pixel */
"64 64 246 2 ",
"   c #3F1F1F",
".  c #4E1313",
"X  c #571616",
"o  c #671919",
"O  c #781F1F",
"+  c #65341B",
"@  c #442424",
"#  c #482727",
"$  c #4C2C2C",
"%  c #552727",
"&  c #4A3B29",
"*  c #523332",
"=  c #573936",
"-  c #5C3D3C",
";  c #762929",
":  c #693220",
">  c #783B25",
",  c #633D3C",
"<  c #6E3B3B",
"1  c #783636",
"2  c #2C4A02",
"3  c #35540C",
"4  c #3B5A0E",
"5  c #3C5C13",
"6  c #3B5A18",
"7  c #3F600F",
"8  c #3E6119",
"9  c #435F19",
"0  c #55571D",
"q  c #68401F",
"w  c #436216",
"e  c #486816",
"r  c #44641B",
"t  c #4A641D",
"y  c #45691D",
"u  c #4B6B1E",
"i  c #4F7019",
"p  c #4C4A28",
"a  c #584624",
"s  c #4C5628",
"d  c #55542C",
"f  c #535D2D",
"g  c #594736",
"h  c #595A35",
"j  c #6F4F2B",
"k  c #745A2B",
"l  c #63523E",
"z  c #466521",
"x  c #4A6622",
"c  c #476825",
"v  c #4C6C24",
"b  c #4D6C29",
"n  c #516D24",
"m  c #51652B",
"M  c #536E2B",
"N  c #5A6D2D",
"B  c #4E7125",
"V  c #4E712B",
"C  c #537225",
"Z  c #5A7726",
"A  c #54742B",
"S  c #5A762D",
"D  c #56792D",
"F  c #5A7A2D",
"G  c #4B6830",
"H  c #596834",
"J  c #567432",
"K  c #5A7533",
"L  c #567931",
"P  c #5C7C33",
"I  c #5F753C",
"U  c #5D7C3A",
"Y  c #6B672E",
"T  c #64782E",
"R  c #62683A",
"E  c #667636",
"W  c #627D35",
"Q  c #63733C",
"!  c #627D3B",
"~  c #6A7D3C",
"^  c #73753A",
"/  c #5F4040",
"(  c #634342",
")  c #6C4545",
"_  c #6A4B45",
"`  c #774545",
"'  c #734C4B",
"]  c #7B4D4D",
"[  c #6A5545",
"{  c #75594D",
"}  c #7C5352",
"|  c #7E5959",
" . c #5E7C42",
".. c #686D41",
"X. c #74664B",
"o. c #627340",
"O. c #647C42",
"+. c #697D41",
"@. c #882828",
"#. c #8D2B2B",
"$. c #982927",
"%. c #9D2B2A",
"&. c #873B2A",
"*. c #97392D",
"=. c #873737",
"-. c #8B3333",
";. c #843D3D",
":. c #933232",
">. c #993838",
",. c #A72B21",
"<. c #A42C2B",
"1. c #AC2D2C",
"2. c #B52F2F",
"3. c #B92F2F",
"4. c #A6312D",
"5. c #B73329",
"6. c #BB312E",
"7. c #AA3434",
"8. c #B23434",
"9. c #C83A27",
"0. c #C3352C",
"q. c #CC3A2A",
"w. c #D43E26",
"e. c #D23D28",
"r. c #C03A32",
"t. c #8E4E30",
"y. c #AA4A33",
"u. c #D4422C",
"i. c #D9462A",
"p. c #C64236",
"a. c #D55037",
"s. c #DB5535",
"d. c #E34C28",
"f. c #E8592D",
"g. c #E55B33",
"h. c #E85D32",
"j. c #EA6235",
"k. c #844444",
"l. c #8C4444",
"z. c #854D4D",
"x. c #8A4B4B",
"c. c #944A4A",
"v. c #92524D",
"b. c #835555",
"n. c #8A5454",
"m. c #845956",
"M. c #865959",
"N. c #8D5D5D",
"B. c #965757",
"V. c #935C5C",
"C. c #AB4A49",
"Z. c #B64948",
"A. c #B3514D",
"S. c #A25958",
"D. c #B75856",
"F. c #866363",
"G. c #8E6363",
"H. c #926161",
"J. c #9A6565",
"K. c #956868",
"L. c #9D6A6A",
"P. c #9C7373",
"I. c #A26B6B",
"U. c #A76868",
"Y. c #B56565",
"T. c #B56C6C",
"R. c #A37373",
"E. c #AC7171",
"W. c #AA7C7C",
"Q. c #B47676",
"!. c #B87171",
"~. c #B67979",
"^. c #B87D7D",
"/. c #CA4D42",
"(. c #E86949",
"). c #C26D6D",
"_. c #E87962",
"`. c #5D812E",
"'. c #5E8134",
"]. c #5F823B",
"[. c #64842E",
"{. c #638235",
"}. c #698536",
"|. c #688A36",
" X c #64843B",
".X c #6A853C",
"XX c #66893D",
"oX c #6B8A3E",
"OX c #718A3D",
"+X c #74913F",
"@X c #658441",
"#X c #6A8543",
"$X c #668942",
"%X c #6C8B43",
"&X c #678248",
"*X c #6D8C49",
"=X c #728D44",
"-X c #758949",
";X c #738D4B",
":X c #6E9144",
">X c #6F9049",
",X c #729245",
"<X c #74934B",
"1X c #79944B",
"2X c #76994D",
"3X c #7B9A4D",
"4X c #6F8D50",
"5X c #748C52",
"6X c #769452",
"7X c #779655",
"8X c #7A9552",
"9X c #7C9B53",
"0X c #829B56",
"qX c #82A155",
"wX c #82A35A",
"eX c #88A75D",
"rX c #98BC5A",
"tX c #87A663",
"yX c #94B06A",
"uX c #95B468",
"iX c #AC8585",
"pX c #B48282",
"aX c #BD8383",
"sX c #B58989",
"dX c #BD8C8C",
"fX c #B89191",
"gX c #C68989",
"hX c #C38C8C",
"jX c #D28A88",
"kX c #C59393",
"lX c #C99494",
"zX c #C69898",
"xX c #CD9A9A",
"cX c #D19E9E",
"vX c #E2A19C",
"bX c #CEA3A3",
"nX c #D4A4A4",
"mX c #D7A8A8",
"MX c #DAAAAA",
"NX c #DEB6B6",
"BX c #E7B0AD",
"VX c #E4BDBD",
"CX c #D4F894",
"ZX c #ECD1D1",
"AX c #ECD3D3",
"SX c #F4E0E0",
/* pixels */
"! J <Xr P L z  XXXb *Xx c P U U ].XX:X`.$X].|.%Xv .X1X}.C |.$XB |.,XK .XK #XA E K P c U *X@Xv  XU '.{.P P |.D C U ,XP  XJ b O.+.",
"#Xb U x %XM J W K 6 b 7X*Xv U b '.B `.].].`.].D W 1XW W 3XoXXXD D D W {.E K =X#XP U 6X$XP ;X>XL %XU ,X{.P %X|.*XP XX6XC ! U #X X",
"%XJ 9X XJ @XD  Xu  Xz J 7XV @Xv `.9X'.].'.$X:XL =X}.1XW XXS '. X9X! ;X#X.XM ;X@Xb #X! P  X'.b ].%X%X,Xr {.A r u D  XK #X@XU J *X",
" X! K #Xr <X].2XP  XP  X@X@XU #XV 2XV ].].'.].2XS .X}.OX,X,X{.P v A F ,X.XW ;X-X+.M %XP yX%Xr ].D 7 B P S ,XS C #X=X X#XtX6 P L ",
" XK <XJ *X%XD v P A M 2XP v U $X].V :XL $X].! ! .X.X1X{..X XqXD 9X|..XA #X.XE <X.Xn  XK ].].$XuXB 9X'.P P 7 K .X*X,X$X`.5 A r D ",
"8X! P z <Xv A 3XP $X X*XJ yX Xv 9XP '.].L 7XU @XK .XS =XW .XP '.5 *XD n E 1X#XT =X! I A V $X8 >XB '.9X'.U A 3 S P 8 L V  XB XX'.",
"L C XXA P  X%X'.L '.'.D  X2Xv #X@XU J @X XJ c J M W OX{.n F XXv {.D F ~ =X=Xw ~ W K XX].>X8 L 2X:X4 $X'.5 C x M S U `.V B y :X'.",
"*X X#XD C <XB  X{.D y K *X7XtXV U U $XU @XJ @X X#X#X{.P u 3Xr *XA '..XW 0X.X=XE K =X#XD V ].2X4 :X:X'.].F *X X9 S S 7 '.B 8 8 `.",
"U 7X9X XD V XX$X'.C :X3X:X%XU @XP @XK J #X6XK #X;XM 1XW #XP '.XXXX$XF qX.XT ~ =X-XM .XW %XXX$X].XXXXV <XD v n ! x u P C v :XB '.",
"P %XXX%X'.D :X`.:XD '.C '.XXD A *Xv ! +.K @X-XU H Q H l M.g '.oXh M.' Q h Q C .XT ,X0X9XD %X Xy :Xy '.F eX%Xm n M wXD |.%XP 2X].",
"'.U U %XA 8 <XD D '.F B L v $X XP K ! M K K m g M.N.K.E.l E F '.oXg U.I.N.N.[ p S oXC %XU $X,X2X'.V XXc t ! S 2Xv eX Xv 2XV '.'.",
"D v P r ].XXXXD P :XXXA XX X'.P *XM  XO.l } b.H.H.I.m.$.y.E {.oX{.Y 1.< I.H.H.M.} [ s |.U C B 3XXX$XB r K F %XF *XC S  X`.8 $X].",
"M @XU <Xy B '.2X:X'.XX$X%XD  X].].%XM } H.H.G.H.H.V.#.3.k 3X}.T u ~ <.1.n.H.H.H.H.H.G.h M v P r :Xv <X X X{.{.D P K P  Xr J c c ",
" XJ A <X$X`.].'.8 :XXX`.P '.B A A [ m.U.c.G.V.G.H.m.@.=.X.{.Z 0X-XE k.@.< E.H.N.H.B.c.H.} ! K *X$XU >X{.A oXF S 1X5 K <X3 $X7X].",
"v %XU L $XD '.`.`.'.B 8 :XXX$XL { J.E.,.6.k.N.V.L.R.iXxXhX_ }.Z R K.nXaXP.E.N.H.N.<.9.U.H.N.K XXr U oXL '.{.3XC 3Xv <X Xc J G ].",
"U #X>XL V D V D D D XX:XD $XB { v.x.K.x.#.N.J.kXmXlXaXQ.~.' W |.R Q.Q.gXaXmXmXI.V.k.-.V.N.=.J.~ XX%XM v F XX{.Z F S %XXX7XI J 6 ",
"].@XXXoXA '.A F D :X'.:XD :X: E.5.1.n.G.L.^.xXgX!.Q.D.q.T.' +X:X..Q.Z.a.T.Q.Q.cXlXL.H.H.@.r.c.;.N XXA <X].'.'.B A XX'.XXA J 6 $X",
"XXU U F  X9XB A {. X`.'.|.> 1.t.k.;.H.I.nXxX^.mXmXhXr.i.D.' `.|.h T.e.u.!.mXmXzXaXmX~.H.n.@.n.1.<.0 c *XuXB `.+X7 D XXe {.y L U ",
"C XXC '.].y A D D  X XD t.2.2.5.N.H.I.cX~.zXN.< :.R.I.D.~.' |.3XR ~.Y.Y.W.:.; } sXgXlXaXH.H.t.3.3.<.I V :X'.`.`.D D B :XL v U J ",
"'.%X'.P <X2XD '.v %X:XN @.2.q.1.n.I.cXQ.cX} #.2.3.6.< J._ * [.[.f ) J.* 7.2.2.<.` dX~.xX^.H.:.e.6.1.d ].V `.|.`.B B `.B XX7Xz &X",
"'.D XX%X*Xv ].].3 @XT } V.#.$.n.I.cX~.gXR.:.3.3.5.%.k K ) ) p p g M.f ~ &.6.6.2.2.} cXQ.kX^.V.-.%.n.N.a u v |.3X{.D A %Xr  XV @X",
"e D '.C r A 7XV b v k ; n.H.x.H.nXQ.Q.kX} 3.3.1.j C Z F s @ $ $ # & ~ ;X{.^ 4.2.2.#.mXQ.Q.nXE.k.H.n.;.> v D C D A A :Xe {.A J V ",
":XA <XP U L >XU A #X$.2.9.;.V.pXkXQ.Q.kXb.3.&.OX-X~ Q g ' = ( ( , * { p S oXE j 2.-.nXQ.~.aXxXH.n.9.1.1.0 |.|.4 `.eXB K v %X6X@X",
" X|.oXv XXP F w  XE <.3.9.x.J.mX!.Q.Q.Q.hXl Q N OX[ } z.$ - } N.g @ ) z.) H C v * W.~.Q.Q.~.hXW.n.4.q.2.> '.'.XX4 oXoX,X'.#X9XJ ",
"<XA t W w =Xu F C a #.e.<.N.zX^.~.Q.~.Q.^.Q.E.{ = M.; X O % - ( * O X o M.- ' G.Q.~.Q.Q.Q.~.~.nXN.=.9.1.% 9 v D eXB :X7 %XP z 2X",
"K 0XA W {.=Xv P M M.N.z.M.H.cX~.Q.Q.Q.Q.Q.Q.~.mXE.} M.$.3.1 R.sX] 3.1.1 H.] MXhXQ.Q.~.Q.Q.Q.Q.MXI.H.z.n.V.p v r '.3 r u 9XA #X X",
"E n ~ W qXW |.2XN V.S.#.N.R.lX~.^.bXbX^.~.~.kXNXQ.K.R.c.H.T.V.B.U.!.k.E.F.Q.dXAX~.Q.~.lXnXaX^.~.zXH.l.>.U.g b 3 |.D 9X,X<XB 8X%X",
"0XW =X<XP P v F m E.$.3.k.^.lXxXG.k.<.F.Q.hXAXVXnXlXkXaXA.s.d.s.i.Z.T.xXhXnXMXZXmXQ.M.c.>.} dXaXcXV.%.6.U.[ c L %X XoXB D %XP 8X",
".X1XF F =Xt %X'., H.J.;.V.MXaXI.-.2.2.p _ mX~.lXMXVXAX(.j.d.0.e.q.h.f.BXZXnXnXQ.nXR.v y.3.$.} dXlXL.n.k.L.m.s b y S r M  Xv L {.",
",X.X{.S r %X:X].) H.N.N.L.MXxX' <.2.2. XJ - } Q.mXAXvXj.e.r.i.u.q.0.h._.SXhXaXJ., h S t.2.2.1 nXlX~.H.H.H.M.H U S u P 2XB :XD  X",
"OX}.F oX|.%XL c ' U.,.x.I.mXcX) <.2.<.J 6 } } N.E.cXd.h.q.e.;.) 5.q.i.j.jXhXJ.z.H.d {.t.3.2.; nXlX).n.%.C.K.s J {.A {.c F D 9X2X",
"}.}.[.S F  X].r b.l.2.-.I.mXxX` 1.2.@.! m } % O 7.I.p.d.0.S.z.E.) i.e.g.T.l.@.X M.-Xu < 2.3.; cXlXyXz.1.:.I.o.].{.`.B XXB '.oX2X",
"OXE =X{.3X`.:X2X' L.z.G.I.mXQ.kX;.2.@.U O.} ; X 2.Y.p.u.0.Z., z.=.i.0.s.T.3.; o M.f F k 3.>.L.yXjXaXB.x.J.M.H .X X Xe P F ,XC |.",
"E .X.XS |.|.i B ' H.N.V.I.mXQ.aXsXM.$ J U } , . =.I.Z.g.w.w.C.S.q.0.f.u.T.` X % n.R 5 d ) L.cXQ.lXaXV.H.G.N.~ ,XC %XoX{.oXoX{.OX",
".X0X3XF i +X`.|./ H.G.H.I.mXQ.T.).gX} p g * = $ | W.S.i.9.w.q.9.q.w.i.Z.V.dX@ , - g d = ^.).Y.Q.lX^.V.G.V.M.E A oXqX{.<XF OXW u ",
"OXC ,X9XXX'.`.`.g N.V.I.V.zXaXr.d.Z.Q._ $ * ( ' - iXQ.C.i.h.d.f.h.s.8.E.fX= ' ) - @ } L.T.e.i.!.lXG.I.V.H.b.9 3X{.%XZ {.1XOX-X}.",
"W eX=X*X].B '.B +.M.L.b.1.M.lXY.6.!.Q.h & * ( H.( $ 8.8.T./.(.(.g.T.A.8.1 - M.} -   +.J.Q.a.A.~.fX7.>.R.H.( S t }.qXn E .XW -X#X",
"1Xt =X<XL 2XD :XK N.U.>.2.z.xXQ.U.b.s  Xf @ - ( g % ; %.n.MXVXAXmXQ.$.@.X = / g @ p 8Xm X.J.~.hXW.8.1.J.K.g yXA N 0X-XT OX9Xu %X",
"C  Xv J ].].A XX+.M.J.1.2.> kXI.H .XP *XE # # @ - < X X H.bXMXMXMXK.< . % } # @ $ O.v |.L K b.nXn.7.2.' L.p $X X0 T ^ N .XK P F ",
"'.>X<XU $X].'.:XP & N.7.t.}.=Xm ,X'.E S h ' - H ..M.} z.H.J.nXMXW.b.B.] N.[ ..d N.p f  X XP P Q Q j 1.) ] eXB |.yX~ ~ ~ -X@XU V ",
"F ,X].$XV @X].:X*Xv m.t.D +X.XF A P [ N.T.J.#XW 0XH [ M.b.gXAXVXnXE.} } p %XB '.{ Q.T.) M P  Xr U XX^ U.Q K ~ F ~ 0 ~ Q !  X*X*X",
"'.U U 6 &X7XL $X9 XX= .X[.C W u s { E./.e.Y.L.+ }.oXOXN G.hXbXbXzXlXs +.'.'.k | Q.p.u.T.K.p <Xn P P A g +.r .X1XM .XE ~ N m ! M ",
"%X Xv 4X].@X$Xc r v  Xu Z F OX1XX.gXQ./.e.jX| 6.&.Y F C Q E.~.Q.Q.[ O.J E t.2.:.nXp.a.T.^.L..XK P  X Xu A 9XK A .XE #XN +.7X7X#X",
"#XuXO.U &XV 8 V K M S =XOX}.}.q *.pXaXQ.T.xXH.>.6.1.y.> #XE.Q.Q.W._ k t.1.2.2.] nX!.!.Q.xXC.> E n <Xr  XW K U ! .X0X#XE ! #XU K ",
"! #X .@Xc $XU *X6XO.b N } ' #.2.6.>.kXdXQ.Q.hX< <.3.3.2.( !.Q.~.Q.' 7.2.3.1.; R.~.~.~.xXB.2.6.<.< M...#Xb U K <Xx .X~ ! 8X;XA tX",
"K #X4X*X@X].L $X&X0X! ! ..E.L.` ` ] E.hXaX^.aXsX` 1 2.k.G.~.Q.Q.~.E.) 2.#.) K.xX~.~.nXQ.N.) ` N.Q.{ m P P  X*X,XK #X! <XK #X! b ",
"+.+.! +.;X*X$XI I O.M =X=Xl H.I.R.I.H.J.hXxXQ.hX^.fXfXfXhXQ.Q.Q.Q.^.zXfXfXhXkXQ.zXlXI.G.I.I.I.L.[ U t  X! *X!  X7XU >X].U *X#X;X",
"7XK G &XN U ;X$X+.7X#X~ XX3Xh M.H.H.H.H.H.L.nXlXaX^.~.~.Q.~.Q.Q.Q.Q.~.~.~.aXaXmX~.G.G.V.V.H.G.{ %XXXW K A 0XM K y 7 XXD F @X-X! ",
"m P +.O.o.H 6XK 5X-XO.K W E S R M.H.H.H.N.;.G.R.hXxXnXaXQ.Q.Q.Q.Q.Q.Q.nXnXhXpXH.k.n.H.N.H.H.[ P F D @XP  X].$XV D XX2XL $X$X].&X",
",X! H 5XO.o.Q +.#XQ N -XK K J K h m.H.L.=.0.@.V.n.N.E.zXnXnXnXnXnXnXxXE.J.n.N.z.6.,.E.H.H.l S C S oXL P P y b *X8 B P V D ].G J ",
"%X .4X .7Xo.W ! H Q 1XQ F n +.! S f ( H.I.$.n.z.2.:.N.k.x.H.K.J.J.V.1 V.;.1.-.N.#.B.K.} a K P F ,X'.*XF L XXr v :X$Xz ].B XXA ].",
"L 6XG &XO.Q #XQ 8XN M S N  X.Xr {.F F l } E.H.V.5.c.N.:.9.$.k.N.@.5.6.n.B.,.S.G.E.G.' m eX XW W v {.i XX|.'.'.D '.V ].U 9X].,X{.",
" XU *XJ O.6X9 K 8X#X#XoXOXi F  X[.XX,X! P = _ H.E.J.n.,.3.e.k.N.5.6.2.-.H.T.H.} l H  XA v J 7X.XP D {.P v {.[.e F '.@X*X>X%XP %X",
"].#XK P v I ! ! ! 8XT Z W W =XK |.3Xn n P {.8XQ ) ' o 2.3.3.` N.$.5.3.@.) ) d A S v n *Xv  XS *XA S .X}..Xu {.{.|.P 4 w L A @X*X",
"$X*Xc 6XP #XK m #XK {.S F =XF .XS S P =XP v S {.W D S d + > g l j + + i ,XB F F v C P u P C .Xu T e i Z U W W U U B [.rXw XX9X7X",
"U b #X{.2 K v 7XM S <X.Xi C |.w {.K u oX{.oXF S 2X|.W b P P {.'.OX%Xu C '.B u {.u {.XX{.K {.K {.Z uXuXC P A M  Xb C e CX7 J A K ",
"b U 3 {.9X{.D @XK  X'.{.qXu ,X X{.P w S Z C C C 5 D J z A A v ,X.XW C W S S F Z =XF W |.{..XW n n 3X1Xx *X|. X,XeXr n A K A K {.",
" .r P A {.%Xv @Xr U |.F Z |.<Xw D U 3XF e S ,X}.,Xb Q J V P '.U 9 S F C F S 4 '.oXu S {.W S w 1Xu t x U ! K D i 7 A c wXJ @X{.e ",
"! J 9Xe C XXU @X2Xv v v P 7 2XB #X.XXXoX{.F F W |.v  XK %XF A D W A n .X.XC S *XW F n W =XW W {.x v .X|.D S ,X|.v v :Xe K ! P K ",
"z U P P <XK v c V {.v :XXXu %XD n  XoX3 F .X~ 1XA .X#XP {.:XP |.0X=XW W S F {.S r W  X9Xt S u #XA t S 5 D |.u '.u |.{.oX|.v ! b ",
"K c K A P r @XL L 9Xc J @Xz %XF .XP P C  XE n W A .X.X.XF {.F U {.t [.0XK {.1X5 *X<XXXv P B '.P ! P XX%XL ].V c P 3 J J .XuX! K ",
"b b A @Xr U U A A P J tXU 6 *Xr K  XF t <X! .X;XE .XF oXn F  XeXC [.}.{.Z P  XA 6 r c C #Xc @XV  XU C c L U 4XU *XK *Xb v *XJ 6 ",
"b K 6X! r 7XV  XL L c G $XU 9XB r {.v 6X! 1X1XE A OXT 3X.XS 1XZ +X|.i F P {.%Xv b $Xc L L v 8 @X].c 8 *X8 c *XU D P D M U U U J ",
"K *Xc ! *XU 8  X$X%Xz  .G 7Xv <X XD #XE F F ,XOXW {.T }..XW P Z +X[.Z }.:X,XP K &XV U J U *Xc ].V L  .G ].'.].'.F {.oXU U J U H "
};
