/* XPM */
static char *d54babdeff744de794c7d10eda033446K7TEYUk68zGhp8Y8[] = {
/* columns rows colors chars-per-pixel */
"64 64 242 2 ",
"   c #500E0E",
".  c #571414",
"X  c #661B1B",
"o  c #751E1E",
"O  c #5E2B19",
"+  c #6F301D",
"@  c #442624",
"#  c #4A2B2B",
"$  c #4A3A28",
"%  c #54322C",
"&  c #523332",
"*  c #593836",
"=  c #5D3C3B",
"-  c #6A2828",
";  c #782C2C",
":  c #7D3726",
">  c #643838",
",  c #763636",
"<  c #2C4A02",
"1  c #38570D",
"2  c #3C5C14",
"3  c #3B5A18",
"4  c #3F600F",
"5  c #3E6119",
"6  c #445D1A",
"7  c #436216",
"8  c #486816",
"9  c #44641B",
"0  c #4B641D",
"q  c #45691D",
"w  c #4E6F1A",
"e  c #4B6B1E",
"r  c #4C4629",
"t  c #564729",
"y  c #4D5925",
"u  c #545A2A",
"i  c #554B33",
"p  c #5B473A",
"a  c #585734",
"s  c #714A27",
"d  c #73582B",
"f  c #65483B",
"g  c #63573D",
"h  c #466521",
"j  c #4A6622",
"k  c #496726",
"l  c #4C6B24",
"z  c #4D6C2A",
"x  c #586725",
"c  c #516D24",
"v  c #54642C",
"b  c #536D2A",
"n  c #596D2D",
"m  c #4E7225",
"M  c #4E712B",
"N  c #537225",
"B  c #5A7726",
"V  c #54742B",
"C  c #59752D",
"Z  c #56792D",
"A  c #5A7A2D",
"S  c #4B6830",
"D  c #596734",
"F  c #5B6C33",
"G  c #567431",
"H  c #5A7532",
"J  c #567932",
"K  c #5C7C33",
"L  c #5F753C",
"P  c #5D7C39",
"I  c #66662B",
"U  c #627A2E",
"Y  c #64673B",
"T  c #776D33",
"R  c #776E36",
"E  c #647637",
"W  c #627D35",
"Q  c #63743A",
"!  c #627D3B",
"~  c #6B7C3C",
"^  c #5F4040",
"/  c #634242",
"(  c #6C4444",
")  c #644E41",
"_  c #6D4A47",
"`  c #764847",
"'  c #744C4C",
"]  c #665342",
"[  c #695844",
"{  c #76554C",
"}  c #7B5252",
"|  c #7A5656",
" . c #5E7C42",
".. c #696644",
"X. c #74694A",
"o. c #6A7743",
"O. c #647C41",
"+. c #6A7C43",
"@. c #821F1F",
"#. c #862C2C",
"$. c #892828",
"%. c #972B27",
"&. c #9C2C2A",
"*. c #893729",
"=. c #9C322D",
"-. c #873535",
";. c #843B3B",
":. c #8C3D3D",
">. c #963737",
",. c #A12924",
"<. c #A42B2A",
"1. c #AC2D2C",
"2. c #B52F2F",
"3. c #B82F2F",
"4. c #A9352D",
"5. c #B7352A",
"6. c #BC332C",
"7. c #B82F30",
"8. c #A53736",
"9. c #AB3232",
"0. c #B73633",
"q. c #C63729",
"w. c #C4362C",
"e. c #CC3B2A",
"r. c #D13D27",
"t. c #D13D29",
"y. c #8A482B",
"u. c #80512B",
"i. c #AC4735",
"p. c #BF4139",
"a. c #8E6A36",
"s. c #DB4226",
"d. c #D8472B",
"f. c #C74339",
"g. c #D54F37",
"h. c #E14E2B",
"j. c #E6562D",
"k. c #E65B32",
"l. c #EC612F",
"z. c #EA6237",
"x. c #8B3F40",
"c. c #844343",
"v. c #8B4242",
"b. c #864B4B",
"n. c #8A4C4C",
"m. c #984646",
"M. c #83524A",
"N. c #835555",
"B. c #8A5454",
"V. c #855957",
"C. c #865A5A",
"Z. c #8D5C5C",
"A. c #995454",
"S. c #925E5E",
"D. c #BA4A47",
"F. c #AC514F",
"G. c #B85958",
"H. c #8A695B",
"J. c #8E6161",
"K. c #926161",
"L. c #9B6666",
"P. c #966B69",
"I. c #9D6A6A",
"U. c #967272",
"Y. c #A36464",
"T. c #A36B6B",
"R. c #AA6E6E",
"E. c #B56768",
"W. c #A47575",
"Q. c #AC7171",
"!. c #AC7B7B",
"~. c #B57676",
"^. c #B57A7A",
"/. c #B97D7D",
"(. c #C45148",
"). c #E15843",
"_. c #CD7A77",
"`. c #5D812E",
"'. c #5E8134",
"]. c #5F823B",
"[. c #65842D",
"{. c #638235",
"}. c #6A8537",
"|. c #688A37",
" X c #64843B",
".X c #6A853C",
"XX c #66893D",
"oX c #6B8A3D",
"OX c #708C3E",
"+X c #74913F",
"@X c #658442",
"#X c #6B8543",
"$X c #668A43",
"%X c #6C8B43",
"&X c #678248",
"*X c #6C8C49",
"=X c #728D45",
"-X c #778B4A",
";X c #738D4B",
":X c #6D9144",
">X c #6F9049",
",X c #729245",
"<X c #74934B",
"1X c #79944B",
"2X c #769A4D",
"3X c #7B9A4D",
"4X c #6F8D50",
"5X c #768B52",
"6X c #779554",
"7X c #7A9552",
"8X c #7C9B53",
"9X c #829C56",
"0X c #81A255",
"qX c #82A359",
"wX c #89A65D",
"eX c #98BC5A",
"rX c #87A663",
"tX c #94AF69",
"yX c #96B568",
"uX c #AA8484",
"iX c #BD8383",
"pX c #B58888",
"aX c #BD8A8A",
"sX c #BE9595",
"dX c #C48686",
"fX c #C38C8C",
"gX c #C59292",
"hX c #CA9595",
"jX c #C59999",
"kX c #CD9B9B",
"lX c #D19E9E",
"zX c #CEA0A0",
"xX c #D3A3A3",
"cX c #D7A8A8",
"vX c #DAABAB",
"bX c #DEB1B1",
"nX c #E2AEAC",
"mX c #D4F894",
"MX c #E7CACA",
"NX c #EBD2D2",
"BX c #EED6D6",
"VX c #F1DBDB",
/* pixels */
"! G <X9 K G 9  X Xb *Xe k H ].P '.XX:X`.$X].XXoXe .X1X}.l |.%Xm  X:XC .XH #Xb W G K k P #X@Xl  XP '. XK K |.V V K ,XH  XG z O.O.",
"#Xz P j %Xz K P G 3 z 6X*Xl P z '.m '.].].`.].Z {.1XW W 3X%XXXZ A Z W ! E W =X#XK P <X*XP <X>XG %XK :X{.K %X X,XK XX<XV  XP *X X",
"#XG 8X XG %XV  Xl  Xh J 6XG @Xl `.8X'.].'.$X:XJ OXE 1XW XXA {.{.6X X,XoX.Xb ;XO.b #X XP  X'.z  X%X%X<X9 {.V 7 l C  XG #X XP H *X",
" X! G %X9 <X].2XK {.P  X@X@XJ #XM 2XM ].].'.'.6XC OX.XOX,X,X{.K l V C <X.XW ;X-X! b %XH tX:X5 ].J 4 N A V <XC N %X,X X#XrX9 H V ",
" XK <XG %X%XZ l K V M <XH M P @X].M :XJ $X].P W .XOX-X{..X{.0XZ qX X.Xb #X~ U -X.Xc @XG ].].$XyXm 8X'.A '.2 C .X*X<XXXJ 2 M 9 J ",
"7X! P h <Xl V 3XK $X@X<XJ tX Xz 8XK '.].J 8X! @XG ~ C =X{..XK '.2 :XV c W 7X.XU =XW L V M ].5 2XZ `.8X'.P V 1 G K 5 J Z  Xm $X'.",
"G V  XV K  X:X'.J '.'.V  X<Xl $X@XP J ].].G l G C W %X XN A  Xz {.Z A  X=X;X6 ~ E K  X].4X5 Z 2X$X4 ].'.2 V j N C P `.M w q :X'.",
"*X X%XV V ,Xm  X{.Z q K *X2XrXb  XP &XP &XG @XO.#XF F E l 3X9 :XV '.%XQ +.I -XE H =X%XZ M ].2X1 :X:X].].A ,X! 6 C C 4 ].m 5 5 `.",
"K 6X8X XZ M XXXX'.N :X2X:X%XP  XP @XH G &Xo.$ ) [ L.T.b oX'.'.XXXXXXK a Q.S._ ) $ n .XK *X X$X].XXXXm <XC e b W e 0 K V m %Xm '.",
"P %X$X%X'.Z :X`.%XZ '.N '.XXG V %Xl D Y _ V.K.P.L.m.u K m 2X'.oXJ XX{.%Xs S.L.K.K.} X.o.b #XXXq :Xq '.K wX%Xb b b qXZ  X|.'.2X].",
"P P P %XZ 9 <XZ Z {.Z m K l %X XG * V.Z.K.K.K.L.$.2.n oX XXXA '.OXK V oXa.0., R.S.J.S.J.{ a <X<XP M XXq j  XC <Xl wX{.z 2XM '.'.",
"V e K 9 ]. XXXZ '.:XXXV XX X].y | Q.K.K.J.K.T., 2.&.N Z `.'.K oX{.C ,XoXI 2.&.} I.J.S.J.T.I.g +.XX$Xz 9 K V %XA =XV V  X'.5 $X].",
"V @X].<Xq l '.2XXX X%XoX$XZ ..J.R.=.B.K.K.K.Q.> c.P.o.W OX3X}.U l  X%XU H.J.-._ T.S.S.S.x.m.L.V.+.M <X{.{.{.{.V A K P  X5 G k l ",
" XG V <X$X'.].'.q XXXXK K [ R.L.n.w.$.S.S.L.~.kXlXfXL.Q }.}.B 9X,XA ,X[ !.gXxXjXQ.J.S.C.<.5.R.K.T.D :X XV oXK Z 3X2 C <X1 $X6X].",
"l #XP J XXZ '.Z Z '.N 9 X.Y.%.B.S., C.T.aXxXzX~.E.~.Q.Y B [.}.Z .X=X.X[ ^.E.Q.^.cXxXiXL.c.c.S.n.&.L.~ H K {.2XB 8Xe <X Xk V S ].",
"P %X*XJ M Z Z Z `.Z .Xd S.#.6.-.S.L.~.lXaX~.~.E.k.f.R.F 9X}.U |.oXW }.f E.d.g.~.~.^.iXzX~.K.J.%.6.A.- d K |.{.V A C *X X6XL G 3 ",
"].@X$XoXV K N A B ,Xu.3.%.Z.c.S.L.hXzXfXgXsXsX/.t.(.Q.Q A Z +X+X,XA 9X) E.t.f.fXsXjXiXgXzXdXS.Z.c.M.2.1.T A `.m N XX'. XZ G 3 $X",
"XXP K K  X0Xm Z }.t 3.3.e.-.J.L.kX/.kXJ.( %.9.J.E.~.R.D '.[.`.{.A 0X-X] ~.~.T.N.2.; ( !.fXfXiXK.Z.4.6.2.1.y `.+X5 Z XXw {.q G P ",
"N XXN K '.q V Z H ` 1.e.5.n.L.hXiXiXP.>.2.3.2.9.* ' ' y K XX|.3XoXW ,Xi _ V., 2.0.2.<.:.aX~.hXfXK.:.e.w.<.g `.A Z Z m oXJ l P J ",
"'.:X'.A <X2XZ P > Z.n.#.c.L.kX/.~.kX` 2.3.3.4.d |.y V.D K U }.[.}.OX*Xf ' +.n y.2.2.6.9.V.zX~.fXaXS.-.#.Z.Z.t [.m m `.N XX6Xh &X",
"`.Z XX:X%Xl  Xu %.c.B.Z.C./.gX^.~.jX<.3.3.y.oXoX[.e u W H c u u u A {.U v .X-XC ~ &.3.3.; xX~.~.cXR.B.J.c.:.%.OX{.V Z oXq  Xz @X",
"e Z '.l h M 8X: 6.6.5.Z.Q.xX~.~.~.kX=.&.x A '.`.N N A K x @ @ # @ @ W 1X{..XW 9XC b d 1.c.zX~.~.^.kXL.b.r.3.3.I Z V :Xq {.V G M ",
":XN 2XK W K @X=.3.s.x.K.kX^.~.~.~.iX!.i %XN oXOX,X}.~ a ' & / ^ = # } r A oX{.7 oXe F / hX~.^.~.~.gX^.Z.&.e.3.+ A wXN A l @X6X@X",
"{.XXoXz  XA a > 6.1.b.W.hX~.^.~.~.^.~.~.Z.b =XB oXg ' B.* & _ K.p # ( B./ D N b #X+.T.^.~.~.~.~.~.~.cXK.;.6.4.> 3 oXXX,X{.%X8XG ",
"1XC 0 W 7 =X> K.B.Z.K./.hX~.^.^.~.~.~.~.~.R.{ g t | , . . % > _ = - . . n._ i ] H.R.~.~.~.^.~.~.~.~.cXT.S.Z.Z.K.i l %X7 XXV l 6X",
"K 7XC W ! %X} Y.,.n.K.cX~.fXfXsXgX^.~.^.~.~.^.xX^.' N.@.3.%.C.U.` 1.2.X Z.= kXgX~.^.^.~.~./.sXjXiXdX^.jXS.y.4.L.g 1 9 e 0XV #X X",
"E b W W qXW C.y.6.#.R.cXhXI.( 9.c.Z.~.~.~.~./.MX^.S.I.A.b.R.I.T.Y.E., R.Z.R.^.BX~.~.~.~.~.' 8.>.' pXiXkXK.&.3.Y.] A 8X,X,Xz 2X*X",
"9XW =X-XP $ K.T.c.S.sX/./.( 2.7.y.F D K.~./.MXMXhXkXhX/.E.(.e.g.e.G.E.aXkXhXxXBXbX~.T.J.a ! 4.0.<.} gXhXI.B.b.L.V.F oXz V %XK 3X",
".X1XU A =Xp K.S.Z.K.hXiXuX$.7.2.T C C 3 ] vXfXgXbXvXVX_.z.j.w.s.w.k.k.nXBXvXbXiXlXzXu oXW %Xi.2.2.- cXhX^.J.Z.S.C.D 9 V  Xm K '.",
",X.X{.Z 7 [ T.5.>.K.kXiXuX$.2.2.T .X X Xv B.C.~.cXMXnXl.h.t.t.t.t.q.k.z.NXaXkX~.V.} c B  X{.y.2.2.- xXhX/.B.<.F.L.v K 2Xm :XZ  X",
"OX}.A oXXX] Y.4.&.S.kXiXuX#.2.1.I oXV V 3 ' Z.L.^.vX).z.r.t.8.B.6.w.h.z._.xXQ.S.J.p `.{.{.N s 2.2., zXjX^.b.1.=.R.v  Xh A V 8X2X",
"}.}.U A A g K.Z.Z.K.hX/.gXN.9.1.I oX9 P z ' > - m.Y.f.j.w.(.= L.> g.e.z.(.Z.>.X } [ w B N `.: 7.:.!./.hX/.J.B.K.Z.L l oXm '.oX2X",
"OXE =XW 3Xg J.S.K.K.kX/.~.zXU./ y !  X].@X' -.. 0.G.0.h.6.D.> T.> d.w.k.G.0.&.. n./ A  X{.B i } W.gX~.gX/.Z.J.S.Z.L 8 K A ,XB |.",
"E .X.XC {.i J.J.K.K.kX/.~.F._.Q.$ r r H P ' (   $.L.p.j.d.t.8.C.2.w.g.h.G.c.- . N.) 1 C a r p /._.G.~.hX/.S.K.J.C.Q oX{.oXoX}.}.",
"}.9X1XK e F Z.S.K.Y.!.fXG.h.q.~.} C.[ J z * & # | ^.R.d.e.w.t.r.e.q.d.w.I.aX> & ( r .Xx ' } R.E.r.s.~.hXJ.T.J.S.} 1X{.<XU .XW c ",
"}.n =X9X|.XX' K.L.9.-.xX~.f.G.~.} ! #X1 $ & ^ / ^ pX~.G.d.k.h.h.d.z.r.E.aXJ.= / p @ n {.C Q T.~.D.G.^.aX9.:.R.Z.g %XC K <XOX=X}.",
"~ wX=X%X].M _ I.A.2.%.hXdX~.K.Y v W b ! r # / K./ # G.m.G.g.l.l.k.G.G.:.A.& } J.^ @ Q c {.A v [ L.~.gX!.2.<.L.L.f 9Xc E .XE =X%X",
"1X8 ;X<XJ 2Xp Q.:.3.&.P.fX_ Z oX{.1 K .Xr @ = ( ^ & $.2.v.lXbXVXnXiX%.1.o = / / & @ +.P <X.XC C b B.zXM.2.6.` T.$ 9X-XU OX9Xl oX",
"N  Xl G ].K b L.:.,.n U 6 c C A V .XK %XW @ # & & >   . N.zXxXbXlX/.` .   ( & & # r l  XW K C A W .Xu Z I 2.` } 0 U ~ I OXG J G ",
"'.>X<XP $X].'.[ A.6 OX`.[.{.3XA ,XW W W W N r $ ) J.( - R.| fXbX!.Z.L.- ' C.i $ n A {. X|.A  X%XU W 0XV %X+.T.Y tXR ~ ~ -X@XP M ",
"A ,X].$XM @X].i Y z A +XB +X{.A N '.oX.XB :X,XU 8Xg } K.} Q.bXbXxXT.| K._ L l {.m ,X%XW N W  X7 '. X:XV W K p u .X0 ~ E E ! ;X*X",
"'.K P 3 @X6XJ *X9  X|.oX[.B W e Z  XV {.{.Y ( u {.oXoXi > lXVXBXMXfX% a '.{.oXp / j P qX.Xb <Xb K '.Z %X6X6 #X1Xx ~ E ~ H b ! b ",
"%X Xk 4X].].$Xh 9 b }.e B A OX,XV N {.~ a ( ' l oXA `.B +.Q.~.~.~.U.K G A A %Xj C.& r A C 1X.XP K {. Xl V 8XW b .X~ #XF #X7X6X#X",
"%XyXO. .$XS 5 M G b C =XOX}.}.C V W [ S.E.R.D :XXXN |.w =XL.~.~.~.}  X<X7 P m %XX.~.E.N.o..XK E z 1X7  X{.K P ! #X7X+.U ! &XP G ",
"! @XO.@Xk &X].*X5X@Xz b OXw N 9Xr | ^.w.s.G.Q.f ~ A |.2X{.T.~.~.~.'  X*X%X{.R _ ~.D.s.G.Q.p x U .XW %X*Xz K A <Xc .X~ ! 5X<XG qX",
"L #X5X*X$X].J $X&XqXQ  XOXOX}.7 X.gX^.(.d.dXC.3.&.T |.`.W I.~.^.~.} W  X0 a.<.2.pXG.d.G.~.iX5XE W ~ b G P @X*X,XG #XP <XH #X! z ",
"+.! ! O.5X%X#XP H O.n -X-Xn U *.4.!.fX~.~.fXI.>.6.2.4.*.OXL.~.~.~.} I #.5.3.2.` gX^.~.~.lXY.*.s b K j ~ ! #X!  X7XH >XP P %X#X<X",
"7XH k &XH P ;X@X&X7X&X! B.` #.7.2.>.fXfX~.~.gX( %.0.3.3.( T.~.~.~.Z.:.3.3.2.#.V.fX~.~.hXW.<.3.2.; Z._ G V 9Xb J q 9 XXK J #X*X~ ",
"c P +.O.L S 5XE 5X-X! L g Q.I.' ' } R.fXdX/./.gX' , 9.:.J.~.~.^.~.~.| 9.&.( Z.zX_.tXkX^.L.' ' } Q.K.+.K  X'.*XM M XX2XZ $X$X].&X",
"-XP G 5X .o.Q +.+.Q F *XC Y S.T.L.T.K.K.fXhX/.iX/.jXsXjXfX^.~.~.~.~.gXjXsXjXdX~.dXgX^.Z.I.Y.T.T.} @XJ P K q S :X5 m '.M Z P S G ",
"%X .5X .6XO.E E H Q 1XE C b Y C.K.J.K.K.K.L.kXhXiX/.^.~.~.~.~.~.~.~.~.~.~.iXiXxXfXS.J.K.K.J.J.} %X'.%XK Z XX9 l :X$Xh ].M  XZ '.",
"J 6XS  .O.L *XL 5Xn n C N  X Xa V.K.K.K.K.;.Z.W.fXkXxXfX~.~.~.~.~.!.~.lXxXgXpXI.n.x.S.J.K.K.} Q c {.e |.XX'.'.Z '.Z P P 8X{.:XXX",
" X! *XG O.6Xh H 7X#XOX.X=Xc A }.Y N.K.L.:.w.$.K.B.Z.R.aXzXcXxXxXxXxXzX~.I.B.Z.Z.<.7.Y.K.K.{ ;X#XK V {.K z {.{.8 A K @X%X%X%XK %X",
" X@XH H l P E Q ! 5XU C U W =XA }.#X/ K.R.%.B.n.1.=.Z.b.;.L.L.K.K.L., Z.B.1.=.Z.x.>.T.Z.= E G %XG C .X{. Xe [.{.XX'.1 7 P M $X#X",
"@X*Xl 6XH %XH b #XW {.Z A +XK .XV A K [ } Q.K.S.5.m.S.>.w.&.-.J.$.<.6.n.Z.<.D.S.I.T.} ^ K z .Xc U 8 w B W ! P P ].e |.eX8  X8X6X",
"P z @X{.< G c 7Xn V <X}.w N  X7 {.A l oXK = ) K.R.T.Z.,.6.e.;.J.,.w.w.$.J.R.L.J./ i  X].K W K W B yXeXn K V N  Xz N 8 mX4 G z P ",
"z P 1 {.8X{.V  XG  X'.|.3Xw ,X{.! K 6 Z B B N u ( ' X 2.6.6., K.@.3.3.&.> _ ] y %XA {.{.{.oX{.N c 3X1Xj %X XXX,XwXq m V G V K {.",
" .9 K N {.%XM @X9 W XXZ B XX,X9 G K 3XA 7 B ,X}.=Xz H u O : % ) O : O x C N 6 {.oXe Z }.W C 1 1Xe 0 j  X! A Z w 5 N k qXG @X{.7 ",
"P G 8Xq N  X].@X6Xl l l A 7 3Xm %X.X.XoX{.C W W .Xb @XG %XA Z V W N c .X.XN C oXW A c W -XW U {.j e |. XC V ,X|.e N OX8 V O.W V ",
"h P K K <XK l k M {.l :X@Xe %XZ l  XoX1 A .X{.1XC  X#XK {.:XK  X9X=XW W C A {.C 9 W  X3X0 C e %XV j V 2 K oXe '.e  X{.OX Xl ! b ",
"H k H V K 9 @XG J 8Xz M @Xh %XZ  XW K N ! W b W N }..X.XA {.A P W 8 [.3XW W 1X2 <X2X Xz K m '.K W P  X%XJ ].M k P 1 G V %XyX! H ",
"z b V @X9 P P V M P J rXP 3 %Xq K  XA 9 -X{..X-XW ~ C oXc A  XwXN {.}.|.Z A  XN 3 3 l z @Xh @XG  XP V q J P 4XP *XH *Xz l =XG 3 ",
"z P 5X Xh 6XM  XZ Z k S &XP 8XN 9 {.l 8X{.1X1XW C +XA 9X.XC 3XB +XOXe A K {.%Xl z $Xz J G z 5 ].].S 5 *X5 h *XP V K J V P ! P G ",
"G #Xk  X*XP 5  X$X%Xh  .S 6Xl 2X XG #XE A C -X.XW E [.[..X{.A B +XU B }.:X<XK H @XM P G P *Xk '.M J ].S ].'.].'.A {.|.P L G  .b "
};
