/* XPM */
static char *f948b93af3bd4905fcb3a2ba877248b364ew0RWFPfFyzqZj[] = {
/* columns rows colors chars-per-pixel */
"64 64 166 2 ",
"   c #521212",
".  c #422222",
"X  c #7C2424",
"o  c #2C4A02",
"O  c #35540C",
"+  c #365909",
"@  c #3B5B0F",
"#  c #375716",
"$  c #375B11",
"%  c #3C5C13",
"&  c #375A18",
"*  c #3D5C1B",
"=  c #3F600F",
"-  c #3C6016",
";  c #3F611A",
":  c #415F15",
">  c #435E1A",
",  c #496D0B",
"<  c #426216",
"1  c #4A6713",
"2  c #476816",
"3  c #4C6917",
"4  c #44641B",
"5  c #4A641D",
"6  c #45691D",
"7  c #4B6B1E",
"8  c #526F1E",
"9  c #4E711E",
"0  c #52731E",
"q  c #466521",
"w  c #4A6622",
"e  c #476923",
"r  c #4C6C23",
"t  c #4B6528",
"y  c #46682B",
"u  c #4D6C29",
"i  c #516D24",
"p  c #526E2A",
"a  c #596E2D",
"s  c #4E7125",
"d  c #4E712B",
"f  c #537225",
"g  c #597726",
"h  c #577827",
"j  c #5A7A26",
"k  c #54742B",
"l  c #59762D",
"z  c #56792D",
"x  c #5A7A2D",
"c  c #4B6830",
"v  c #526E33",
"b  c #596F31",
"n  c #567431",
"m  c #5A7633",
"M  c #567931",
"N  c #5C7C33",
"B  c #5F753C",
"V  c #5D7C39",
"C  c #60772F",
"Z  c #607E2F",
"A  c #617636",
"S  c #687736",
"D  c #627D35",
"F  c #697837",
"G  c #61763A",
"H  c #627D3B",
"J  c #6A7D3C",
"K  c #604040",
"L  c #5E7C42",
"P  c #637C42",
"I  c #697D40",
"U  c #B72F2F",
"Y  c #E04424",
"T  c #EB6437",
"R  c #906060",
"E  c #B57777",
"W  c #5E802C",
"Q  c #5E8134",
"!  c #5F823A",
"~  c #61822E",
"^  c #6B8F2D",
"/  c #628235",
"(  c #698637",
")  c #658836",
"_  c #6D8C37",
"`  c #64843B",
"'  c #6A853C",
"]  c #66893D",
"[  c #6A8A3D",
"{  c #6F913E",
"}  c #75923F",
"|  c #658441",
" . c #6A8543",
".. c #678943",
"X. c #668A42",
"o. c #6C8B43",
"O. c #688D40",
"+. c #6D8D42",
"@. c #6C8C43",
"#. c #6A8945",
"$. c #6D8B45",
"%. c #6C8B47",
"&. c #6A8E44",
"*. c #658248",
"=. c #688148",
"-. c #6D8C49",
";. c #708646",
":. c #708B46",
">. c #728D45",
",. c #728F46",
"<. c #798A46",
"1. c #728B49",
"2. c #728E4B",
"3. c #758E4B",
"4. c #6B9042",
"5. c #6E9144",
"6. c #6D9046",
"7. c #6F9049",
"8. c #729244",
"9. c #719146",
"0. c #72914B",
"q. c #769249",
"w. c #72974A",
"e. c #749449",
"r. c #74934D",
"t. c #74954E",
"y. c #789249",
"u. c #79944C",
"i. c #79974F",
"p. c #76994D",
"a. c #7B9B4D",
"s. c #6F8D50",
"d. c #728B53",
"f. c #788D52",
"g. c #769452",
"h. c #7A9552",
"j. c #789752",
"k. c #759852",
"l. c #799950",
"z. c #7B9D51",
"x. c #7C9C53",
"c. c #7C9B55",
"v. c #7B935B",
"b. c #819651",
"n. c #839D5B",
"m. c #82A155",
"M. c #81A256",
"N. c #88AA54",
"B. c #84A35A",
"V. c #89A55D",
"C. c #89A95E",
"Z. c #98BC5A",
"A. c #84A262",
"S. c #8BAA64",
"D. c #92A563",
"F. c #90AC62",
"G. c #8FB167",
"H. c #94B161",
"J. c #91B06A",
"K. c #93B76D",
"L. c #9BB96F",
"P. c #95B671",
"I. c #9DBA77",
"U. c #DFB1B1",
"Y. c #D4F894",
"T. c #FCEEEE",
/* pixels */
"H k 3.q V x q H ` k @.w e m V ` ! { 4.W O.! ` &.7 ( u.' i ] [ s ) e.m ' n ;.p D m V w V #. .q ` ` N / N x ] l f N 9.m ` n u P P ",
"#.u V q X.p z V m # u g.-.u V u Q s Q ! ! Q ` z / e.D D p.@.] z z z D D S m :. .m V t.#.N 0.-.z o.V 9./ N 9.` 9.N ] r.k H V  .` ",
" .n x.` M  .z ` r ` 4 m k.n | e M z.Q ! Q X.4.M { J y./ ( x Q ` c.` 2.[ ( p 1.| p  .H N ` ! u ` @.[ e.4 / k 4 w l ` l  .` V m -.",
"| H l $.4 0.V p.N ` V ` | | m #.s e.z ! ! Q Q k.l [ ' ' 9.9.` N e k l e.' S 3.3.H p #.V G.&.4 ! N - f x k e.g f o.e.`  .S.: V M ",
"` m r.m o.o.z r N k d t.m u V | ! s 5.M X.! V D ' [ y.' ' / x.x m.` ' p  .J A 3.( i  .M ! ! O.K.s l.M Q N % m ' &.e.] Q % k 4 z ",
"j.H V 4 e.r k a.N X.` 7.M J.` r c.N V ! M c.H | l J g :.D ' N Q @ 8.z i D h.' C ;.D V k d | - e.s Q c.Q D k O l N 4 z d ` r O.Q ",
"m k ` k N ` @.Q x Q ` k ` t.e #.| ! M | ! n e n a D $.` i x ` s ) z x J :.,.> J A A ` V 7.; d z.4.- ] N % f q p l V W d e s 4.Q ",
"@.` #.z k 9.s ` ` z 6 N #.j.S.p V V | V *.n  .H ;.[ D x r a.4 ,.k V [ / b.( <.F m 9.#.z d ! k.$ 5.4.Q ] x 2.` > m l % Q s ; ; z ",
"N c.c.` x d ] ] x k 5.p.@.@.V ` H ` m n  .f.m  .2.k e.Q [ Q Q ` ] X.x m.! V | @.<.f ( N @.] X.` X.) k e.l w p H 5 7 N k s o.s Q ",
"N #.] @.N z 5.Q 4.z Q k Q ] M z #.w H | A | 2.H ` @.    X   K K   X     M w.h J A y.b.c.z #.] 4 5.6 N N V.$.i i p B.x ` ] Q e.! ",
"V V ! @.z ; w.z z ) z s N r  .` m V ` p m A . . K   U U U   R R   U U U   X . . j @.k #.V ] 9.p.N d ] e r D l t.w V.` r e.s Q Q ",
"k r N 4 ! ` ] z N 4.` z ] ` Q N @.p ` #.. K R R R   U U U X R R X U U U   R R R K . x ] Q k s l.! &.s 4 N l $.l ,.k z H Q ; O.] ",
"k | ` -.6 r Q p.] ! ] 4.X.z ] ` ` 4.. K R R R R R X U U U X R R X U U U X R R R R R K . l i N 4 7.r e.` / / / k N m D ` 4 v y r ",
"H n k k.5.Q ! Q 6 4.] z N N e k k K R R R R R R R R X Y Y X E E X Y Y X R R R R R R R R K ` V @.X.V 5.` k [ N l e.: z 0.O X.k.! ",
"e #.V M O.d Q M z Q s 6 @.] X.M K R R R R R R R E E X U U X U.U.X U U X E E R R R R R R R K x ' q D &.z Q ) a.f c.r t.` w k y P ",
"V @.-.z d z z z W z ] 5.M 4.. K R R R R R R E E U.U.X X X X E E X X X X U.U.E E R R R R R R K . ` #.p e x [ / f x l #.` c.V n * ",
"H @.] @.k V f x z 5.Q O.M . R R R R R R E E U.U.E E E E E E E E E E E E E E U.U.E E R R R R R R . | z r.! N W s j ) Q ) k n & #.",
"` N N N ) x.s z Q ) z ) ] K R R R R R E U.E E E E E E E E E E E E E E E E E E E E U.E R R R R R K 4 r -.P.s W 9.- M ] 2 ` e n V ",
"k ] f N ! 6 k z z ` ) x K R R K K K E U.E E E E E E E U U U E E U U U E E E E E E E U.E K K K R R K | d @.Q W W x z s { M u V M ",
"Q @.Q N t.p.M N u @.5.x . . x.~ j 0 f . E E E E E E E X T X E E X T X E E E E E E E . #.) / ` N . . d ! s Q ) W s s Q f ` k.q | ",
"Q z ] 5.@.r | V O  .` x ~ W } 8.W x ! d @.E E E E U.E U T U E E U T U E U.E E E E l i u / ` ` z V p.r r 6 r ) a.) z k ] 4 ` u | ",
"2 z Q s 4 d k.d u r @.f x ) j 1 9.W ; &.f . E U.T.E E X Y X K K X Y X E E T.U.E . i ` k / r ] ( W 6 Q o.s z j z k k 9.7 ) k n p ",
"9.f e.N V N e.N h @.N ) x ~ W 0 j z W &.&.Q X E E R K U Y U R R U Y U K R E E K $.5 ( k D 4 2.x Q z z N < ] ) @ z C.s x r | g.| ",
"` ] $.r ` z N 4 ` [ / j a.0 0 Q 2 6 W y . . K R K R E E U U E E U U E E R K R K . . N / ` $.N f x.) Q s s Q Q ` @ [ [ 9./ &.c.n ",
"y.l 5 D > ,.7 N . K 9 + z h h { z h . . . . K K E E E E R K K K K R E E E E K K . . . . ,.x ,.N ! 6 O.O.X . e z C.r @.< ] x q g.",
"m x.a D ( [ r N . R . ) Q Q p.h 9 s . K K K R E E E R K X         X K R E E E R K K K . x ` #.7 Q W ; . R . r 4 / + 4 7 m.k #.` ",
"S p D D m.D ] e.K R X X.s s r k z . K R R K R E E K X X   X U U X   X X K E E R K R R K . N l D z.Q k.K R K u O ` x c.e.e.i p.#.",
"n.D :.u.N D 7 N K R I X.s Q s ` h . K R R K E R X X X X X U U U U X X X X X R E K R R K . / l f W W 4 R R K u n O./ @.r z $.N l.",
"( 3.l x ,.5 @.Q R R R K P v s ` f . . K K U.E X Y U X X X X X X X X X X U Y X E U.K K . . @./ / z W K R R R . u 7 x 4 k ` r N Q ",
"y.( / l 4 @.O.! R R R E K *.V e ` . . . R R K U Y Y Y Y X X U U X X Y Y Y Y U K R R . . . D x d ] K E R R R . n k 7 N t.s 5.z ` ",
"_ ( x [ ` @.N e R R R E U.E . M Q [ K K K E R X U Y T Y Y Y Y Y Y Y Y T Y U X R E K K K / s z . E U.E R R R K M / f / e N z m.p.",
"( ( D x x ) ! 4 R R R E U.E E E E K K K E E K X X X U Y Y Y T T Y Y Y U X X X K E E K K K E E E E U.E R R R K V / / s [ r N [ e.",
"' D 9.D a.W w.e.R R R E U.E E E E E E K E E K X X X X U Y T T T T Y U X X X X K E E K E E E E E E U.E R R R K X.! ! 2 N x 9.f _ ",
"F ' ' l ) ^ 0 9 R R R E U.E E E E U.E K E E K   X U X U Y T T T T Y U X U X   K E E K E U.E E E E U.E R R R K k.z 4._ / ,.` ( ( ",
"' b.t.l 9 { Q ] R R R E U.E E E E T.E K E E K   X U X X Y Y T T Y Y X X U X   K E E K E T.E E E E U.E R R R X l ] m.) e.D [ D 0 ",
"' l ,.z.] ) W W R R R E U.E E E U.U.E X U E R X   U U X X Y Y Y Y X X U U   X R E U X E U.U.E E E U.E R R R K a.Q 4.z N y._ ,.J ",
"F F.,.$.! d ! s R R R R E U.E E E U X U Y U E K   X U X X X Y Y X X X U X   K E U Y U X U E E E U.E R R R R . 5 J b.8 F ' ' ,. .",
"y.3 -.3.M k.W 4.R R R R E U.E E X U T Y U R E R X   X U X X T T X X U X   X R E R U Y T U X E E U.E R R R R . k a b.b.C ' b.5 o.",
"f ` r M ! M z ] K R R R X X E E U T U X K R R E K     X X X Y Y X X X     K E R R K X U T U E E X X R R R K o.' 3 S F a  .m N n ",
"x e.r.V X.! N 7.X   X X U X E E E X U E E X Y U E K X X X U Y Y U X X X K E U Y X E E U X E E E X U X X   X r ' D.F J J 3.| V d ",
"N 5.` | v O.! -.  U U Y Y U U E E E E E U Y Y U E E R K K U Y Y U K K R E E U Y Y U E E E E E U U Y Y U U   ` g J 5 J F F H 1.-.",
"/ N V & ! k.M -.  U U U Y X X E E E E X Y T U K E E E E R X X X X R E E E E K U T Y X E E E E X X Y U U U   ' y.a J A J n p H v ",
"@.V q d.! X.X.e q X U X X R E U.E E U Y T X E E K R E E E R E E R E E E R K E E X T Y U E E U.E R X X U X n.N a J F ;.a I h.j. .",
" .I.` V X.y ; d m     R R R R X R E E U X E U.T.E R K R E R U.U.R E R K R E T.U.E X U E E R X R R R R     N V H ;.b.J A P  .V m ",
"H  .H *.y X.V -.h.H K R R X X U X E E E E E E E U.E E K K K K K K K K E E U.E E E E E E E X U X X R R X r V N t.i J J H u.3.n B.",
"m | d.#.*.V N #.P n.. R   U Y Y U X E E E E E E E E K . K K R R K K . K E E E E E E E E X U Y Y U   R . V ' #.2.m  .V r.n  .P u ",
" .I P P g.&.| N m P a   U U U Y X X U.E E E E E E E 8.. . K R R K . . ' E E E E E E E U.X X Y U U U . | H  .H ` g.N 7.! V o. .e.",
"h.b t  .b G 3.| | v. .H X U U X R R E U.E E E E E . W ] . . . . . . ,.' . E E E E E U.E R R X U U X V M k n.u N 4 ; [ k N | 1.H ",
"i B =.P L v f.A f.d.G m S X U   R R R E U.E E E E X.Q M Z . . . . j x i Q E E E E U.E R R R   U X z | N ` Q #.d z ] z.z X.X.! *.",
"3.V v d.P G G I J G b ;.m     R R R R R E U.U.E K X.! M ] x a._ A { V.9.' K E U.U.E R R R R R     [ M N N e y 7.; s N d z V u v ",
"$.H d.L v.P B F b A f.S l p . K R R R R R E E E K ] Q ; W N % O./ / f x 5.K E E E R R R R R K . 5.Q @.N z ] 4 r 5.X.e ! d ] z ! ",
"N g.c P P G =.G f.b a l l J | 5 K R R R R R R E K W N.W 7 [ N V / ~ x / Q K E R R R R R R K V ! r / 9 ] ` ) x z Q d ! V x.` 5.` ",
"` V $.v P h.> m h.;. .' $.i g ( D X R R R R R R R . 9 j 3 ] e #.z j / [ . R R R R R R R X ! k...V k D D r / / 3 x V *.#.&.X.N #.",
"!  .m m u G G D F u.A j Z Z $.N ) a.. K R R R R R R W W Q e.e V / 3 9 1 R R R R R R K . u ` M X.l l ( H ` r ~ ) ] N $ % N k | #.",
"| -.e t.V  .m p $.N / x Z [ N ( l x N ,.. K R R R R K ] V z V 4.x = f K R R R R K . M r x i ` 8 x 3 8 g D H V V D 9 ^ Z.2 | n.g.",
"V u o.` o l u j.p k y./ 8 f ` 4 D N 5 [ ) [ . . K K R K z N Q Q 5.5.K R K K . . 7 Q ` ` V D m D g Z.H.l N k i ` u f , Y.< n u m ",
"u V @ ) a./ M ` n ` Q ) m.3 e.` H N < x g f f f # m . . k k r 9.O./ . . l x x l ,.x D / / { D f f b.u.w #.` / 9.V.6 r z m k m / ",
"V q N f / $.u | 4 H ] g f ) e.4 l V p.x 1 x y.( e.u m n k N Q Q : k N f x k < D [ 7 x / S l : y.7 5 w / H N j 0 % k w A.n | D 2 ",
"V n c.4 f ` V | g.r r s x % p.f  .( ( [ D l D D ( p ` m X.N z l D k i ( ( f l [ D x i D ,.D N D 5 r ' ` l x 9.) 7 i } 2 n ` D n ",
"q B N N e.N u w s ` r o.` 7 9.f u ` [ + l ' / y.l (  .N / 5.N / B.$.D A l z / l 4 D ` c.5 x 7 $.l 4 x % x ` 7 Q r ` W { ' e H u ",
"m w m k z 4 | k N c.u u | r #.N ` D N p J N p D k ( ' ' x D x V / 7 / b.D D u.$ 7.t.` e N r ! N V N ` @.M ] u y N # n n ' L.V M ",
"u v k ` q V V M s N n S.V & @.4 N ` x 5 2.J ( :.A ( g ;.i N ` V.f ~ ( ) l x ` k % ; w k  .q ] d ] V k e M V s.V o.n -.u w y.n * ",
"t V g.H q k.u ` M M y y #.L x.f 5 D w c.D u.y.D a } x b.[ l u.j } _ 3 x D /  .p u | y M M u ; | | d * -.& e  .V x N l k m H m n ",
"m  .w H -.V * ] X.&.4 L c j.r e.` M  .D l x e.[ S D ~ ( ( D C j } Z j ( 4.9.N l | n V n V #.e Q d v ! y ! ! ! N x ) o.V V n V v "
};
