/* XPM */
static char *_dc5d7a1f1684c79ac5b54839ee7a4f0izeit6k8c6UsWBc7[] = {
/* columns rows colors chars-per-pixel */
"64 64 168 2 ",
"   c #521212",
".  c #422222",
"X  c #7C2424",
"o  c #2C4A02",
"O  c #325207",
"+  c #35540C",
"@  c #3B570D",
"#  c #365909",
"$  c #3B5B0E",
"%  c #375716",
"&  c #375B11",
"*  c #3C5C13",
"=  c #375A18",
"-  c #3D5C1B",
";  c #3F600F",
":  c #3D6115",
">  c #3F611A",
",  c #415F15",
"<  c #425F1A",
"1  c #496D0B",
"2  c #426216",
"3  c #4A6713",
"4  c #476816",
"5  c #4C6917",
"6  c #44641B",
"7  c #4A651D",
"8  c #456A1D",
"9  c #4B6B1D",
"0  c #516D1E",
"q  c #4E701E",
"w  c #52731E",
"e  c #405E20",
"r  c #466521",
"t  c #4A6622",
"y  c #466922",
"u  c #4C6C23",
"i  c #4B6528",
"p  c #46682B",
"a  c #4D6C2A",
"s  c #516D24",
"d  c #526E2A",
"f  c #596E2D",
"g  c #4E7125",
"h  c #4E712B",
"j  c #527225",
"k  c #597626",
"l  c #577827",
"z  c #5A7A26",
"x  c #54742B",
"c  c #59762C",
"v  c #56792C",
"b  c #5B7A2D",
"n  c #4B6830",
"m  c #526E33",
"M  c #596F31",
"N  c #567432",
"B  c #5A7632",
"V  c #567931",
"C  c #5C7C33",
"Z  c #5D763B",
"A  c #5D7C39",
"S  c #60772F",
"D  c #617E2F",
"F  c #617636",
"G  c #687736",
"H  c #627D34",
"J  c #697837",
"K  c #61763A",
"L  c #627D3B",
"P  c #6A7D3C",
"I  c #604040",
"U  c #5E7C42",
"Y  c #637C42",
"T  c #697D40",
"R  c #B72F2F",
"E  c #E04424",
"W  c #EB6437",
"Q  c #906060",
"!  c #B57777",
"~  c #5E812D",
"^  c #5E8134",
"/  c #5F823A",
"(  c #62822E",
")  c #6B8F2D",
"_  c #638235",
"`  c #698537",
"'  c #668836",
"]  c #6D8C37",
"[  c #64843B",
"{  c #6A853C",
"}  c #66893D",
"|  c #6B8A3D",
" . c #708B3E",
".. c #6F913E",
"X. c #73913E",
"o. c #658441",
"O. c #6A8543",
"+. c #668942",
"@. c #668A42",
"#. c #6A8941",
"$. c #688D40",
"%. c #6D8D42",
"&. c #6C8C43",
"*. c #6A8945",
"=. c #6C8B46",
"-. c #658248",
";. c #688148",
":. c #6D8C49",
">. c #708646",
",. c #728D44",
"<. c #728F46",
"1. c #798A46",
"2. c #738D4B",
"3. c #758E4B",
"4. c #798E4E",
"5. c #6E9144",
"6. c #6D9046",
"7. c #6E9149",
"8. c #739245",
"9. c #719146",
"0. c #789545",
"q. c #7A9A47",
"w. c #729149",
"e. c #74934B",
"r. c #749449",
"t. c #74934D",
"y. c #789249",
"u. c #79954C",
"i. c #79974F",
"p. c #76994D",
"a. c #7B9B4D",
"s. c #6F8D50",
"d. c #728B53",
"f. c #788D52",
"g. c #769452",
"h. c #7A9552",
"j. c #789752",
"k. c #759852",
"l. c #7C9C53",
"z. c #7C9B55",
"x. c #7B935B",
"c. c #7FA052",
"v. c #819651",
"b. c #829D53",
"n. c #839D5B",
"m. c #82A255",
"M. c #81A256",
"N. c #88AA54",
"B. c #84A25A",
"V. c #89A55D",
"C. c #84A95C",
"Z. c #89A95E",
"A. c #98BC5A",
"S. c #84A262",
"D. c #8BAA64",
"F. c #92A563",
"G. c #90AC62",
"H. c #8FB167",
"J. c #93B164",
"K. c #99B662",
"L. c #91B06A",
"P. c #93B76D",
"I. c #9BB96F",
"U. c #95B671",
"Y. c #9DBA77",
"T. c #DFB1B1",
"R. c #D4F894",
"E. c #FCEEEE",
/* pixels */
"L x 3.r C C r [ [ a :.r i C A A / } 5.^ ../ } #.9 | y.{ u | &.g } 5.B { M O.f A B A i A *.o.y } A _ _ C C [ v j ^ e.C [ N a T Y ",
"*.a A r #.d N A B * a k.:.a A a ^ g ~ / / ~ / x _ e.H H q.%.} v c c H H K H ,.#.B A e.O.A e.7.x #.A 7._ C *._ 8.V [ g.d L A O.[ ",
"O.B l.[ N o.c } u [ r N z.x o.i ^ c./ / ^ @.5.V ,.H y.` [ b ^ [ z./ 8.| { d >.L d O.[ A [ ^ a [ :.| e.7 ^ c 2 9 c [ c O.[ Z N :.",
"[ L c *.6 e.^ p.C [ C [ o.o.V %.g p.h / / ^ ^ k.c  .P | 8.8._ C u x b t.{ H 4.4.L d O.A H.&.6 / b : u b c 0.c d *.t.[ #.D.6 C N ",
"o.B t.N %.%.v u C x x e.N d C o./ h 5.V @./ A L { | y.P ` [ M.b l.[ ` d O.{ F 4.| s T N / / } P.g l.V C C : B } 8.7.@.V * h 8 v ",
"j.L A 6 e.u h l.C @.[ 7.V L.[ a l.V V / V z.L o.B P c ,.H [ ^ ^ & 5.c f H 4.` F ,.H A d h o.: p.g ^ c.^ A x + k C > v h / g %.C ",
"B h } x C [ %.^ V ^ [ x [ e.i #.o./ V o./ N i x f H | _ j b [ u _ b b L ,.1.< G F b o./ 7.> h k.5.: / ^ * d r f c A ~ l 8 q 5.^ ",
"=.[ #.c x :.j [ _ v 8 V :.g.D.h A A *.Z o.N O.L *.| H C u p.7 :.v ^ | _ v.{ 1.H H %.*.x x ^ k.& 5.5.^ } b 8.[ < B c : / g > > v ",
"C z.M.[ v h } } ^ x 5.p.5.:.A } A o.B N O.g.B O.,.x e.^ #.~ [ } @.%.b M.` F P  .4.j | C %.[ %./ } [ x e.c 9 s H 7 7 C x u $.g ^ ",
"C O.} %.^ v 5.^ | v ^ x ^ } N x *.t L T B O.4.H [ %.b C g p.^ | V } _ *.c ,.k P S 1.l.b.v *.} y 7.8 ^ V V.*.d d x c.b [ | ^ p.} ",
"A A / =.v > 7.v v / v g V u @.[ V A L x B F d L c [ g %._ } ^ D %.C x | 1.s ,.0 c | f | C o.8.j.^ g } 9 r L c e.u V.[ u 7.h ^ ^ ",
"c i V 6 / } } ~ ^ 5.' x } [ _ C &.d [ *.B =.[ B [ j k v C ^ b #._ z e.` | H c 0.H x b } / x g p.@.@.u 6 A b *.b ,.x N [ ^ > @./ ",
"h o./ 7.> g ^ p.} / $.$.%.v [ / [ 6.h t.n.c { c H [ _ _ | q.` H u [ ,.b ` ` @ 7 s ` b 8 k j C 6 :.u e.[ [ _ _ x C C H [ > V y p ",
"[ N x t.$.^ / / 8 $.} ~ C C u v h 8 v ^ c H f [ ,.9 l } ] J k b.0.b ,.0.D H H H p.C | 5.C [ H &.@.A &.[ x | b b u.* c t.& @.z.A ",
"i *.A C @.h ^ ~ ~ ^ g > *.} @.V v b %.} [ [ j.b b 8. ._ k ` ` b { ,.` e.s | b._ | 9 } C O %.V [ 7 A | V C _ p.j l.9 t.[ i x p L ",
"C *.:.v h ~ h v V v } 5.V $.u 5.z } } C x L ` ` _ _ z z a.` H } { H { k | H ,.H ` e.8.N l.j H | } #.x u C | _ k b x *.[ z.Z N - ",
"/ @.@.| x C x b v 5.^ ..^ } ~ v g ~ g 9 | | 8.` l     X X v . . . . z.X X     { [ 1.{ G } v y ^ x o.x t.[ C ~ q v } ~ } x N & o.",
"[ A C C [ c.g l } _ v / / ^ ' } g > u ' ' %.k . I X R R R . . I I . . R R R X I . n.N N g } ^ / #.6 p :.P.h ~ 5.: v } 9 _ y V U ",
"j ' x C / 8 x v c [ _ v } ^ ..~ q 0.4 [ ^ ^ . Q Q X R R E . I Q Q I . E R R X Q Q . v.K / g v v } o.} h 5.^ ~ ~ v v g ..C a A N ",
"^ 5.^ C e.k.V C g #.5.b ^ ' c.~ ~ 4 j %./ X Q Q Q Q R E E . I Q Q I . E E R Q Q Q Q n %./ ' / ^ v / x / g ^ ' ( g u ^ j [ k.r o.",
"^ v } 5.5.u [ / + #.[ C ( ( X.X.H G Y m I Q Q Q Q Q R W W Q . I I . Q W W R Q Q Q Q Q I / @./ ~ C l.u u 8 u ' a._ v x | 6 [ h o.",
"9 v ^ u 6 h k.h a u #.x ~ ( ~ 3 8.B e . P Q Q Q Q T.T.R R ! T.T.T.T.! R R T.T.Q Q Q Q Q . h } } b 8 C } g v l b v x 5.9 _ x N h ",
"5.j t.C L C :.A c @.C ' z ( ~ w k x . Q Q E X ! ! ! ! ! ! ! ! ! ! ! ! ! ! ! ! ! ! X E Q Q . ,.v / v l ^ : } ' & v Z.g V u o.j.o.",
"[ ' #.u } b V 6 [ %._ b q.q w ( 8 8 I Q Q X X T.! ! ! ! ! ! ! ! ! ! ! ! ! ! ! ! T.X X Q Q X A k c.' / g g ^ ^ ' $ &.| 8._ #.z.N ",
"u.c 7 H 6 ,.9 C j ' g # v l l } l   Q Q Q ! T.! ! Q I Q ! ! ! ! ! ! ! ! Q I Q ! ! T.! Q Q Q . C _ 8 | 5.g 6 u v C.u ,.2 } B u t.",
"B z.f H _ | u C C | | _ C ^ p.~ q n Q Q ! Q ! ! I K i d.Q E.! ! ! ! E.Q y.| *.I ! ! Q ! Q Q I 9 ~ v 7 b } [ u 7 _ # 2 8 M.x #.[ ",
"G d H H M.H ' e.~ g v } g g g x M I Q E   T.! n | b.c f I ! X . . I ! I ^ k z b I ! T.X E Q I C C.b e.9 6 g u O } b l.8.2.g j.&.",
"n.H ,.e.H ^ u C 8 8 } } g / g / . Q Q X R T.! . 8 b.H n.Q . .       . Q j | b 8.. ! T.X X Q Q . b k 2 C _ e.p C *._ %.d v #.C j.",
"` 4.C c ,.7 &.^ v ^ ^ g / h g [ . Q Q ! ! ! I h : l 8 u .   X X X X   . b.J [ ,.l I ! ! ! Q Q . b b C b u u d p 8 v 6 h [ u b _ ",
"0.` H c 7 %.5./ @.5.@.y / / ^ 8 I Q Q Q T.! I a h y v I   X X R R X X   n G X._ l I ! T.Q Q Q I | 2 | x [ B Z N x q A t.h 5.v [ ",
"{ ` b | [ | V y / k.a p [ i C v I Q Q Q T.! ! Z : ' I .   X R E E R X   . I b ..b ! ! T.Q Q Q I _ b %.b H c < N _ j _ u b v c.p.",
"` ] D b b / / 8 o.V *.h A x j j I Q Q Q T.! ! ! Q Q ! .   X R E E R X   . ! Q Q ! ! ! T.Q Q Q I c F ] s C o.o./ _ _ u %.u C 5.e.",
" .G ,.H p.~ ..p.x [ u e._ v g ^ X X X R R W R ! ! E.T.I   X X R R X X   I T.E.! ! R W R R X X X C j c | H ` c { _ _ 8 b b 8.z | ",
"G P | c } ) w q h %.2.| j j 8 v X R R R E W R ! ! ! ! Q .   X X X X   . Q ! ! ! ! R W E R R R X C A F c ` H ,.t.x %.| (  .| _ ` ",
"` v.p.b q ..^ } _ [ u 5.l v g 7   X R E R Q Q T.! ! ! ! I . .       . I ! ! ! ! T.Q Q R E R X   A c ,.` H H ` c | M.[ e.F | H 0 ",
"` c :.M.} _ ~ ~ j C ' 8 ~ q b b h   X R . . . T.! ! ! ! ! T.X . . I T.! ! ! ! ! T.. . . R X . / ^ ` b  .F 1.9 u.H | b H y.| ,.` ",
"H G.,.=./ g / g #.l 5...~ q _ | x H d . . I I Q T.! ! ! E.I ` ] v x I E.! ! ! T.Q I I . . C C x 9 j j b e._ b 9 P v.0 G ` H ,.,.",
"u.7 8.2.V k.v 5.^ | b j ] 2 b | ^ $ C . I Q Q I T.! ! ! Q c S c b a._ Q ! ! ! T.I Q Q I . ` c b j H C _ v g J.x f v.v.S >.l.t | ",
"j _ i V / ^ v } 5.5.z ~ 9 w c b x ` B . I Q Q I Q ! ! ! I s c | &.g b I ! ! ! Q I Q Q X . C c F H ,.x x C / 5.{ 5 J G f { B C V ",
"^ 5.t.A @./ ^ 5.b 6 ] ~ ( ' u.c e._ H H . I I . Q W R ! Q c | | C | ^ Q ! R W Q . I I . | b _ *.F D M.k } C.u [ F.J P P 4.o.A h ",
"C 8.[ -.h @./ 5.=.j b ] z X.[ b j ^ | [ b . . X E W R ! ! Q . I n I Q ! ! R W E X . . ^ j H [ 6 ^ ' #.x H C { B P 7 P J L L 2.:.",
"^ C A = o.k.V @.- } | | ( z _ 9 b _ v _ _   R R R R R T.! ! ! ! ! ! ! ! T.R R E R R   M.{ x ,.d A ^ v :.p.< | ,.f P F P f d L d ",
"%.H y d./ @.@.p 7 u [ 5 F D ] ,.x j ^ | X.X X R R R Q Q Q T.T.! ! T.T.Q Q Q X R R X X C k p.P L C _ [ u x z.A f P J T f T j.x.O.",
"*.Y.Y A -.p > h N d c ,. .` ` k x _ b b w j X R R Q Q Q ! X X ! !   R ! Q Q Q R R X *.[ t.` B H t a.< [ H C H L >.v.>.F T o.L N ",
"K O.Y o.p o.A e.d.o.a f  .j s b.t k 5 5 _ ( '   X Q Q Q Q E X Q Q X E Q Q Q Q X   _ 8.j c j c c *.H O.=.u C V t.s { P L t.4.x S.",
"B o.d.:.} A V *.;.n.K [ ` ] ` 3 H 7 ] 0.9 ' ^ ' : . p I Q Q Q Q Q Q Q Q I I . _ } ' A ^ [ 7 j.L C { s A A { :.e.B *.K e.B O.[ p ",
"O.T L Y t.*.#.B Z Y d 3.1.c H S a.y.H b ] _ 8 b / } p.~ . . X I I I . . y.b t._ v } x [ [ _ >.c d A 7 L L O.L [ e.A :./ A =.#.3.",
"j.M i -.M A 4.O.P v.;.L  .u.s L ` H 8.( X.~ _ C g g ~ } [ g D M.T N d.P | d %.C b M.u %.c _ 7 j.| | K B x n.d B 6 : } V c O.:.P ",
"a A O.Y U m f.K f.T T B F H c B p x ` _ _ z z b _ #.c V D X.q._ ( S b s C / [ [ x [ [ | H j | H c b o.C [ A *.h l } c.h @.@./ -.",
"e.K m d.Y Z K T T T M >.B F f Z d 7 _ | _ b w a.$ ' #.V ' b a.' z &.B.8.{ H L [ L B t.L B s k j b | N C C y p 7.> g V g v / a m ",
"*.Y d.Y x.Y G L M K f.G c f [ L x x j | 5.j t.e.8 | H 2 b C * 5._ _ j b 5.[ [ v C [ t c j b C b 8.~ :.C v } 6 u 7.@.r o.g } V / ",
"c g.n Y Y K O.K f.M f f j L { 6 _ b c 6 V b [ u ~ ~ N.z 9 | C C _ _ b _ _ v v %.x b d j V.[ A H u [ 9 ' } ^ ~ b ^ v A A z./ 5.} ",
"[ A *.N L h.e B f.O.| | ,.s c ` D ] e.[ C d r b b z w z 9 [ i @.b z _ | ' l ^ b u _ } c u c t.#.A x _ C u _ _ 3 b A Y :.=.@.V =.",
"A *.Z B a Z L K L u.F c H D ,.b } a.u d B [ l.=._ 8.~ z ^ e.y [ _ 5 0 4 ~ ^ : C b g u =.d [ c *.c c ` [ [ u ( _ ' C & - C x o.=.",
"o.t.r j.A #.B d >.C _ l H ,.C [ x z V ,.b j c H _ c b } C V [ =.b $ j j 0.g b b g j C 9 V d { s l 5 w k H A H A [ u ) A.4 } n.j.",
"A a @._ o c t h.d c q._ 9 j ` 2 H H t | _ | C k p.} A u V V C ^ 5.8.8 l ~ g 9 _ 9 _ [ [ C H B H z K.J.c A x d [ u g 1 R.; N d B ",
"a A $ _ g._ x o.B L ~ } c.9 0._ [ V 2 c k k j x & c N r x x u 5.&._ c H k b b k %.b H _ _  .H s s a.u.r :.[ _ 8.Z.7 u x B x C H ",
"A r V j _ %.a #.6 H | v l ' e.7 c A l.z 2 b 0.` e.a Z N x C / ^ , x V j b x : H | 9 b [ H k 2 u.u 7 t [ L b v w * x i B.N o._ 2 ",
"L N z.7 j } A o.j.u g u C : e.g *.` ` | _ c S H { u [ B @.b v c H f t ` ` s c 8.C b s K ,.H H H t t ` [ c x 0.' 9 u 8.8 c [ H c ",
"e A C b a.V u y d / u #.} 9 %.v u [ { # B | _ y.c { O.C _ :.C [ M.,._ H c b [ x 7 _ [ p.7 c 9 =.c 7 b * b ` u ^ u ' ( ..} i L a ",
"Z i B x N 6 o.V V z.a h o.6 5.C ` F C x [ F f H j | ` { b H c A _ 5 ( v.F H j.* e.t.[ u C u A C A A [ | V / h p C % N x ` I.A N ",
"a d x [ r A A x x C N D.Z % %.7 b [ V 7 3.[ ` ,.B ` k ,.s C [ V.j _ ` | b b [ x * - i x *.y [ x } A x y V A :.A :.B :.a u 2.N - ",
"i Z g.[ r k.h [ v V p n O.A j.g 9 L t z.L y.j.b k  .c v.| k a.b  .] 9 z C _ #.t a +.p V N t > o./ h - *.= u :./ c C B x A A Z N ",
"V *.i L :.A > [ } :.r U n k.u e.[ N *.H c c 1.>.H H _ ` ` F D z X.( z _ ,.0.C V o.x A V / :.p A h V / p / ^ / C v _ | A Z N A d "
};
