/* XPM */
static char *result[] = {
/* columns rows colors chars-per-pixel */
"64 64 248 2 ",
"   c #010104",
".  c #04020C",
"X  c #09060E",
"o  c #0C0A0D",
"O  c #13100E",
"+  c #060211",
"@  c #0A0513",
"#  c #0E0A13",
"$  c #0D0917",
"%  c #0D0619",
"&  c #120D14",
"*  c #140D1B",
"=  c #0D1711",
"-  c #151115",
";  c #1A1516",
":  c #171B16",
">  c #151219",
",  c #1B141B",
"<  c #1E1B1A",
"1  c #221B1C",
"2  c #241B1C",
"3  c #17251A",
"4  c #1A2B1B",
"5  c #1C361E",
"6  c #24221C",
"7  c #2C241E",
"8  c #232B1E",
"9  c #2B291E",
"0  c #160E20",
"q  c #1C1423",
"w  c #1F1725",
"e  c #241C23",
"r  c #261C25",
"t  c #251C2A",
"y  c #281F2B",
"u  c #1C2B22",
"i  c #2B2422",
"p  c #252925",
"a  c #2D2A23",
"s  c #2C232C",
"d  c #342B24",
"f  c #3A2D24",
"g  c #31262C",
"h  c #372B29",
"j  c #342B2C",
"k  c #263626",
"l  c #3C332B",
"z  c #39352A",
"x  c #2D2531",
"c  c #352A33",
"v  c #342934",
"b  c #392E32",
"n  c #3D3432",
"m  c #3C3932",
"M  c #3D323A",
"N  c #42352C",
"B  c #473A2B",
"V  c #533D2E",
"C  c #413534",
"Z  c #443C34",
"A  c #4A3D33",
"S  c #453A3B",
"D  c #45383C",
"F  c #1E401F",
"G  c #335308",
"H  c #3C5C13",
"J  c #395A17",
"K  c #3D6115",
"L  c #3F611A",
"P  c #274729",
"I  c #32522F",
"U  c #355836",
"Y  c #39643B",
"T  c #425E18",
"R  c #476518",
"E  c #44641B",
"W  c #466A1D",
"Q  c #4E6E1A",
"!  c #4B6B1D",
"~  c #4D4B2C",
"^  c #4C4234",
"/  c #484738",
"(  c #4C443B",
")  c #564636",
"_  c #544A3C",
"`  c #5B4C3C",
"'  c #495536",
"]  c #55573C",
"[  c #634C3A",
"{  c #6A553C",
"}  c #705639",
"|  c #466626",
" . c #4A6622",
".. c #466922",
"X. c #4C6C23",
"o. c #4B6528",
"O. c #4D6C2A",
"+. c #516526",
"@. c #526D24",
"#. c #526E2A",
"$. c #596E2D",
"%. c #4E7125",
"&. c #4E712B",
"*. c #537225",
"=. c #597626",
"-. c #587926",
";. c #54742B",
":. c #59752C",
">. c #56792C",
",. c #5B7A2D",
"<. c #4B6830",
"1. c #526C34",
"2. c #5A6E32",
"3. c #567431",
"4. c #5A7632",
"5. c #567931",
"6. c #5C7C33",
"7. c #5D753B",
"8. c #5D7C39",
"9. c #617636",
"0. c #687637",
"q. c #617831",
"w. c #627D34",
"e. c #62763B",
"r. c #627D3B",
"t. c #6A7D3C",
"y. c #453942",
"u. c #3A5941",
"i. c #3F6741",
"p. c #4D4443",
"a. c #524544",
"s. c #544C42",
"d. c #594D43",
"f. c #564A4C",
"g. c #565345",
"h. c #5A5246",
"j. c #5B5B43",
"k. c #5B534A",
"l. c #564A52",
"z. c #5D5155",
"x. c #624F44",
"c. c #675948",
"v. c #765E44",
"b. c #675B54",
"n. c #4B654A",
"m. c #536E49",
"M. c #5E7C42",
"N. c #66654A",
"B. c #786549",
"V. c #637C42",
"C. c #697D40",
"Z. c #736555",
"A. c #7C6B54",
"S. c #7B6B5B",
"D. c #757250",
"F. c #7C6E63",
"G. c #7E7263",
"H. c #836B4C",
"J. c #8E734C",
"K. c #846D54",
"L. c #856C58",
"P. c #8C7455",
"I. c #84725B",
"U. c #8B785A",
"Y. c #957855",
"T. c #947C5C",
"R. c #837563",
"E. c #8C7B64",
"W. c #877768",
"Q. c #8C7D6C",
"!. c #947E63",
"~. c #957F69",
"^. c #8C7E73",
"/. c #5E812D",
"(. c #5E8134",
"). c #5F823A",
"_. c #638235",
"`. c #698537",
"'. c #668837",
"]. c #6A8B36",
"[. c #6D8D36",
"{. c #64843B",
"}. c #6A853C",
"|. c #66893C",
" X c #6B8A3D",
".X c #708A3D",
"XX c #6E903E",
"oX c #5E8D5E",
"OX c #658441",
"+X c #6B8542",
"@X c #668942",
"#X c #6C8B43",
"$X c #668248",
"%X c #6D8C49",
"&X c #748A46",
"*X c #738E4B",
"=X c #6E9144",
"-X c #6E9149",
";X c #729245",
":X c #74934B",
">X c #79984B",
",X c #6F8D50",
"<X c #758B53",
"1X c #769452",
"2X c #7A9456",
"3X c #759852",
"4X c #7C9C53",
"5X c #7FA052",
"6X c #838759",
"7X c #9B835C",
"8X c #839755",
"9X c #A2865C",
"0X c #85A459",
"qX c #98BC5A",
"wX c #8A896A",
"eX c #958467",
"rX c #9A8564",
"tX c #94836C",
"yX c #9A856B",
"uX c #9D896C",
"iX c #948574",
"pX c #938F71",
"aX c #9C8A74",
"sX c #968879",
"dX c #9B8C7A",
"fX c #A48B67",
"gX c #AB9068",
"hX c #A28D74",
"jX c #A18F7B",
"kX c #A99576",
"lX c #A4927C",
"zX c #AA957C",
"xX c #B29B78",
"cX c #91B069",
"vX c #B5A17A",
"bX c #9C8E84",
"nX c #A39382",
"mX c #A79886",
"MX c #AB9A84",
"NX c #AA9B8A",
"BX c #B19E86",
"VX c #AB9E96",
"CX c #83B384",
"ZX c #AEA18C",
"AX c #B4A18A",
"SX c #B3A595",
"DX c #8CCA8D",
"FX c #D4F894",
/* pixels */
"r.3.:XE 8.4...8.OX*.%X .o.4.).8.).XX%X/.@X).{.%XW `.:X}.X. X|.I ^ .X4.}.2.&X$.6.:.6.o.8.#XOX..|.8._._.6.6.].;.*.8.;X4.|.3.O.r.V.",
"+XO.8. .@X*.;.{.3.H O.1X%XO.8.O.(.%.(.).)./.).>.`.;Xt.w.4X#X' y A g.w.8.r.3.+X+X7.8.:X#X8.:X:X;.#X8.=X_.6.#X{.;X,.|.2X*.r.8.+XOX",
"+X3.4X{.3.+X;.|.X.|...3.3X;.{.O.5.5X(.@X(.@X=X5.].t.>X_.}./ v , z ( j.@X{.$.*X{.X.+X).8.).).o.{.#X|.:XE _.;.E X.:.|.3.+X{.8.4.%X",
"{.r.4.+XE %X{.>X8._.3.{.OXOX4.@X%.>X&.).).(.(.3X:..X`.`.' v e # j ( s.j.`.w.<X*Xr.$.%X8.cX=XL ).,.H %.6.;.:X;.@.+X:X{.OXcXE 4.3.",
"OX4.:X4.#X#X>.X.8.;.&.:X4.O.8.@X).%.=X5.@X{.r.r.+X.X-X' c e ; A ` m m f./ V.w.<X`.@.r.4.).).@XcX%.5X(.5.(.H 4.|.;X:X@X5.H &.E >.",
"1X{.8...:XX.&.4X6.@X{.:X4.cX{.o.5X8.5.).3.1X{.OX4.{./ D r - d.L.S.x.s./ ^ c.t.q.&Xr.r.#.&.{.K 3X;.5.5X(.(.;.G :.8.E >.%.8.%.XX(.",
"4.O.|.;.6.{.=X(.>.(.).;.{.:XO.@XOX8.5.OX).3.o.;.$.' v w & B E.U.!.K.j s.n g.c.0.9.6.OX{.-XL &.4X=XK ).(.H *.o.$.;.8.>.&.L %.=X(.",
"#X{.+X>.;.=X%.{._.>.W >.%X1XcX*.).8.OX8.$X3.+Xt.g.M t < 7 c.~.nXlXS > m A g.s.j.4.=X%X;.%.).3XH =X=X(.).6.;X{.T 4.:.K (./.L K >.",
"5.4X5X{./.&.).@X6.;.=X3X=X#X8.|.).|.4.3.+X1X3.I v e e x.A.[ U.hXp.e # - d ( ( b.j.;.}.6.=X|.@X).|.|.&.:X;.X.@.r.R R 8.;.X.#X%./.",
"8.+X{.#X(.>.=X/.=X>.(.;.(.|.;.;.+Xo.r.V.7.OXN.1 $ 1 b.!.yXaX[ S q > 6 : 6 / g.s.s.j.2X4X;.#X{.W -XW (.4.0X+X#.#.3.0X>.{.|.(.-X|.",
").8.).%X&.L -X/.>.(.>.%.6.X.@X{.4.8.8.&.4._ S h a b.U.eXlXzXg.$ . = 9 h 3 P m _ g.k._ }.8.|.;X>X(.&.|.W X.w.:.:XX.0X|.O.-X&.(.).",
";.X.(...).).|./.6.=X|.;.|.{.).6.#X#.{.%X' M s A c.P.P.P.T.s.k 3 3 i.n.u.5 4 i ( d.k./ j.).&.*.>X|.@X%.E 6.6.#X,.&X@.:.{.(.L @X|.",
";.OX{.-XL &.(.>X|.).#X|.@X>.|.).).=X%.j.b v 2 b.aXuXhXMXa.w 4 m.DXDXDXu.P k o m ( g.B _ ] *.8.E -XO.;X_.{._._.;.8.=.8.{.L 5...| ",
"8.3.;.1X@X(.).(.L #X|./.6.6.%.;.;.W ' M g * d.~.aXyXhXf.s o k U oX).z P 5 3 l 7 m a.^ ` k.j.4.%XOX8.=X{.;.|.6.,.>XT ;.1XH @X3X).",
"O.%X8.5.).>.(././.).&.L =X|.|.5./.' v v * h sXmXNXNXd.y . # P P F n.b.a . . < _ l m l _ _ ` j.}...8.+X5.6.`.>X*.4XX.:X|. .1.O.r.",
"8.+X%X>.&./.&.&././.|.=X5.@X%.@X/ M g ; d l W.BXkX) g ; j m U P u Z.s -   o = d d.m h ( g.g.h.j.{.#X*.X.,.|._.=.,.;.#X|.2X7.5.J ",
").{.|.|.;.,.;.>.>.=X(.XX5.%X/.' c s & Z Q.dXA !.d.g r h d.A.' k i , & 1   U P < Z c._ d o ) k._ ^ @X:.:X{.8./.%.;.|.(.'.;.5.H OX",
"|.8.8.6.{.0X%.;._._.>.|.).(.' s t O ( iXnXzXT.i g g 2 Z.I.L.U I k & & O 1 <.I = z ( _ ;   2 g.k.B ~ O.%XcX%./.=XK >. XW _.W 3.M.",
"%.|.*.6.).W ;.>.>.{._.>.|.' j > O / Q.jXmXBXc.r v # x.!.fXhX!.I 5 - . 2 k.' k = h ( l   < Z f.d.^ ( ] O.#X(././.>.>.%.XX5.O.8.3.",
"(.=X(.6.:X>X>.8.&.=X=X,.' c i - f U.yXmXBXl.D , # d F.kX7X!.j m.I o f { Z.U N o p / 6 1 C A y.y.B Z ) ] %.(.'./.%.%.(.*.{.3X..OX",
"(./.|.=X=XO.|.8.G @X{.~ C s , h v.hXjXjXf.s , i A Z.) Z.H.C < 3 U 1 B H.R.b.& X 5 m i f.a.D b D n ( _ _ ] *.|.5X_.;.;. XW {.O.OX",
"W ;.(.%.E &.3X&.O.X.n.g * - h L.yX!.fX) c y 1 c.!.hXP.} s s r X 8 z f B.v.q X = P l f.l.l.S C C S w ` ^ _ j.:.-.;.;.=XW _.;.3.&.",
"=X*.:X6.).6.%X8.;.] v h 1 B S.dXhXfXd.g t 2 b.^.zXY.eXC q * . 7 [ A.B N < > = I P a f.l.l.a.y.S @ . - ( _ d.j.H ,.0X*.,.X.@X1XOX",
"{.|.|.X.|.,.3.E ] y.g 1 c.) v.MXyXa.b e ; b.dXhXY.Y.S j . o d K.P.K.v.- : = U P P 5 M z.l.f.y.# @   . d B g.s.] H ;X|.;X{.+X4X3.",
":X:.R w.T #X! ' b t , k.^.!.V Z.` i r 2 z.dXNXxXfXC g 2 & B U.T.7XJ.b X X 3 4 4 F U 6 z.z.a.& .   # r y d d.( _ N.&.#XK |.5.o.:X",
"4.4X$.w.].#X] r > i x.Q.dXhXlXl b r & x.^.NXVXBXC v t 2 ( tXfXgXJ.r 2 - & : 4 4 4 U d f.z.* .   o r t * > _ ( ( k.~ E ! 0X*.+X{.",
"0.#.w.r.8X' y.; b S.sXsXhXjXd.i e & A iXmXzXzXD s r X B R.hXxXgXf r 2 ; d C k I z = : S * .   & 1 # % % $ d ^ B s.B N.-X:X%.4X#X",
"0X9.&X:X' M y , b.sXdXE.nXd.g i & f S.bXnXMXD g q @ l U.uXuXhXh 2 , - N Z.l h A - O 6 & @   ; s e + % @ 0 , a N ^ m _ ] ;.+X6.3X",
"`.:X=.' g r , k.Q.iXbXNXb.M y - B } [ iXMXy.s r @ 7 tXaXkXlXs e , O a { E.g.t $ & X 6 :   , 1 * * . % q w n l a ^ a n g.j.O.>.|.",
"&X{.] v h > ( W.iXnXVXb.D v > B v.!.fX[ g s s & V ) I.hXuXb , @ o f } H.tXc.= u & o i < & 1 % * ;   0 % * . A 2 3 # p ( s.] >.(.",
".X' y x * C W.dXbXzXf.y y * d R.aXBXNXd., * & B v.tX) A.g t * & 7 } P.J.B.* 3 + . o : < & 1 + q * . + . .   Z d.1 : k z s.s.N.-X",
"1.v D , 7 c.E.aXzXf.s y * d K.!.MXxXD D , # B L.MXMXzXe e * > 7 [ H.7XI., @ = 4   ; i i y # . + & . + + . o A ^ 3 8 P k m Z k.' ",
"z y.y i R.MXK.dXx.x g w i F.yXrXrXA v h 2 f E.nXmXMXn , 1 o 7 V ~ Y.R.e * @ O   & j < i , , . @ q   .   o l n a 6 k P 2 ^ s./ Z ",
"e.8 l Q.^.dXvXf x y , m W.nXuXL.N s t ; V Z.dXmXNXb y o o d [ } V v.r , #   # ; j % 6 > * e # + > .   X c u s p . 3 I 8 ; S s.3.",
"}.*XwXiXdXbXz.y x # N ^.iXnXfXC y e # ) B.yXhXlXc t , ; N E.7XJ.} > , , . . ; g * + 3 w @ & . . ,   X , > p 3 X : ; a z 6 } 4.Q ",
".X:.<XjXmXd.v > X d d.^.aXiXZ y 2 @ f I.7X7XT.b s * & B W.kXfXT.d & > . & , p 0 + & 6 ; * * @ @ @ 1 2 * * 3 I - 4 6 b p.tX6X&X}.",
"w.cX&X*Xg.s x > C S.K.` yXC g e # d b.uXfX7Xl t * & f c.dXNXiXg j . . # ; g # 0 + @ 1 ; % # . # . g y * * n.U < , 1 N !.<X{.&X#X",
"*XR *X*X3.z # / Q.iXuXB.g s g # f { N H.eXn t t e N B.rXdXtXb y p . o i oXn.# * + & d < * *     e @ & X * Y oXk 7 Z.R.0.}.8X .#X",
"*.{.X.3.).6./ W.A.iXmX/ e y # i A.uX{ ` c e e , l U.hXlXiXs t w # > c y.m.U > % @ @ ; i # % X i @ # % . + Y 3 s.W.SX6X:.+X4.4.5.",
"(.:X:X8.@X{.V.sXI.L.n i > o d R.nXlXdXr w , , B A.dXzXiXy 0 q . # l v % i.U CX% . . 1 . @   , * . + X # w 9 Z.sXAX6Xt.t.*X|.8.&.",
",.=XOX@X&.@X).,XiXn s i # z F.Q.rXQ.M ; * - f V S.mXpXx r t . & b g w q u i.CXn.+   3 <   > e . $ . 1 o Z Z.Q.vX6X+.t.0.9.r.&X%X",
"w.6.8.J $X3X5.@XT d t & a D.bX^.aXb s , > h P.B.` W.x t t + & h D 0 % @ . k U P   - 6 - e y * . + @ * C nXmXAX6X$.t.9.t.3.$.r.#.",
"%XOXX.<X).@X@X..E O.3 h c.yXuXbXM w s 2 6 Z.jXmXtX* t w % & 1 v 0 * $ k Y u o   o e 6 : e + * + @ % / dXmXkX&X$.t.0.t.$.C.2X2X+X",
"}.cX8.8.$X<.L &.4.#.@.Z.I.sX~.b t y > l H.iXZXsXg * t . X 2 e * * * $ k U k 6 i 7 X < ; +   . @ + ^ rXrXBX6X8.r.&X8X&X9.C.OX8.3.",
"r.OXr.$X..OX8.-X<XOXO.e.nXaXg y w # j G.pXnXsXx s @ . ; d D * * % $ * 3 U F e y o + < : . . @ . l 7XT.eXD.(.6.:X@.}.t.r.>X*X3.0X",
"4.OX<X%XOX).3.+X$X8Xr.r.%Xm e w - d S.iXaX^.x w e # 1 j M r & % * * & 3 I : t @ & # 6 - % & * B 7XhXsX2.8.}.%X;X6.+X7.:X3.+XV.O.",
"C.C.r.V.:X%X+X8.4.V.2.*X&X@.p # d G.bXmXsXv y q j W.b.v q 1 & , q * & = u y % @ & @ 6 - @ @ f rXrXxXD.w.r.+Xr.{.1X4.:X).r.#X+X:X",
"2X4.o.$X4.8.:XOXC.2X$X}.}.>X! z G.dXNXbXt 0 0 l L.^.jXW.B.y.; l ( # . X = % + + o . < - . ( I.P.zXwXr.:.;.8X#.5.W L |.3.3.OX*Xr.",
"X.8.C.V.M.<.8X2.<X<XV.2.9.9.:.r.E.sXbXt w % c Z eXdXyXzX!.R.c.d.G.g.O 3 > @ @ + & X < # ( zXL.BXwX>.@X8.|.8.|.&.;.|.>X>.@X@X).$X",
"*Xr.1.<XV.7.e.C.t.r.$.&X9.9.$.4.7.sXy q 0 c W.W.` 7XyXrXH.yXsXa.` I.c.p m g l > o a i g.AXNXAX6X/.].>.8.6.W O.%XL %.8.&.>.).O.3.",
"%X{.<XM.2XV.e.r.2.e.<X0.;.#.{.r.;.O.p w b G.bXnXW.[ !.hXtXP.tXF.f Z.E._ _ c.k.d.1 B Z.dXdXzX<X,.=X(.@X(.>.|.E X.-X@X..).&.|.;.).",
"5.,X1.V.V.e.+Xe.<X$.$.$.=.`.+XE _.:.$.6 A.pXnXlXiX[ V rXmXtX{ x.iXF.) ) S.c.Z.b._ ( nX~.xX8Xr._.X.(.Q '.|._.6.>.(.&.).8.4X{.=X|.",
"|.8.+X3.V.2XT 4.*X&X+X`..X@.:.`.,..X:X8.) U.kXkXx.E.zXx.B.x.L.Y.hXjXW.[ uXR.c.c.S.SXE.E.6X;.2X+X8.;._.6.X._.'.R ,.6.{.XX#X+X8.#X",
"8.+X8.4.o.8.r.e.r.2X,.:.w.w.%X:.].>XX.@.:.) P.c.E.kXhXfXc.[ BXhXfXaXlXA.c.eXA.wXlXyXT.C.O.{.;.#X6.-.`.{.{.X.,.|.|.8.H H 5.;.@X+X",
"$X%XX.1X6.}.3.$.+X0./.,.w..X6.`.=.,.8.%X,.@.` K.lXhXzXhXzXZ.A.rXfXhXuX!.S.c.T.MXhXAXpX! ,.@.`.X.,.Q Q =.8.w.w.4.).X.[.qXE |.4X2X",
"8.O.OX_.G ;.O.1X#.;.>X`.! *.{.E w.6.! |.`..X4.[ rXzXzXzXxXzX` K.fXuXzXyXeXR.R.ZXAXwX|.{.8.w.4.w.=.cXqX$.6.;.$.{.O.*.R FXH 5.;.5.",
"O.8.G _.4X_.;.OX4.{.(.'.0X! ;X_.r.6.E ,.-.-.*.=.z P.gXxXxXxXrXd.v.Y.zXhXhXdXI.AXpX,._.'.6.].w.*.*.8X:X .%X{.`.;X0XR O.;.4.;.6.w.",
"M.E 6.;._.@XO.OXE w.|.>.-.'.;XW :.r.>X=.R =.>X`.&X) rXgX9XY.fXP.N v.aXMXZXNXAXpX|.! ,.`.w.:.T >XR R  .{.r.=.>.%.K *. .0X;.OX{.R ",
"8.3.4X! *.|.8.|.1XX.X.! :.T :X%.#X}.]. Xw.:.8.w.].+.V Y.gX9XY.!.A N L.SXnXzX6X;Xw.,.@.6.&X`.e.w. .X.}.|.:.;.>X/.X.X.XXR :.V.8.=.",
"..8.8.,.:X4.O...&.{.X.=X#XW ;X;.X.r.|.G 4.`.`.:X=.{.}.) 9X9XP.V { L.NXNXlXwX{.;.E _.{.4XR :.! #X;.R ,.H ,.|.! (.X.|._.XX{.X.r.O.",
"4.o.4.;.3.E OX3.5.4X&.;.{...%X,.|.w.6.$.`.9.$._.:.`.}.t.^ H.N ) ~.NXnXbXwX(.>XH =X:XOXO.4.X.8.8.r.8.{. X3.).&.O.3.J 3.3.].cX{.4.",
"O.#.3.{...8.8.>.;.5.3.0X8.J @XW ,.{.4.E *Xr.`.&X9.`.=.#X .) ) Y.VXNXhXC./.>.{.;.J L o.*.+XW |.;.|.8.*...5.).,X8.%X4.%XO.X.&X1.J ",
"o.8.<X{.E 1X&.{.5.5.<.<.$X7.4X@.E {.o.4X`.:X>X9.=. X:.8X].7.S.VXjXjX<X=.6._.@Xo.O.@XO.5.5.O.L @X$X| T %XJ ..%X8.:.6.;.;.8.r.r.5.",
"3.+X .r.%X8.L {.@X%X..M.O.1XX.>X{.;.+Xr.:.=.:X`.t.w._.`.]._.D.dXU.wX-.'.;X;X8.4.OX&.8.1.).%X| 5.&.5.).<.).(.).(.,._.#X8.8.5.7.#."
};
