/* XPM */
static char *result[] = {
/* columns rows colors chars-per-pixel */
"64 64 138 2 ",
"   c #2C4A02",
".  c #325207",
"X  c #35540C",
"o  c #3B570D",
"O  c #365909",
"+  c #3B5A0E",
"@  c #375716",
"#  c #375B11",
"$  c #3C5C13",
"%  c #375A18",
"&  c #3D5C1B",
"*  c #3F600F",
"=  c #3D6115",
"-  c #3F611A",
";  c #425E13",
":  c #425F1A",
">  c #496D0B",
",  c #426216",
"<  c #496515",
"1  c #476816",
"2  c #4A6916",
"3  c #44641B",
"4  c #4A651C",
"5  c #466A1D",
"6  c #4B6B1D",
"7  c #516D1E",
"8  c #4E701E",
"9  c #52721E",
"0  c #405E20",
"q  c #466521",
"w  c #4A6622",
"e  c #466922",
"r  c #4C6C23",
"t  c #4B6528",
"y  c #46682B",
"u  c #4D6C2A",
"i  c #526D24",
"p  c #526E2A",
"a  c #596E2D",
"s  c #4E7125",
"d  c #4E712B",
"f  c #537225",
"g  c #597626",
"h  c #567926",
"j  c #5A7926",
"k  c #54742B",
"l  c #59752C",
"z  c #56792C",
"x  c #5B7A2D",
"c  c #4B6830",
"v  c #526E33",
"b  c #596F31",
"n  c #567431",
"m  c #5A7632",
"M  c #567931",
"N  c #5C7C33",
"B  c #5D763B",
"V  c #5D7C39",
"C  c #60772E",
"Z  c #617D2F",
"A  c #617636",
"S  c #687736",
"D  c #627D34",
"F  c #697837",
"G  c #61763A",
"H  c #627D3B",
"J  c #6A7D3C",
"K  c #5E7C42",
"L  c #637C42",
"P  c #697D40",
"I  c #5E812D",
"U  c #5E8134",
"Y  c #5F823A",
"T  c #62822E",
"R  c #6B8F2D",
"E  c #638235",
"W  c #698537",
"Q  c #668837",
"!  c #6A8B36",
"~  c #64843B",
"^  c #6A853C",
"/  c #66893C",
"(  c #6B8A3D",
")  c #708A3D",
"_  c #6E903E",
"`  c #73913E",
"'  c #658441",
"]  c #6B8542",
"[  c #668942",
"{  c #6C8B43",
"}  c #658248",
"|  c #688148",
" . c #6D8C49",
".. c #708646",
"X. c #728D44",
"o. c #798A46",
"O. c #738E4A",
"+. c #798E4E",
"@. c #6E9144",
"#. c #6E9149",
"$. c #729245",
"%. c #799545",
"&. c #7A9B47",
"*. c #74934B",
"=. c #79944C",
"-. c #76994D",
";. c #7B9B4C",
":. c #6F8D50",
">. c #728B53",
",. c #788D52",
"<. c #769452",
"1. c #7A9552",
"2. c #759852",
"3. c #7C9C53",
"4. c #7B935B",
"5. c #7FA052",
"6. c #819651",
"7. c #829D53",
"8. c #839D5A",
"9. c #82A255",
"0. c #88AA54",
"q. c #84A25A",
"w. c #89A55C",
"e. c #84A95C",
"r. c #89A95C",
"t. c #98BC5A",
"y. c #84A262",
"u. c #8BAA64",
"i. c #92A563",
"p. c #93AD65",
"a. c #8FB167",
"s. c #99B662",
"d. c #92B46C",
"f. c #9BB96F",
"g. c #95B671",
"h. c #9DBA77",
"j. c #AFCF7C",
"k. c #D4F894",
/* pixels */
"H n *.3 V m q V ' f  .e t m Y V Y _ { I [ Y ~ { 6 ^ *.^ r ( / s / $.m ^ b ..a N l m t V { ' e / V E E N N ( k f V $.m / n u H L ",
"] u V w [ f k ~ n $ u 1. .u V u U s U Y Y I Y z W $.J D ;.{ / z M k D D H m ..] B V *.{ V *.*.k ] V @.E N { ~ $.x / 1.f H V ] ' ",
"] n 3.~ n ] k / r / q n 2.k ~ u M 5.U [ U [ #.M ! J %.E / x U ~ 3.~ X.{ ~ a O.~ u ] Y V Y Y u ~ { ( *.3 E k , r l / n ] ~ V m  .",
"~ H m ] 3  .~ -.V E m ~ ' ' m [ s -.d Y Y U U 2.l ) ^ ^ X.$.E N r k l *.^ D +.O.H a { V a.@.- Y x $ s N k *.l i ] *.~ ' u.3 m n ",
"' m *.m { { z r V k d *.m u V [ Y s @.M [ Y H H ] ) *.J W W 9.z 9.~ ^ p ] J A +.^ i H m Y Y [ d.s 5.U M U $ m / $.*.[ M $ d 3 M ",
"<.~ V q *.r d 3.N [ ~ *.m d.~ t 5.V M Y n 2.~ ' m ~ l X.D ~ N U + #.k i D =.^ C X.H H p d ' = -.k M 5.U U k . l V 3 z s Y s _ U ",
"m u / k N ~ @.U z U Y k ~ *.u [ ' V M ' Y n t k a D { W i x / u E z m ~ X.o.: F A N ' ~ #.- d 3.@.= Y U $ f t a k V z d - s @.U ",
"{ ~ ] z k @.s ~ E z 5 M  .<.u.f Y V ' V } n ] H ] ( D N r -.3 @.z U ^ W ;.W o.J m X.{ k s Y 2.# @.@.U Y m $.~ : m l = U I - = z ",
"M 3.5.~ I d Y [ N k @.-.@.{ V / Y / m n ] <.m ' O.k *.U ( N U / [ [ x 9.^ C F o.o.l ^ N @./ [ Y / / d *.k r i H 4 4 N k r { s I ",
"V ] ' { U z @.I @.z U k U / n k ] t H L B ' O.D ~ { x x s ;.U / M / E { C X.l W l $.7.3.k { ~ 5 #.5 U m w.] p p k q.z ~ ( U #./ ",
"Y V Y { d - #.I z U z s N r [ ~ m V H p m A i H k ~ f { / / N U { N k ( X.p ..7 l ( p ] V / $.-.U d / 5 r D l *.r w.~ u #.d U Y ",
"k r U e Y Y / I N @./ k / ~ Y N { p ~  .m ..^ m Q k f z N U D ( E x $.^ ^ ^ g %.W f N / Y d s ;./ [ s 3 N m { x ..f z ~ U - [ / ",
"k ' ~ #.- d U -./ Y { / [ z / Y Y @.s *.8.l ^ k D ^ E E ( %.W D 6 ~ X.x W W o < i ~ x 5 k s N 3 #.u $.E ~ E E k N x V ~ - M e y ",
"V n k <.[ U Y U - { / I N N s k z e z U m D a H X.6 x Q ! W g 7.$.x X.%.D Z D N ;.x { _ U ~ N  .' V @.~ k ( N z =.; k <.# [ 2.Y ",
"u { V M Y z U I I Y d - @./ / M I z ( / / ~ =.x x ` ( E j W W C ^ $.^ %.i ) 7.E ^ 6 / N . ( m ^ q V ] M N E ;.f 3.r *.~ w v u H ",
"V ]  .z d I d d I I / @.M [ s [ s / / V k D W ^ W E h x 6.W T Q ^ D ^ l ) D X.D ( @.*.m 3.f N ( / { f r x ( E g x k { / 1.B n & ",
"Y ' / / k N k z z @.U _ M { I I s z s 6 ( ( %.W h h T $.h j _ ` $.Z 7.m ..l ^ ^ ^ O.( V / z e U k [ k *.Y N I 8 k / U Q k M $ ' ",
"/ N V N ~ 9.s k E E z / Y U Y / s - 6 Q ~ ( g g h _ x h U U I ! x 8.X.x X.a D a m q.k m r / U ~ [ 3 u  .g.s I $.= z ( 5 E e n K ",
"f / f N Y 5 k z z ~ E z / U _ I 8 &., ~ z z E T h T x r U ( Q 6.^ W o.$.X.J : ] k a *.D Q f z z [ ~ ' d { U I I z z s _ M u V n ",
"U @.U N *.-.z V d @.@.x I ! 5.I I 2 f @.~ Q T 9 _ h z k N x T T W ^ X.f m X.a ] l 1.{ { E ~ E U z ~ d Y s U Q I s s U f ~ 2.e ' ",
"U I / @.@.u ~ V X ] ~ x T T ` $.Z N D f ] / _ ( T 8 6 W l i F Z x x D ( i ~ X.k ] l i r E ~ ~ x U 2.e r 5 s Q 5.E k k ( 5 ~ u ' ",
"5 k U s 3 d 2.d u r { k Z T j > $.x < @.s x U T 9 h x N g W T < W A ^ %.W W H 7.l p H k E r / ~ x 5 U @.r z k j k k @.5 E k n d ",
"@.f *.N Y m  .V k { N Q x Z I 8 g g z *.X.l ( ( o.F ^ W J C D ) ( x N f x ( H 3 ^ 6 ^ g D 3 O.x E k k U = / / + x r.f x r [ <.' ",
"~ / ( r / x m 3 ~ { E j &.8 f I 5 5 x r 6 f X.g ) ^ l l w.g ^ ! ^ ( f ! i k f f X.^ N ~ ~ ] N f 5.Q U s s U U Q O @./ $.~ ] 3.n ",
"*.l 4 D : { 6 x f / r O z h h _ h h d U k p ( W W F D 8.D m o.f g x E 6 g ( f ( x { N D { x X.D U 8 ( @.s 3 r k e.u { , / M t *.",
"m 3.a D W { r D U ( _ E U U -.I 8 s @.q q / i 9 ) Z i o.D ^ Z < ! ^ ( g *.( { ( f ( 6 k x ~ { r U k 1 N / ~ r q E O , 6 q.f ] ~ ",
"S p D H 9.D / *.I s s / s s s k z N [ m ~ d @.6 ( 3.x k +.S C ; l E + E E h x x E ( f N N N k N e.x *.6 , s u . / x 3.*.*.s 3.{ ",
"9.A X.*.N U 6 N 5 8 / / s Y e ~ x g H U d / I / 5 7.D q...J 7 o.D $.f ^ f ( x { z E 6 U l W l f x f , N E *.u M ] ~ ( s z ] N 2.",
"W *.x l X.4 { U z U U d Y d s ~ f g k $ k x = s = k 5 r l =.i p.p f f W 5.E Q _ h _ 8 _ E ] E W x x N x u u u u 5 z 3 k ~ u z ~ ",
"o.^ W k 5 { #.Y [ #.[ e U Y U 3 ~ ^ H / m  .5 s s 5 M ] ~ k k ^ g N $., &.E _ Q h z f h / E l k ( , { g D m m m k 6 V *.s @.z U ",
") W x ( ~ { M e Y 2.u u ' r N z N ( f k # 3 $.N 5 E ~ ' L D u / p ^ x $./ E I _ h 1 I E Q 6 k x W x { x W k 0 n E g E r M z q.-.",
"! W Z x x E ~ 3 Y M  .y V k k s k ( q V f n f 5 8 N Y ~ n V $.f g ^ U Q Q _ j 5 h 9.8 g f E k ^ g A ( i N ' ' V E U u / s N ( &.",
") S X.D -.I &.-.k ~ e *.U z s U 3 U H V ~ V U x 8 E ( H V $.2 W g E ( E ` Q I h j.> Z W N g ^ X.N f l ) D ~ l / E E 1 N x $.g Q ",
"S ^ ^ g Q R 8 8 f { *.{ f h 5 x k a p m Y M k 6 Q ( / N X.) l W &.8 U I 9 R ( x C T + Z W ^ ) k A D C l W J X.%.k { ( E ( ( W ! ",
"^ 1.%.N 8 _ I U U ~ e @.h z f 3 x i { m t k E 6 ( Q x 3.k ^ f g Q Q @.Q I ` ( h 7 %.~ i i D k D V g o.^ S Z ^ k ^ 9.~ *.A ^ D 7 ",
") l  .3./ / I I f V / r j 8 z m r ^ { # u @.Q ^ T / X.p *.~ ) ! E 8 _ s &.j ^ E W 9 D W l ^ g V E ~ x ( D X.4 ;.W ( k D %.) X.^ ",
"D p.{ { Y d U s { k @._ I 9 E ( k D p H X.f ^ W W ! { C 6.Z W ^ z f z _ &.Q x z ! &.X.i D N D k 6 f f x *.E l 6 J 6.7 S ^ H X.{ ",
"=.4  .O.M 2.I @.U ( h h ! , x ( D o A ^ A %.%.^ %.X.i ..W l l l U *./ / 0.( ;.g Q Q 3.D *./ l g f D U E z u p.k g 6.6.C ^ 7.w { ",
"f ~ r M Y U k / $.@.x I 6 9 l x k ^ N { D ^ E o.< X.f D D i f Q ( s N U E ;.U ^ ( 5.6 ~ D N l N D ) x k U U { ^ 4 S F a ] m m M ",
"U *.*.V [ Y U @.x 1 ) x T Q =.g $.E D D D f D W o.g g W l g ) U N ( V -./ / *.U / N D Q ^ x H { N A 5.k / e.s / i.F J J +./ V d ",
"x @.' [ d [ Y #.{ s N _ j ` ^ N f N ( ~ x ( X.D 3.{ $.W Z D x *.r 5 *.r E ( r E s &.( U k D ~ 3 N / { k D N ^ m J 4 J S G H O. .",
"D N V % } 2.M [ : ~ ^ ( T j D 2 z ~ k E Q ( @.< W ( ) x Z f k f { N u *.U ~ [ U ;.5 U 5.~ f O.f N U z { 3.: ^ $.a J A J b p H p ",
" .V r :.Y [ [ e 3 p W 6 C Z ! $.k f U $._ E ~ r ( x I h Q x Q %.m ~ ~ k x x [ s U f u m g ;.H D N ~ ~ r f 3.N a J F P a P 1.4.] ",
"^ h.V B } y - d m p k X.! W W l k E x h 8 f f %.E f _ s ` / x  .^ r / *., U d [ _ Q { ~ *.^ A D i =., E V V V H ..6.o.A P ' V n ",
"J ' H } e ' V #.>.~ u a ) f i 7.i g 2 2 Q T Q N E x Q &.Q g f x k =.~ O.{ E @.z 8 U @.s x f l m ] S { { u N m *.i ^ J H =.O.n y.",
"m ' >. .' Y m ] } 8.H H ) ! W < N 4 ) ` 8 Q I / = Q _ h E T l D m i D / < N s U Q / V U ~ 3 1.H m ^ k m V ^  .$.m ] B *.n ] H u ",
"P P H L O. .] V m L b O.o.g x C =.*.Z Z _ U 5 x / / %.j ` 0.f m S O.k ] *.m &.~ h _ k ~ H D ] m p D q H H ] H ~ <.m *.Y H { ] *.",
"4.m t | m V *.' P 4.| ^ ^ =.i W W J $.T ` j E N s s U ( Q 6 x 7.X.i X.^ ( s { V z 9.r { N W 4 =.] / H m k 8.p M 5 - / M n ' O.H ",
"r V P L K c 6.b ,.,.L b A A l V u p ^ E E h j j ~ ] z m x ` &.T D x Z u N V / ~ k ~ ~ ( D p ( E x z ' V / V [ d k / -.z [ [ Y } ",
"O.H v >.L B G P P G b ..A A a m p 3 ~ ( Q j 8 5.O / / N ( h 7.! C ) 9.$.^ H V ~ H m *.D Z i g f z ( z V N 5 u  .- s V d k Y u n ",
" .~ >.K 4.L G H b G ,.S l p ~ H k k f / { s $.$.5 ( N 1 x U + @.E Q f x $.~ ~ z N ~ r k i x x x @.U { N z / 3 r #.[ e Y d / k Y ",
"n >.v L L G ..G ,.a a a g ^ ] , E l x w N m / r I T 0.h 6 ( V N D T j E E z x { k x u a w.~ V E r E 8 Q / E N z U d Y V 3.~ @./ ",
"/ V ] n L 4.: m 1...] ^ ) i l ^ x ) *.~ m p q x g x 9 j 6 ~ u / x h T ( Q z U z r U [ k t z 1.] V k E N r E Q 1 x N L  .{ ] V { ",
"V ] V m w V H G H 1.l l D Z { l Q ;.r i m ~ 3. .E $.I j U #.t V E 6 8 5 I U , x x s s  .u ~ k  .m g ^ ~ ~ r x Q / V $ $ M k [ ] ",
"'  .r <.N ] m p ] A D x Z ` N ^ g x N  .x f l D E k m ( V z Y @.x * f f $.8 j x r f x 6 x i ^ r x 2 7 g V D D V Y r R t.1 / 3.4.",
"V u [ E   l u 1.p k &.W 6 f ~ , D N 6 ( E _ x k -./ U u m M U U { @.6 f U f r E 6 Q ~ ~ V D m D g s.t.a N k p ~ u f > k.$ n k M ",
"u V X E 3.E k ' m ~ U Q 9.6 $.E H m , x g h f g $ k n q k k r @.( E f W k x x g { x D Q D ^ D k f 6.*.w  .~ E $.e.< u k m k N D ",
"K 3 N k E { u ' 3 D / z h Q $.5 l V ;.x 1 g %.W *.u B n k N Y D 3 k x i x k $ D ( 6 x ~ D l ; %.2 4 w ~ H x z s $ f t q.k ' H 1 ",
"V n 3.6 f / V / <.r r 6 m ; =.s { ^ Q ( D l N D ^ i ' n [ x k z D k i ^ ^ p x X.D N i N X.W A D w r ^ ~ l k &.T r r ` 1 l L V g ",
"q V N x *.n u e d ~ r @.[ 5 $.k r H ( O m ^ W *.g ~ { m E @.N ~ q.{ D D l x ~ k , E ~ ;.4 l 6 { k 4 x $ x ^ 6 U r / E _ ~ r H u ",
"m t m k n 3 ' n M 5.d k ' e  .x / D N a ^ A p E l W ^ ^ x D x V E < Z 7.x D =.$ @.*.' u m i V V V V ~ ( n Y d u m @ n n ( f.V m ",
"u p n ~ q V V z k M n y.V @ { 5 x ~ m 3 O.H W o.A W g { i N ~ w.i Q W W x x ~ k & - t f ] 3 / k / V f e M Y :.V  .m  .u r X.v & ",
"u V >.~ q <.d ~ z M y c } B 3.i 3 ~ t 3.W *.=.A g ) l 6.! l &.l ` ! 7 j N E { t u [ u M M u - / ' y 0  .% e  .V z N k k V H V n ",
"n ] w H  .V - ~ [ { e K c <.r &.~ k ] H l g *.^ J D E W ^ D A j ` T h Q @.$.N m ' d V v Y  .y M d M Y y Y U Y U x E ( V V n B p "
};
