/* XPM */
static char *result[] = {
/* columns rows colors chars-per-pixel */
"64 64 146 2 ",
"   c #130D14",
".  c #1D131E",
"X  c #2B1C1D",
"o  c #3E2613",
"O  c #2E2533",
"+  c #62351C",
"@  c #2C4A02",
"#  c #325207",
"$  c #35540C",
"%  c #3B570D",
"&  c #365909",
"*  c #3B5B0F",
"=  c #375716",
"-  c #375B11",
";  c #3C5C13",
":  c #375A18",
">  c #3D5C1B",
",  c #3C6016",
"<  c #3F611A",
"1  c #415F17",
"2  c #425F1A",
"3  c #496D0B",
"4  c #436216",
"5  c #4A6713",
"6  c #476816",
"7  c #4C6917",
"8  c #44641B",
"9  c #4A641D",
"0  c #466A1D",
"q  c #4B6B1D",
"w  c #516D1E",
"e  c #4E701E",
"r  c #51721E",
"t  c #405E20",
"y  c #744B30",
"u  c #466521",
"i  c #4A6622",
"p  c #466922",
"a  c #4C6C23",
"s  c #4B6528",
"d  c #46682B",
"f  c #4D6C2A",
"g  c #516D24",
"h  c #526E2A",
"j  c #596E2D",
"k  c #4E7125",
"l  c #4E712B",
"z  c #527225",
"x  c #597726",
"c  c #577827",
"v  c #5B7926",
"b  c #54742B",
"n  c #59762C",
"m  c #56792C",
"M  c #5A7A2D",
"N  c #4B6830",
"B  c #526E33",
"V  c #596F31",
"C  c #567432",
"Z  c #5A7632",
"A  c #567931",
"S  c #5C7C33",
"D  c #5D763B",
"F  c #5D7C39",
"G  c #60772F",
"H  c #617E2F",
"J  c #617636",
"K  c #687736",
"L  c #627D35",
"P  c #697837",
"I  c #61763A",
"U  c #627D3B",
"Y  c #6A7D3C",
"T  c #3D3748",
"R  c #4D4A5D",
"E  c #5E7C42",
"W  c #637C42",
"Q  c #697D40",
"!  c #726B7E",
"~  c #996B4A",
"^  c #A17C50",
"/  c #5E812E",
"(  c #5D8134",
")  c #5F823A",
"_  c #62822E",
"`  c #6B8F2D",
"'  c #638235",
"]  c #698637",
"[  c #668836",
"{  c #6D8C37",
"}  c #64843B",
"|  c #6A853C",
" . c #66893D",
".. c #6B8A3D",
"X. c #708B3E",
"o. c #6F913E",
"O. c #73913E",
"+. c #658441",
"@. c #6A8543",
"#. c #668942",
"$. c #6C8B43",
"%. c #658248",
"&. c #6D8C49",
"*. c #708646",
"=. c #728D44",
"-. c #798A46",
";. c #738D4B",
":. c #798E4E",
">. c #6E9144",
",. c #6E9149",
"<. c #729245",
"1. c #789545",
"2. c #74934B",
"3. c #79944B",
"4. c #76994D",
"5. c #7B9A4D",
"6. c #6F8D50",
"7. c #728B53",
"8. c #788D52",
"9. c #769452",
"0. c #7A9552",
"q. c #759852",
"w. c #7C9C53",
"e. c #7B935B",
"r. c #819651",
"t. c #829E53",
"y. c #839D5B",
"u. c #82A155",
"i. c #83A35A",
"p. c #89A55D",
"a. c #89A95E",
"s. c #98BC5A",
"d. c #84A262",
"f. c #8BAA64",
"g. c #92A563",
"h. c #90AC62",
"j. c #8FB167",
"k. c #99B662",
"l. c #92B46C",
"z. c #9BB96F",
"x. c #95B671",
"c. c #9DBA77",
"v. c #B19998",
"b. c #C4B59F",
"n. c #D4F894",
"m. c #E5E6C7",
/* pixels */
"U C 2.8 S Z i } } l &.a p Z F F ( o.>./ #.) [ $.q | 3.| g  ...k  .>.b | Z @.h L Z Z f ) @.#.a } S } } S S  .n z S 2.Z } C f U Q ",
"@.f F i #.h b U C ; f 0.&.f F f ( k / ) ) ( ) m L 3.' L 5.$. .m M b P L I F =.@.F D &.@.S 2.,.C @.( <.( M $.} >.S } 0.h U F @.+.",
"@.C w.} C #.b } a } u b 0.h +.f A w.) ) ( #.>.A ..P 1.L | m ( } 0.} <.$.| h ;.U h @.} S } ( f } $.$.2.4 ' n 8 q M } n @.} F C &.",
"} U Z @.8 2.} 4.S } F } +.#.Z #.k 4.m ) ) ( ( q.n X.| X.<.<.' S a b M 2.] P ;.:.U h &.S j.&.8 ) M ; k S n <.n h #.2.} #.f.8 S C ",
"} S 2.Z $.$.m p S b b 2.S f F #.} l >.A #.) U U | $.3.' | } u.m i.[ | h @.| G :.] g @.Z ) ) #.l.k w.A ( S , S } &.2.#./ ; b 8 m ",
"0.U S u 2.a b w.S #.+.,.C l.U f w.A A ) C q.} +.n Y n =.L | S ( * ,.b g J 0.| G *.U F h l ) , 4.k / w.( S n $ n S 8 m l ) k >.A ",
"C b } b S } >.( m ( ' b } 9.a #.+.F A +.) C s b b P ..' z M } a ( S M } =.*.2 P J S #.} ,.< m q.>.,  .( ; b i h n F / l e 0 >.( ",
"&.} $.b b ,.k } } m p m &.2.f.h } F %.F +.C @.U @.$.L S q 4.8 2.b S ..] r.] -.Y n =.@.b b ) q.- >.>.( ) M =.U 2 n n , ( k < < m ",
"S 0.i.' / l  .#.S z >.4.>.$.F #.F #.Z C @.8.Z #.=.b 4.( ..( ( )  ...m u.| G Y -.1.b | S >.} $.)  . .k 2.n i h L i 9 S b k $.k ( ",
"S $.} $.A m >./ >.m ( z (  .b b @.s U +.Z +.2.J } $.n S k 5.( ..A #.' $.n =.x Y n -.t.w.b $.} 0 >.0 ( S a...h h h i.M }  .( 4.) ",
"F F ) &.m < ,.m m ( M k S a #.} Z S } h Z J h J n } z >. . ./ ( ..S n ..=.g =.w n ..b $.S #.<.4.( l } p i ' n 2.a p.} a 4.k ( ) ",
"b f A 8 )  . ./ ( $. .m  .} ) S &.h } &.Z *.| S } z z m M ( S $.[ M <.| | Y x 1.Y z S } ) b a 4. .#.k 8 S Z &.b =.z b } / < #.) ",
"b #.} &.< k ( 4. .) ..#.#.m } } ) >.k 2.i.Z | g L | ' ' ..              ' ] % 9 g [ S 0 c k S 8 &.f 2.} } ( ' n S S F } < C d p ",
"F C b 2.#.( ) ( < >. ./ S S k b m 0 m S Z L j } =.q c     ^ ^ ^ ^ ^ ^ ^     L S 4.M ..$.S [ L &.#.S >.} n ..M n 3.; n 2.- #.q.F ",
"f @.F A  .m ( / / ) k < >. . .A / m $. .| } 3.S M     ^ ^ ^ ~ ~ ~ ~ ~ ~ ~ ~   L ..q  .S # $.Z } 8 F ..C S ' 3.c w.q 2.} s b f W ",
"F $.,.A l m l m m /  .>.A #.k #.k  . .S b L [ ]   ^ ^ ^ ~ ~ ~ ~ ~ ~ ~ ~ ~ y ~   | <.<.S w.z S ..} $.b a M  .[ c M m $.} 0.D C > ",
"F #.#...b ( b M m >.( #./ #./ / k / k q ..{ -.  ^ ^ ^ ~ ~ ~ y ~ ~ ~ ~ y y y y ~   =.| S | m 0 ( b +.b 2.) S / k m  ./ } b C : #.",
"} S S S } w.k z [ } m [ ) / ( o.k < a [ [ $.m   ^ ^ ~ ~ ~ ~ y y ~ ~ y y y y y y ~   M S k  .( } $.8 f &.x.z / O., m o.0 [ u C F ",
"z ..z S ( p m m m } ( n  .(  ./ 6 O.6 [ n m   ^ ~ y ~ ~ ~ y y y ~ y y y + + + y y ~   S ' z b m  .#.+.l #.S / / m m k o.A k F C ",
"( >.( S 2.4.A S k $.>.M ( { w._ / e z &.} '   ~ y y y y y y y y ~ y y y + o + + y ~   &.' } [ ( m } l ) l ( ` / k k M z } q.u %.",
"( m ..>.>.a } F $ #.[ S _ / O.1.H H L z $.  y ~ y y + + + y y ~ ~ y y + + o + + y ~   f ' [ } S S w.a a 0 a [ 5.( b n ..0 } f +.",
"0 m ( a u l q.l f f $.b H _ v 3 <.M 8 $.  y + + y + o + + y ~ ~ y y y + + o o y ~ y   n ' i } } m 0 ( ..k m c m m b >.0 [ b C f ",
">.z 4.S F Z 2.S b @.( [ M _ / r c c m   ~ + + o + y o o + y y y y y y + + o y ~ y y   b L 8 =.M ( m m ( 4  .[ * M a.z M a #.9.+.",
"[ [ $.a } S A 8 [ ..' M 1.e r / 0 0 n   ~ + o o o + y o + + y y y y + + + X X y y + y   } $.F z w.[ ( k k ( (  .* .. .<.} @.w.C ",
"2.n 9 U 4 =.q M z  .k & m m c o.c z m   ~ + o X X o + o o + y y + + + + o X o y + X y   $.n =.L [ e ..<.k 4 a b a.a $., ..b a 9.",
"Z r.b L ' *.a ' S ..{ ' S ( 4.M e k >.  ~ + + + + X o o o + y y y + + + X o y + X X y   n [ $.q S m 4 M  .} a u ' & 8 q u.b #.} ",
"P g L U u.L [ 4./ e l  .k k k b M M }   ~ + o + + + X o o + y y y + + + X o + X X X +   S L n S i.M 4.0 4 b f # } M w.2.4.a 0.$.",
"y.L *.3.S S a S p e  . .k ) k ( M n S (   y o X X o + + o + y ~ y + + o X o X X X y o   b } n z M z 4 S ( 2.f Z $.[ $.a b $.S 4.",
"] 3.M n -.0 $.( m / ( l ) k k } z n b ; n   y o o X X o + + y ~ y y + X X X o o y + o   ' *.L ' M M S S a h f f 0 m 8 b } a M [ ",
"-.] ' n 8 $.>.) #.,.#.p A #.S 8 ' | } } S $.  o X X X X o + y ~ y y + X o o + y + X   c [ ' M z ..4 ..c U S Z C n a S 2.b &.m ( ",
"{ [ M ..[ $.A p ) 6.l d #.a S M L  .z b     ^     o X X X o + y y y + X o + + o X       ] k n S L M $.M L n > C ' z [ u m m i.4.",
"] | H M S ' ) 8 ) F #.l ) b b k n       ^ ^ y + o     X X o + ~ y + o X o o X     X y y       ..n H ..g S #.+.F ' ' k #.a S $.1.",
"X.K =.L 4./ o.4.b } a &.( m k ( 4   ^ ^ ~ ~ ~ y + + o   X o y y y + o o X     X X X o o y y   =.G g M | L ] M ..' ' 0 M M <.c [ ",
"L | | n [ ` r e b $.<.$.c z 0 M n   y ~ y y y ~ y + + o   X + y y o       o o o o o + + o +   b L L G n L Y *.1.c $...L X...] ] ",
"Y r.4.M e o./ ( ( } q >.z / z 6 S i   y + + y y ~ y + o o   X + + o   o o o y y + + + + +   n S S M =.] L L ] b [ u.[ 4.L X.L w ",
"| M =.w. . ./ / z S  .q / 0 m . . .   y y + + + y + o X o     o o   X o o + + y y y + + +     . . | M *.L -.9 5.L $.n S 2.] -.| ",
"P h.=.$.) k ) / $.n >.o./ e . T m.v..     y + + + + o o X o X     X o o + + + y y y y     o   m.T . z b 4.L M q | y.w K | L -.$.",
"1.9 &.2.A q.k >.( ..c z { 4 . ! m.v.O   +   + + + + + o X X X X X o + + + + y X       o y +   m.! . S [ M a j.n j r.-.G X.r.8 $.",
"z [ f b ) ( m  .<.>.M / 7 r . ! b.. ! X y y       + + + o o o o o + + + + +     + o X + y y X b.! . n m (  .>.} 7 K P j @.Z S A ",
"( ,.2.F &.) A >.M 6 { / _ ] . v.b.v.m.+ y y o X                             y + o   X o y y + b.v.. w.c ..w.a } g.K Y Y :.#.F l ",
"S <.} %.l +.) ,.&.h M X.v O.. ! v.  + y y o X     X o + y y + y y y y + y y + o       X o y y +   . $.z S S Y n Y 9 Y P I Y &.&.",
"( S F : +.q.A #.> [ [ { _ x L . R   + + y X         o o o + + y y y y + + o o     0 S   X y + +   ( m $.w.8 | 3.j Y J Y n h Y B ",
"$.L p 6.) #.#.p 8 h ' w M H X.. !   + + X   |   y     + + + + y y y y + +     o X   a M   X + +   } } a b w.F h Y Y *.j Q 0.0.+.",
"@.c.U E %.d < l Z h n =.X.] ] x .   + o   z z   + y ~                     + o X X   &.[ 3.  o +   3.8 } S S S U Q r.Q K Q @.F C ",
"U @.U +.p #.F &.9.U f h X.g r t.w n     [ _   y + + y ~ + + + + y y + + + o X + X   2.k n z     @.J &.&.a S S 9.g Y Q Y 9.:.h d.",
"Z @.7.&.+.) S &.%.y.I } ] { ] 5 M 9 { O.7 [   y + + + y + o X o + o X X o X + o X   S L } 8 0.U S Y h M F | &.=.Z #.F 2.C #.} f ",
"Q Q E W ;.&.#.Z D W B ;.:.v G G 5.3.H H { _   ~ + + o y + X X X o X o o + + o X o   b } } U *.n h U 9 } I $.U } 9.S ,.) S &.@.;.",
"0.V s @.V F 8.@.Q e.Q Y X.3.g } } P <.' O./   ~ y + o o + o X X X X X o o o X o X X   $.n ] 9 3.$.} L Z b y.f S 8 < } M Z #.&.Y ",
"f F Q W E B 8.J 8.*.Y V J L n J f h [ ' ' c   ~ y y + X o + + o o X X X X X o o X X   | ] z ..' M m } S } F &.l b  .4.m #.#.) %.",
";.U D 7.W D I Q Q W V *.Z J b Z h 8 } ..[ M   ~ y + + + X o + y + o o o o + o X X o   F J g z g M ..C F S 0 d ,.< k ( l m F f B ",
"@.} 7.E e.W I I V J 8.I n h @.U b n z  .$.k   y ~ y y + o X o + ~ + + + y o X X o +   x h M S M >.S >.S m  .4 a >.#.u ) l ) A ) ",
"A 7.N E Q I *.I 8.V j j j ] @.2 ' n M 9 M M   + ~ y + + + o X o + ~ ~ y o X X o + +   h a.' L L a [ q [  .( ( m ( b ) F w.[ >. .",
"} } &.C U 8.8 Z 0.@.@.] X.g n ] M { 2.} Z .   o + ~ y + + + o X o + + o X X o + + y   b a b 0.$.S n ' S a ' ] 6 S S W &.$.$.S @.",
"U +.Z S f F I I Y 3.J M H H $.S ] 5.i b . v.  o o + y y y + o X X o o X o o + + y +   . a } b &.Z b | ' | i ( ]  .S ; ; S b +.&.",
"+.&.f 9.Z #.Z h @.Z L x H =.S ] n M S =.. m.v.        + + + o X X X o X + + y y     m.. Z h | g M 7 w n ' F L S F e ` s.6  .w.e.",
"F f } } @ Z f 0.h b 4.] q z [ 2 L S q ... v.m.O ! b.!                           O m.v.. S U S L v k.s.h S b h } a z 3 n., C h A ",
"f F * ' 4.' b +.Z } S [ t.q <.[ U S 4 M . T b.! m.m.! . b b a <.$.} z L . ! m.m.! b.T . ' ..' z g 5.3.i &.} ] <.a.8 a b Z b S L ",
"F u S z ' $.f #.8 U  .m c [ 4.4 n F 4.M 6 . v.T m.v.! . l ( ( F 1 b M z . ! v.m.T v.. | J x % 3.q 9 i S I S c r ; b s i.C +.L 6 ",
"F C w.8 z | S +.9.a k k M 4 4.a $.| | { L n X . . . . Z $.M b A L z g | ] . . . . . g L =.L L L i i ..] m n 1.[ a k O.6 C U L b ",
"t F S S 2.S f a l ' a $.} q $.n i } ..$ n | U 2.n | @.S ' &.S [ y.=.L L n M } n 8 L ' w.9 M q $.b 9 n ; M  .0 ( q | ( o.[ f U h ",
"D s Z b b u +.A A w.f b +.p &.M } L S b ] J g ' z ] | | S L n S L 6 H 5.S L 3.; <.2.} a S h S S U S } $.C } l d Z = C b #.z.S Z ",
"f h b } u F F b b S A d.F = $.8 S [ Z 8 ;.U | -.L ] x $.g Z } p.z ] ] [ n S } b > > f l #.u #.b } ) b p A ) 6.F &.Z &.f i -.C > ",
"s F 9.U u 9.l } m A d N %.F w.z 8 U i w.U 3.3.Z x X.n r.| x 5.v O.{ e M L ' #.i f #.f A C f < #.) d < &.: p &.F m S b b F U F B ",
"C @.f U &.F < } #.$.u E N 9.a 4.[ b &.I n M 3.| Y L L ] ] L L v O.H x ] >.=.S S +.l F C F @.p ) l A E d ) ( ) S M [ ..F F C F B "
};
