/* XPM */
static char *result[] = {
/* columns rows colors chars-per-pixel */
"64 64 194 2 ",
"   c #080A0A",
".  c #0A0C0C",
"X  c #110D12",
"o  c #130D14",
"O  c #1D131E",
"+  c #19191E",
"@  c #1A1C1C",
"#  c #1F1F1C",
"$  c #2B1C1D",
"%  c #3D1618",
"&  c #3E2613",
"*  c #1E1E22",
"=  c #202025",
"-  c #222229",
";  c #2F2B2B",
":  c #2E2533",
">  c #62351C",
",  c #6A2124",
"<  c #6C3136",
"1  c #2C4A02",
"2  c #325207",
"3  c #35540C",
"4  c #365909",
"5  c #3B5A0E",
"6  c #375716",
"7  c #375B11",
"8  c #3C5C13",
"9  c #375A18",
"0  c #3D5C1B",
"q  c #3F600F",
"w  c #3D6115",
"e  c #3F611A",
"r  c #425E13",
"t  c #425F1A",
"y  c #496D0B",
"u  c #426216",
"i  c #496515",
"p  c #476816",
"a  c #4A6916",
"s  c #44641B",
"d  c #4A651C",
"f  c #466A1D",
"g  c #4B6B1D",
"h  c #516D1E",
"j  c #4E701E",
"k  c #52721E",
"l  c #405E20",
"z  c #744B30",
"x  c #466521",
"c  c #4A6622",
"v  c #466922",
"b  c #4C6C23",
"n  c #4B6528",
"m  c #46682B",
"M  c #4D6C2A",
"N  c #526D24",
"B  c #526E2A",
"V  c #596E2D",
"C  c #4E7125",
"Z  c #4E712B",
"A  c #537225",
"S  c #597626",
"D  c #567926",
"F  c #5A7926",
"G  c #54742B",
"H  c #59752C",
"J  c #56792C",
"K  c #5B7A2D",
"L  c #4B6830",
"P  c #526E33",
"I  c #596F31",
"U  c #567431",
"Y  c #5A7632",
"T  c #567931",
"R  c #5C7C33",
"E  c #5D763B",
"W  c #5D7C39",
"Q  c #60772E",
"!  c #617D2F",
"~  c #617636",
"^  c #687736",
"/  c #627D34",
"(  c #697837",
")  c #61763A",
"_  c #627D3B",
"`  c #6A7D3C",
"'  c #3D3748",
"]  c #424343",
"[  c #484040",
"{  c #494B4B",
"}  c #574D4C",
"|  c #594E4E",
" . c #4D4A5D",
".. c #5D5251",
"X. c #5E7C42",
"o. c #637C42",
"O. c #697D40",
"+. c #656767",
"@. c #726363",
"#. c #727465",
"$. c #726B7E",
"%. c #727373",
"&. c #737474",
"*. c gray48",
"=. c #942B30",
"-. c #8E653F",
";. c #A84149",
":. c #B64E56",
">. c #996B4A",
",. c #A17C50",
"<. c #5E812D",
"1. c #5E8134",
"2. c #5F823A",
"3. c #62822E",
"4. c #6B8F2D",
"5. c #638235",
"6. c #698537",
"7. c #668837",
"8. c #6A8B36",
"9. c #64843B",
"0. c #6A853C",
"q. c #66893C",
"w. c #6B8A3D",
"e. c #708A3D",
"r. c #6E903E",
"t. c #73913E",
"y. c #658441",
"u. c #6B8542",
"i. c #668942",
"p. c #6C8B43",
"a. c #658248",
"s. c #688148",
"d. c #6D8C49",
"f. c #708646",
"g. c #728D44",
"h. c #798A46",
"j. c #738E4A",
"k. c #798E4E",
"l. c #6E9144",
"z. c #6E9149",
"x. c #729245",
"c. c #799545",
"v. c #7A9B47",
"b. c #74934B",
"n. c #79944C",
"m. c #76994D",
"M. c #7B9B4C",
"N. c #6F8D50",
"B. c #728B53",
"V. c #788D52",
"C. c #769452",
"Z. c #7A9552",
"A. c #759852",
"S. c #7C9C53",
"D. c #7B935B",
"F. c #7FA052",
"G. c #819651",
"H. c #829D53",
"J. c #839D5A",
"K. c #B88250",
"L. c #82A255",
"P. c #84A25A",
"I. c #89A55C",
"U. c #84A95C",
"Y. c #89A95C",
"T. c #98BC5A",
"R. c #8A8C79",
"E. c #84A262",
"W. c #8BAA64",
"Q. c #92A563",
"!. c #93AD65",
"~. c #8FB167",
"^. c #99B662",
"/. c #92B46C",
"(. c #9BB96F",
"). c #95B671",
"_. c #9DBA77",
"`. c #888989",
"'. c #9D9F8A",
"]. c #989999",
"[. c #B19998",
"{. c #A4A58F",
"}. c #A7A8A8",
"|. c #ACADAD",
" X c #B9B9B9",
".X c #C4B59F",
"XX c #D4F894",
"oX c #C0C0C0",
"OX c #CDCECE",
"+X c #E5E6C7",
"@X c #E2E3E3",
"#X c #E5E6E6",
"$X c #ECECEC",
"%X c white",
/* pixels */
"_ U b.s W Y x W y.A d.v n Y 2.W 2.r.p.<.i.2.9.p.g 0.b.0.b w.q.C q.x.Y 0.I f.V R H Y n W p.y.v q.W 5.5.R R w.G A W x.Y q.U M _ o.",
"u.M W c i.A G 9.U 8 M Z.d.M W M 1.C 1.2.2.<.2.J 6.x.` / M.p.q.J T G / / _ Y f.u.E W b.p.W b.b.G u.W l.5.R p.9.x.K q.Z.A _ W u.y.",
"u.U S.9.U u.G q.b q.x U A.G 9.M T F.1.i.1.i.z.T 8.` c.5.q.K 1.9.S.9.g.p.9.V j.9.M u.2.W 2.2.M 9.p.w.b.s 5.G u b H q.U u.9.W Y d.",
"9._ Y u.s d.9.m.W 5.Y 9.y.y.Y i.C m.Z 2.2.1.1.A.H e.0.0.g.x.5.R b G H b.0./ k.j._ V p.W ~.l.e 2.K 8 C R G b.H N u.b.9.y.W.s Y U ",
"y.Y b.Y p.p.J b W G Z b.Y M W i.2.C l.T i.2._ _ u.e.b.` 6.6.L.J L.9.0.B u.` ~ k.0.N _ Y 2.2.i./.C F.1.T 1.8 Y q.x.b.i.T 8 Z s T ",
"C.9.W x b.b Z S.R i.9.b.Y /.9.n F.W T 2.U A.9.y.Y 9.H g./ 9.R 1.5 z.G N / n.0.Q g._ _ B Z y.w m.G T F.1.1.G 2 H W s J C 2.C r.1.",
"Y M q.G R 9.l.1.J 1.2.G 9.b.M i.y.W T y.2.U n G V / p.6.N K q.M 5.J Y 9.g.h.t ( ~ R y.9.z.e Z S.l.w 2.1.8 A n V G W J Z e C l.1.",
"p.9.u.J G l.C 9.5.J f T d.C.W.A 2.W y.W a.U u._ u.w./ R b m.s l.J 1.0.6.M.6.h.` Y g.p.G C 2.A.7 l.l.1.2.Y x.9.t Y H w 1.<.e w J ",
"T S.F.9.<.Z 2.i.R G l.m.l.p.W q.2.q.Y U u.C.Y y.j.G b.1.w.o o o o o o o 0.Q ( h.h.H 0.R l.q.i.2.q.q.Z b.G b N _ d d R G b p.C <.",
"W u.y.p.1.J l.<.l.J 1.G 1.q.U G u.n _ o.E y.j./ 9.p.K o o ,.,.,.,.,.,.,.o o H 6.H x.H.S.G p.9.f z.f 1.Y I.u.B B G P.J 9.w.1.z.q.",
"2.W 2.p.Z e z.<.J 1.J C R b i.9.Y W _ B Y ~ N _ G o o ,.,.>.>.>.>.>.>.>.>.>.o o H w.B u.W q.x.m.1.Z q.f b / H b.b I.9.M z.Z 1.2.",
"G b 1.v 2.2.q.<.R l.q.G q.9.2.R p.B 9.d.Y f.0.Y o ,.,.,.>.>.>.>.>.z > > > z z z o A R q.2.Z C M.q.i.C s R Y p.K f.A J 9.1.e i.q.",
"G y.9.z.e Z 1.m.q.2.p.q.i.J q.2.2.l.C b.J.H 0.o ,.>.>.>.>.z z z z z ,.,.,.z > > z o K f G C R s z.M x.5.9.5.5.G R K W 9.e T v m ",
"W U G C.i.1.2.1.e p.q.<.R R C G J v J 1.Y / V o ,.z z z z z z z > ,.o o o >.> > > z o r.1.9.R d.y.W l.9.G w.R J n.r G C.7 i.A.2.",
"M p.W T 2.J 1.<.<.2.Z e l.q.q.T <.J w.q.q.9.o ,.z > z z z z z > ,.o @ . o >.> > > & z o 2 w.Y 0.x W u.T R 5.M.A S.b b.9.c P M _ ",
"W u.d.J Z <.Z Z <.<.q.l.T i.C i.C q.q.W G o ,.z > > > > z z > ,.o ] { @ o >.> > & $ z o S.A R w.q.p.A b K w.5.S K G p.q.Z.E U 0 ",
"2.y.q.q.G R G J J l.1.r.T p.<.<.C J C g o ,.z > > & & ,.,.,.o o +.&.%.+.o >.> & $ $ z o q.J v 1.G i.G b.2.R <.j G q.1.7.G T 8 y.",
"q.R W R 9.L.C G 5.5.J q.2.1.2.q.C e g o ,.z > ,.,.,.,.o o o $X$XOX X*.`.o >.& & $ $ z o b q.1.9.i.s M d.).C <.x.w J w.f 5.v U X.",
"A q.A R 2.f G J J 9.5.J q.1.r.<.j v.o ,.,.,.,.o o o o '.%X%X%X%X%X#X}.|.o >.& $ $ & z o 7.A J J i.9.y.Z p.1.<.<.J J C r.T M W U ",
"1.l.1.R b.m.J W Z l.l.K <.8.F.<.<.a o ,.o o o     } R.+X+X%X%X%X%X%X@Xo >.& $ $ & > > z o 9.5.1.J 9.Z 2.C 1.7.<.C C 1.A 9.A.v y.",
"1.<.q.l.l.M 9.W 3 u.9.K 3.3.t.x.! R o ,.o o     # [.[.+X%X%X+X+X+X+X Xo >.& & & > z >.z o 9.9.K 1.A.v b f C 7.F.5.G G w.f 9.M y.",
"f G 1.C s Z A.Z M b p.G ! 3.F y x.K o ,.o o     | [. .%X%X%X%X+X+X%X%XoXo z z > z >.z z o b q.9.K f 1.l.b J G F G G l.f 5.G U Z ",
"l.A b.R 2.Y d.W G p.R 7.K ! <.j S S o ,.>.o     [ ' %X%X+X+X%X%X%X%X+X{.  o o >.z z > z o s j.K 5.G G 1.w q.q.5 K Y.A K b i.C.y.",
"9.q.w.b q.K Y s 9.p.5.F v.j A <.f f K o >.o     + ' %XO =.$.+X+X+X+X$., X     o >.z > z o u.R A F.7.1.C C 1.1.7.4 l.q.x.9.u.S.U ",
"b.H d / t p.g K A q.b 4 J D D r.D D Z 1.o >.o o   [.+X=.K.;. .+X+X .;.-.%     o ,.> > & o K g./ 1.j w.l.C s b G U.M p.u q.T n b.",
"Y S.V / 6.p.b / 1.w.r.5.1.1.m.<.j C l.x x o o >.o o [.[.:. ..XO O .X .< ;     o ,.& & o K 9.p.b 1.G p R q.9.b x 5.4 u g P.A u.9.",
"^ B / _ L./ q.b.<.C C q.C C C G J o o o o o ,.> >.o o $.[.+X%X . .%X+X..=   o ,.& $ o o o o o R U.K b.g u C M 2 q.K S.b.b.C S.p.",
"L.~ g.b.R 1.g R f j q.q.C 2.v 9.K o ,.,.,.,.z > > >.o * @.+X+X%X+X+X#.  o o ,.& $ $ z z z z o A K A u R 5.b.M T u.9.w.C J u.R A.",
"6.b.K H g.d p.1.J 1.1.Z 2.Z C 9.A o z >.>.>.>.z z > >.o o o %X .].- o o >.>.& $ $ $ & & & > o 6.K K R K M M M M f J s G 9.M J 9.",
"h.0.6.G f p.z.2.i.z.i.v 1.2.1.s 9.0.o z z z z z z > > z > & o     o > z z > > & & & > > > o H G w.u p.S / Y Y Y G g W b.C l.J 1.",
"e.6.K w.9.p.T v 2.A.M M y.b R J R w.o z > > z z z z > & z & & o o > & & & > z z > > > > > o o K 6.K p.K 6.G l U 5.S 5.b T J P.m.",
"8.6.! K K 5.9.s 2.T d.m W G G C G O : o z > > z z > & $ & > $ & & & $ & & > > z z z > > o z o 0.S ~ w.N R y.y.W 5.1.M q.C R w.v.",
"e.^ g./ m.<.v.m.G 9.v b.1.J C 1.s O o & o z > z > > & & $ & $ $ $ $ & & > > > z z z z o z z & o R A H e./ 9.H q.5.5.p R K x.S 7.",
"^ 0.0.S 7.4.j j A p.b.p.A D f K G O o > z o > > > > > & $ $ $ $ $ & > > > > z $ o o o $ > z > o ~ / Q H 6.` g.c.G p.w.5.w.w.6.8.",
"0.Z.c.R j r.<.1.1.9.v l.D J A s K O o > > > o o o > > > & o o o > z z z z z o o $ $ $ $ > > > o W S h.0.^ ! 0.G 0.L.9.b.~ 0./ h ",
"e.H d.S.q.q.<.<.A W q.b F j J Y O  .o > & $ o o $ o o o o z z z o o o o o o z > > $ o o $ & > o 5.9.K w./ g.d M.6.w.G / c.e.g.0.",
"/ !.p.p.2.Z 1.C p.G l.r.<.k 5.O O O .XO  .O o o o & > z >.z z z z z z z z >.z > & o o o O .XO O O A A K b.5.H g ` G.h ^ 0._ g.p.",
"n.d d.j.T A.<.l.1.w.D D 8.u K O +X .+X .+XO c.o o $ & > z >.>.z z z z >.>.z > & o o O +X .+X .+XO / 1.5.J M !.G S G.G.Q 0.H.c p.",
"A 9.b T 2.1.G q.x.l.K <.g k H O .X[..X[..XO 5.o o o & & & > z z z z z z > & & o & o O .X[..X[..XO e.K G 1.1.p.0.d ^ ( V u.Y Y T ",
"1.b.b.W i.2.1.l.K p e.K 3.7.n.O $.[.$.[.$.O / o z o o > > z z >.>.>.>.z z o o & $ o O $.[.$.[.$.O ~ F.G q.U.C q.Q.( ` ` k.q.W Z ",
"K l.y.i.Z i.2.z.p.C R r.F t.0.R O $. .$. .[.O o > z >.o o o o o o o o o o > & $ $ o [. .$. .$.O R q.p.G / R 0.Y ` d ` ^ ) _ j.d.",
"/ R W 9 a.A.T i.t 9.0.w.3.F / a O  .$. ..X$.o z > > z >.> > > > z z > > > & $ > $ o $..X .$. .O R 1.J p.S.t 0.x.V ` ~ ` I B _ B ",
"d.W b N.2.i.i.v s B 6.g Q ! 8.x.G O O O O O o z > > > z > & $ & > & $ $ & $ > & & o O O O O O / R 9.9.b A S.R V ` ( O.V O.Z.D.u.",
"0._.W E a.m e Z Y B G g.8.6.6.H G 5.K D j A o >.> > & z > $ $ $ & $ & & > > & $ & o p.9.b.0.~ / N n.u 5.W W W _ f.G.h.~ O.y.W U ",
"` y._ a.v y.W z.B.9.M V e.A N H.N S a a 7.3.o >.z > & & > & $ $ $ $ $ & & & $ & $ $ o C K A H Y u.^ p.p.M R Y b.N 0.` _ n.j.U E.",
"Y y.B.d.y.2.Y u.a.J._ _ e.8.6.i R d e.t.j 7.o >.z z > $ & > > & & $ $ $ $ $ & & $ $ o 1.9.s Z._ Y 0.G Y W 0.d.x.Y u.E b.U u._ M ",
"O.O._ o.j.d.u.W Y o.I j.h.S K Q n.b.! ! r.1.o >.z > > > $ & > z > & & & & > & $ $ & o 9._ / u.Y B / x _ _ u._ 9.C.Y b.2._ p.u.b.",
"D.Y n s.Y W b.y.O.D.s.0.0.n.N 6.6.` x.3.t.F o z >.z z > & $ & > >.> > > z & $ $ & > o p.R 6.d n.u.q._ Y G J.B T f e q.T U y.j._ ",
"b W O.o.X.L G.I V.V.o.I ~ ~ H W M B 0.5.5.D o > >.z > > > & $ & > >.>.z & $ $ & > > o w./ B w.5.K J y.W q.W i.Z G q.m.J i.i.2.a.",
"j._ P B.o.E ) O.O.) I f.~ ~ V Y B s 9.w.7.F o & > >.z > > > & $ & > > & $ $ & > > z o / ! N S A J w.J W R f M d.e C W Z G 2.M U ",
"d.9.B.X.D.o.) _ I ) V.^ H B 9._ G G A q.p.C o & & > z z z > & $ $ & & $ & & > > z > o G N K K K l.1.p.R J q.s b z.i.v 2.Z q.G 2.",
"U B.P o.o.) f.) V.V V V S 0.u.u 5.H K c R O : o o o o > > > & $ $ $ & $ > > z z o o O V I.9.W 5.b 5.j 7.q.5.R J 1.Z 2.W S.9.l.q.",
"q.W u.U o.D.t Y Z.f.u.0.e.N H 0.K e.b.9.O : +X .+X .+Xo o o o o o o o o o o o o  .+X: O n J Z.u.W G 5.R b 5.7.p K R o.d.p.u.W p.",
"W u.W Y c W _ ) _ Z.H H / ! p.H 7.M.b N O [.$..X$..X$.$.O z.n W 5.g j O $.$..X$..X$.[.O M 9.G d.Y S 0.9.9.b K 7.q.W 8 8 T G i.u.",
"y.d.b C.R u.Y B u.~ / K ! t.R 0.S K R d.O +X .%X .%X .O W J 2.l.K q A A O  .%X .%X .+XO K N 0.b K a h S W / / W 2.b 4.T.p q.S.D.",
"W M i.5.1 H M Z.B G v.6.g A 9.u / R g w.5.O O O O O O M Y T 1.1.p.l.g A 1.O O O O O O 9.W / Y / S ^.T.V R G B 9.M A y XX8 U G T ",
"M W 3 5.S.5.G y.Y 9.1.7.L.g x.5._ Y u K S D A S 8 G U x G G b l.w.5.A 6.G K K S p.K / 7./ 0./ G A G.b.c d.9.5.x.U.i M G Y G R / ",
"X.s R G 5.p.M y.s / q.J D 7.x.f H W M.K p S c.6.b.M E U G R 2./ s G K N K G 8 / w.g K 9./ H r c.a d c 9._ K J C 8 A n P.G y._ p ",
"W U S.g A q.W q.C.b b g Y r n.C p.0.7.w./ H R / 0.N y.U i.K G J / G N 0.0.B K g./ R N R g.6.~ / c b 0.9.H G v.3.b b t.p H o.W S ",
"x W R K b.U M v Z 9.b l.i.f x.G b _ w.4 Y 0.6.b.S 9.p.Y 5.l.R 9.P.p./ / H K 9.G u 5.9.M.d H g p.G d K 8 K 0.g 1.b q.5.r.9.b _ M ",
"Y n Y G U s y.U T F.Z G y.v d.K q./ R V 0.~ B 5.H 6.0.0.K / K W 5.i ! H.K / n.8 l.b.y.M Y N W W W W 9.w.U 2.Z M Y 6 U U w.(.W Y ",
"M B U 9.x W W J G T U E.W 6 p.f K 9.Y s j._ 6.h.~ 6.S p.N R 9.I.N 7.6.6.K K 9.G 0 e n A u.s q.G q.W A v T 2.N.W d.Y d.M b g.P 0 ",
"M W B.9.x C.Z 9.J T m L a.E S.N s 9.n S.6.b.n.~ S e.H G.8.H v.H t.8.h F R 5.p.n M i.M T T M e q.y.m l d.9 v d.W J R G G W _ W U ",
"U u.c _ d.W e 9.i.p.v X.L C.b v.9.G u._ H S b.0.` / 5.6.0./ ~ F t.3.D 7.l.x.R Y y.Z W P 2.d.m T Z T 2.m 2.1.2.1.K 5.w.W W U E B "
};
