/* XPM */
static char *result[] = {
/* columns rows colors chars-per-pixel */
"64 64 245 2 ",
"   c #040508",
".  c #04020C",
"X  c #0A060D",
"o  c #0B090D",
"O  c #10110E",
"+  c #060311",
"@  c #0A0513",
"#  c #0D0A13",
"$  c #0E0819",
"%  c #120D15",
"&  c #130C1A",
"*  c #0D1511",
"=  c #151214",
"-  c #1A1416",
";  c #1C1A16",
":  c #15121A",
">  c #1B141C",
",  c #141B18",
"<  c #1D1A1A",
"1  c #21171B",
"2  c #221B1C",
"3  c #18261A",
"4  c #1D351E",
"5  c #23221D",
"6  c #2B231D",
"7  c #252B1E",
"8  c #2F2B1E",
"9  c #1D1522",
"0  c #1E1921",
"q  c #231B23",
"w  c #271D27",
"e  c #251D2A",
"r  c #271D30",
"t  c #1C2721",
"y  c #1F3922",
"u  c #2B2324",
"i  c #272924",
"p  c #2C232B",
"a  c #322624",
"s  c #332B24",
"d  c #31272B",
"f  c #342B2C",
"g  c #3A2D29",
"h  c #273725",
"j  c #34342B",
"k  c #3B332C",
"l  c #36382B",
"z  c #2F2531",
"x  c #342B32",
"c  c #392E33",
"v  c #3D3333",
"b  c #3A3835",
"n  c #402F23",
"m  c #45372B",
"M  c #443C33",
"N  c #493D34",
"B  c #453938",
"V  c #453A3C",
"C  c #2C4A02",
"Z  c #36570A",
"A  c #3C5C13",
"S  c #395917",
"D  c #3D6115",
"F  c #3F611A",
"G  c #284628",
"H  c #2C522F",
"J  c #3D4535",
"K  c #355436",
"L  c #425F17",
"P  c #44641B",
"I  c #486519",
"U  c #466A1D",
"Y  c #4F6E1B",
"T  c #4B6B1D",
"R  c #4E442E",
"E  c #445927",
"W  c #4C4235",
"Q  c #4C443B",
"!  c #474939",
"~  c #534434",
"^  c #564838",
"/  c #544B3C",
"(  c #5C4B3A",
")  c #4A5434",
"_  c #4B5639",
"`  c #55553C",
"'  c #56583A",
"]  c #654E3B",
"[  c #66583D",
"{  c #466626",
"}  c #4A6523",
"|  c #466922",
" . c #4C6C23",
".. c #4B6528",
"X. c #4D6C2A",
"o. c #526D24",
"O. c #526E2B",
"+. c #596D2D",
"@. c #4E7125",
"#. c #4E712B",
"$. c #537225",
"%. c #597626",
"&. c #587926",
"*. c #54742B",
"=. c #59752C",
"-. c #56792C",
";. c #5B7A2D",
":. c #4A6633",
">. c #566B35",
",. c #567431",
"<. c #5A7633",
"1. c #567931",
"2. c #5C7C33",
"3. c #5D753B",
"4. c #5D7C39",
"5. c #617A2F",
"6. c #617636",
"7. c #687737",
"8. c #627D34",
"9. c #62763A",
"0. c #627D3B",
"q. c #6A7D3C",
"w. c #483C43",
"e. c #4E4444",
"r. c #544C42",
"t. c #594E43",
"y. c #544848",
"u. c #4C5548",
"i. c #585743",
"p. c #5C5244",
"a. c #5D534A",
"s. c #584B53",
"d. c #675644",
"f. c #63564A",
"g. c #64594C",
"h. c #6B5C4A",
"j. c #735E48",
"k. c #665C52",
"l. c #446747",
"z. c #5B6543",
"x. c #5E7C42",
"c. c #527352",
"v. c #686445",
"b. c #75634D",
"n. c #7C674B",
"m. c #637344",
"M. c #637C42",
"N. c #6A7C40",
"B. c #727A49",
"V. c #6E6154",
"C. c #746453",
"Z. c #7C6B54",
"A. c #766759",
"S. c #7C6C5B",
"D. c #7E725C",
"F. c #7A6E63",
"G. c #7E7468",
"H. c #866E4C",
"J. c #826D57",
"K. c #84725C",
"L. c #8A7459",
"P. c #927B5C",
"I. c #987E59",
"U. c #847463",
"Y. c #8C7B64",
"T. c #857869",
"R. c #8B7C6B",
"E. c #937E63",
"W. c #947E66",
"Q. c #857B72",
"!. c #5E812D",
"~. c #5E8134",
"^. c #5F823A",
"/. c #67892E",
"(. c #638235",
"). c #698537",
"_. c #668837",
"`. c #6A8B36",
"'. c #64843B",
"]. c #6A853C",
"[. c #66893C",
"{. c #6B8A3D",
"}. c #708A3D",
"|. c #6E903E",
" X c #73913E",
".X c #5A845B",
"XX c #658441",
"oX c #6B8542",
"OX c #668942",
"+X c #6C8B43",
"@X c #668249",
"#X c #6D8C49",
"$X c #728546",
"%X c #728D44",
"&X c #738E4A",
"*X c #798A4B",
"=X c #6E9144",
"-X c #6E9149",
";X c #729245",
":X c #74934B",
">X c #7A9749",
",X c #76994D",
"<X c #6F8D50",
"1X c #768753",
"2X c #769452",
"3X c #7B9456",
"4X c #759852",
"5X c #7C9C53",
"6X c #7FA052",
"7X c #728865",
"8X c #75AB75",
"9X c #828959",
"0X c #9A825E",
"qX c #829753",
"wX c #A4875D",
"eX c #84A459",
"rX c #98BC5A",
"tX c #898666",
"yX c #988365",
"uX c #9A8464",
"iX c #94836C",
"pX c #9A866C",
"aX c #9D896E",
"sX c #8C9567",
"dX c #948473",
"fX c #978776",
"gX c #9C8A73",
"hX c #9B8C7A",
"jX c #9F907C",
"kX c #A38B6A",
"lX c #A18D74",
"zX c #A08F7C",
"xX c #A59275",
"cX c #A4927C",
"vX c #AA9578",
"bX c #B09872",
"nX c #8EAB66",
"mX c #97B569",
"MX c #9A8D81",
"NX c #A39483",
"BX c #A79885",
"VX c #AA9A84",
"CX c #AC9C8B",
"ZX c #B09E84",
"AX c #D4F894",
/* pixels */
"0.,.:XP 4.<.| 4.'.$.#X| ..<.^.4.^.|.+X!.OX^.'.+XT ).:X].X.{.`.@.[.;X<.).,.$X+.4.=.<...4.+X'.| [.4.(.(.2.2.{.*.$.4.;X<.[.*.X.0.M.",
"oXX.4.} OX$.*.'.,.A X.3X#XX.4.X.~.@.~.^.^.!.^.-._.;Xq.8.>XOX[.-.1.*.8.(.0.<.$XoX3.4.:X+X4.:X:X*.oX4.=X(.2.+X'.;X;.[.3X$.0.4.oXOX",
"oX,.5X'.,.oX*.[. .'.} ,.4X*.'.X.1.6X~.OX~.OX-X1.`.q.>X(.[.;.~.'.5X'.+X+X'.=.&X'.X.oX^.4.'.^.#.'.+X{.:XP (.*.P  .=.[.,.oX'.4.<.#X",
"'.0.<.oXP #X'.,X4.(.<.'.XXOX<.[.@.,X#.^.^.~.~.4X=.{.].].%X;X(.;.X.%.=.:X].8.*X&X0.+.+X4.nX=XF ^.;.A @.2.%.:X$.X.oX:X'.XXnXP <.,.",
"'.<.:X<.+X+X-. .4.*.#.:X<.X.4.OX^.@.=X1.OX^.0.0.oX}.:Xq.).).eX-.eX'.].O.oXq.6.*X).o.0.<.^.^.OXmX@.6X~.1.~.A ,.[.;X:XOX1.A #.P -.",
"4X'.4.| :X .#.5X2.OX'.:X<.mX'.{ 6X4.1.^.,.4X'.XX<.'.=.%X8.'.2.~.Z -X%.o.8.:X].8.%X0.0.O.#.XXD ,X*.1.6X~.~.*.Z %.4.P -.@.^.@.{.~.",
"<.X.[.*.2.'.=X~.-.~.^.*.'.:XX.OXXX4.1.XX^.,...*.+.8.+X).o.;.[.X.(.-.<.'.%X*XL 7.4.2.XX'.-XF #.5X=XD ^.~.A $...+.*.4.-.#.F @.=X~.",
"+X'.oX-.*.=X@.'.(.-.U 1.#X2XnX$.^.4.XX4.@X,.oX0.oX{.8.2. .,XP ;X-.~.].).>X).*Xq.<.#X+X*.@.^.4XA =X=X~.^.<.;X'.P <.-.D ~.!.F D -.",
"1.5X6X'.!.#.'.OX2.*.-X4X#XoX4.'.^.'.<.1.OX2X,.'.&X*.:X2.].<.4.'.OXXX;.5Xq.6.7.$X$X=.0.3.OX'.XX4.'.4.:.#XX.P o.0.I I 2.*. .+X@.!.",
"4.oXXX+X~.-.=X!.OX:.:.E :.>.) ) z.! i._ _ _ z._ _ _ ) ) ) >.) _ ! _ ) _ ! ` ! _ / ) ) u.! ! ! b ! b ! J ! ! ) O.,.eX-.'.{.~.-X[.",
"^.4.^.+X#.F -X!.X.b c x d x j f c c p 9 x c c x d p x x p u q d x x z c x z x x B q > p r p w d u u q 0 q M _ ;XX.eX'.X.-X#.~.^.",
"*. .~.| ^.^.[.!.X.c x z q q u q w w n B f d d d 8 2 2 2 < = 2 q u u q q 1 a c B N m M v v m 1 2 u g s u f W z.<.$X$.;.'.~.F OX[.",
"*.XX'.-XF #.~.,XXXt.y.N W M t.a.k.V.F.U.F.C.k.A.( ^ t.d.( ( h.V.V.A.C.Q N F.S.U.U.H.Z.Z.J.C.] t.A.Z.b.~ M e.>.,.2.&.4.'.F -.| { ",
"4.,.*.4XOX~.^.~.z.R.dXT.fXD.T.dXQ.W.R.MXfXdXfXdXb.b.R.iXW.W.pXpXhXjXzXR.S.MXNXlXpXuXL.E.pXW.j.J.iXY.K.f.M ! i.*.:XL *.4XA OX4X^.",
"X.OX4.1.^.-.~.~.1XjXhXhXzXY.dXzXMXNXNXNXR.zXhXgXC.J.vXlXW.kXlXNXVXBXVXK.A.VXVXVXpXzXlXP.zXzXZ.Y.zXhXK.h.e.e.m.o.5XX.:X'.| >.X.4.",
"4.oX#X-.#.!.#.#.N.tXR.Q.pXK.T.R.T.Q.fXR.R.T.U.K.C.d.Z.C.J.n.A.J.T.T.K.d.p.C.C.J.A.V.S.d.h.A.N p.f.k./ M W Q ` $.;.%.+X[.3Xx.<.S ",
"'.XX[.[.*.<.*.-.,.! v w.v q B B c x b w.w.V c c p n c d B x c c x v c w d c d d p p e t i j > , q 2 > k Q W z. .*.[.~._.*.1.A XX",
"[.2.4.2.'.eX@.*.,.f p 0 > e q e p e q w p e q 2 1 q 1 q q 1 w q q w 1 q q a u d u 2 % t H l.G 3 = 2 = f B r.z.+XD -.{.U (.| 1.x.",
"$.[.$.2.^.U *.-.X.b g B j 6 s b v d j s f m m n a m e.a.a.f.k.k.f.f./ m N f.C.h.p.! G G K 8X8Xc.J i 3 s e.i.m.2.-.-.@.|.1.X.4.,.",
"~.=X~.2.:X,X-.4.3.G.S.T.S.h.g.T.G.G.U.Z.J.K.Z.H.d.U.W.Q.fXMXMXhXdXaXW.C.k.pXE.P.Z.z.H G H .X8X8Xl.l 7 b Q t.i.~.@.@.~.$.'.2X| XX",
"~.!.[.=X=XX.'.4.>.R.K.dXiXZ.A.dXhXzXgXuXpXzXcXlXJ.R.NXBXVXCXZXvXE.I.W.L.j.E.kXpXD.K h h ! z._ .XK 4 4 J r.a.z.5X(.*.*.{.U '.X.XX",
"U *.~.@.P #.4X#.m.T.J.R.gXb.J.W.dXpXL.J.P.lXzXcXb.J.zXzXW.gXzXE.H.L.L.j.( b.n.J.Z.) h u a.r.! h y h 3 v / r.' ;.*.*.=XU (.*.1.#.",
"=X$.:X2.^.;.#X4.O./ M V Q k v B B N v g N B B y.B w B w.c B B c d B B d e f p G :.G 7 % 1 > - = 3 i < M r.y.z.S ;.eX$.;. .OX2XXX",
"'.[.{. .[.;.<.P 4.j w w 2 0 p z w w q w w w f d : : e w e 9 q q w q 1 % $ < 0 4 K y * # % - X X * s s W i.a.i.(.Z ;X[.=X'.oX5X,.",
":X*.T 8.L +XT ;.} 8 < ; 1 < < > 1 1 1 1 6 s a 6 2 6 a 6 a 1 6 6 a n k s 6 6 ; 7 G 5 6 5 2 ; G 4 ; W k W r.y.) O.eX#.+XP _.1...:X",
"<.5X+.8.).+X .8.4.p./ ` f.h.f.h.d.( ~ d.b.j.d.j.Z.A.b.j.d.( K.Z.S.J.Y.L.n.Z.[ ^ m n ] ] p._ K G 7 W v Q Q W ` ..(.Z P T eX$.oX'.",
"7.O.8.0.eX2.[.:X0.U.K.W.dXQ.R.hXpXK.~ K.uXI.W.aXhXNXcXcXY.C.pXlXgXaXxXkXwXI.L.n.~ ( J.Z.i.K G 4 s Q v l ~ / ` S [.;.5X:X:X@.5XOX",
"eX6.%X:X2.~.T 2.m.hXdXdXhXdXaXiXhXK.[ L.I.kX0XaXcXCXBXcXpXV.W.kXzXpXkXkXI.H.L.j.m ^ j.C./ l 3 6 M p.N m / p.' <.OX'.{.$.-.oX2.4X",
").:X;.=.%XI +X~.*.g.g.f.k.k.k.f.a.a.v r.t.] ( y.a.k.y.a.a.v B e.t.N N ( m n N n ; 2 s u 1 O ; k W i.W N / r.i.X.U -.P %.'.X.-.'.",
"*X).).%.U +X-X'.4.J 9 e r 9 q p q : 0 9 e w w q e 9 q 2 : q 9 q & - 1 1 2 2 1 & o O 3 * * 3 h b M b 5 ; Q p.' 3.*.T 4.:X@.=X-.~.",
"{.).;.{.'.+X1.| ,.l : 9 9 q q q - : : q q q q > : > 1 - - : - - - % ; - - 2 1 - * 4 H G G G l j 6 O o - Q i.i.,.(.&.(. .1.-.eX,X",
"`.).5.;.;.(.'.P 1.J M W b M Q W m M ~ n m ^ ^ ~ ~ N ( p.d.n n n n m ~ N N ~ t.k 7 3 4 G G 8 w.V V g g k e.t.' 4.(.~.X.[.@.2.{.>X",
"{.7.%X8.,X!.>X,X2.D.Q.Q.T.T.R.U.T.R.W.[ h.Y.W.W.P.U.dXlXwXH.] ~ [ H.H.H.H.U.f.v l 4 3 G G l s.s.y.w.N w.t.` ! '.(.(.I 2.;.;X%._.",
"7.].).&.`./.Y Y 3.dXhXNXNXzXpXMXNXBXcXZ.S.NXxXzXhXfXcXcX0XI.n.^ H.I.I.H.J.K.e.f b l h H G N s.s.w.w.B y.Q W '  X*.OX{.(.{.{.).`.",
"].3X;X~.Y =X!.~.@XQ.G.Q.Q.T.F.F.G.G.F.C.k.F.F.F.A.V.A.S.b.[ ( N N d.d.^ W Q i < d 7 3 G v s.k.s.w.B B w.N W ' O.].eX(.:X6.].8.Y ",
"}.=.-X6X[.[.!.!.T b r 9 e e e e z p q 9 e e w w 9 9 r z u s : & > 1 & @ # , , , % o ; 6 e.s.s.w.w.B B c W W ^ :X).{.*.8.>X}.%X].",
"8.nX+X+X^.#.~.@.'.j 9 q 0 0 q w 0 q # & q : 9 9 9 & & 9 0 # X % % # @ X * 3 * + o ; 5 u c w.c f x d w d W / ` } 7.qXY 7.].0.%X+X",
">XI #X*X1.4X~.=X1.) f.g.k.s.m a.g.a.2 : % # $ # $ # % : : % o o o o o o # *   o - 6 ; o . X . . X @ . - Q ^ v.,.%.qXqX6.].qXT +X",
"$.'.X.-.^.~.%.[.+X[ Y.dXfXT.C.W.R.T.N d f a 2 1 p x c f z j b u.2 > > q 2 2 t 2 2 ; % # # # X X X X X % m ~ i.'.I 7.7.=.oX<.<.1.",
"~.:X:X4.OX^.~.=X=.[ pXNXNXdXj.aXgXdXy.p x c q q r x p w r z c.c.K < 0 w q 0 u 5 u > - 1 1 2 w 1 1 1 1 w W / ' '.nX7.q.q.*X[.4.#.",
";.=XXXOX#.OX^.-X].[ yXxXhXT.j.uXlXgXC.B > % & & & 9 $ & 9 G l.K t $ & @ @ = 5 q u q > % & : q > % 9 q d R r.p.3.q.I q.7.6.0.&X#X",
"(.2.4.S @X4X1.OX} [ b.Z.C.j.d.uXuXE.K.w.- & & $ $ $ , t $ G c..Xt $ @ @ - 2 2 > : & @ # : % @ + $ $ $ u Q r.i.+X+.q.6.q.,.O.0.O.",
"#Xx.X.&X^.OXOX| E [ W.pXpXdXZ.aXW.P.Y.a.f a & & $ : y H y K 8X.X$ @ $ : 2 < : % > % + @ % # + $ $ $ : b Q Q ` +.q.7.q.+.q.3X3XoX",
"].mX4.4.@X{ F #.<.h.kXxXxXlXC.pXgXE.W.k.f.e.1 & & t H K y y l.u.: + % 6 1 : & $ # @ # : $ . $ & 9 9 < b W / i.9.$XqX*X7.N.XX4.,.",
"q.XX0.@X| XX4.-X1X` yXvXvXlXb.b.K.Z.U.t.C.a.% o , h H y 7 O 3 ,   # ; 6 > # % # + + % % . . . + $ d s g M / ' #Xo.].q.0.:X&X,.eX",
"<.@X<X#XXX^.<.oXM.v.yXxXvXvXA.b.Z.j.C.Q b.f.= o 3 h t i 6 6 = % = ; - % % # + + @ $ % X   . . . . f k g R Q ` oX<.oX3.:X<.oXM.X.",
"N.N.0.M.:X#XoX4.+.j.kXbXbXvXF.W.lXE.pXF.Z.g.i , $ 0 0 0 > < - 2 5 ; = . + # X X X - - X . O # # a N 8 k N M p.0.4X<.:X^.0.+XoX:X",
"3X1...@X,.4.:XXXq.[ I.kXbXxXj.Y.kXkXhXD.h.d.b i @ + @ @ % @ % ; ; 1 2 : : > 2 1 > w q - - u s v M Q s 5 i M ` ,.U F [.1.,.XX&X0.",
"X.4.q.M.x.X.qX>.1X[ 0XwXwXkXb.P.kXkXhXU.( d.t.N w @ @ # # = ; , & > 9 q > # $ # @ > 9 $ 9 t i f j f 3 - 5 ! i.X.#.[.,X-.OXOX^.@X",
"&X0.>.<Xm.x.9.N.0.[ wXwXwXI.j.H.kXlXpXK.J.K.d.a.m $ # o % < > = . . + & + @ + + $ @ @ 0 h 4 t u 5 3 4 h l Q r.@XF @.4.#.*.^.X.1.",
"#X'.<Xx.3XM.6.0.,.' H.L.L.L.~ H.aXxXyXZ.S.U.V.k.W ; = = ; ; : # + . + @ + . + & @ X : K l.G 3 = * i G h l Q / ..-XOX| ^.#.[.*.^.",
",.<X>.M.M.9.oX6.1X( ~ ~ ^ ] m J.xXaXyXA.K.K.j.h.Q s k 5 , % # # & % + # % & : > : < H l.c.h , 3 3 l h s b Q i.,.~.#.^.4.5X'.=X[.",
"[.4.oX,.M.3XP <.2XA.Z.J.L.J.b.Y.NXcXaXT.K.tXY.D.A.a.C.g.k.p.p.~ ^ ^ ( ( t.p.g.a.a.! ! J J i 3 < a j 7 s Q ! i.} &.2.'.=XOXoX4.+X",
"4.oX4.<...4.0.3.@XfXCXCXCXNXNXCXCXCXcXY.dXvXjXjXBXfXpXhXBXNXyXK.P.yXuXuXP.uXcXcXMXR.F.T.F.V.a.m Q Q s k W Q Q 8.{.4.A D 1.*.OXoX",
"XX#X .4X<.oX<.$.$XtXfXcXNXlXNXCXcXvXZXlXCXCXcXcXyXL.aXxXcXCXxXVXgXxXbXaXtXuXvXvXvXvXxXxXVXBXtXn.K.K.Z.[ ` _ _ 4.^. ./.rXP [.5X3X",
"4.X.OX'.C =.X.3XO.,.qXtXL.B.7XT.sXtXtXsXsXsXtXtXqXB.1X9X1X1X9X9XsXqXB.N.6.N.B.1X7.*X*X*X1X1XB.q.6.mXmX=.<.X.O.'.X.$.I AXA 1.*.<.",
"X.4.Z (.5X~.*.XX<.'.^.[.eXT ;X'.XX<.P 8.%.&.*.%.A *.,.| *.%...=X{.(.$.).*.;.;.=.+X;.8.`.8.).8.$.$.qX:X} #X'.(.=XeXI X.*.<.*.2.8.",
"x.P 2.*.(.+XX.XXP 8.[.-.&._.;XU =.4.,X;.I %.>X).:XX.3.,.*.2.^.8.P *.;.o.;.*.A 8.[.T ;.'.8.=.L >XI I } '.0.;.-.@.A $...eX-.'.'.I ",
"4.,.5XT $.[.4._.2X . .T <.L :Xo.+X)._.{.8.=.2.8.].o.XX,.OX;.%.-.8.*.o.].].O.;.%X8.2.o.2.%X).6.8. . .].'.=.*.,X/. . . XI =.M.4.%.",
"| 4.2.;.:X,.X.| #.'. .=XOXU ;X%. .0.{.Z <.).).:X%.'.+X<.(.=X2.'.eX+X8.8.=.;.'.%.P (.'.,XI =. .+X*.I ;.A ;.).T ~. .[.(.|.'. .4.X.",
"<...<.*.,.P XX,.1.6X#.,.XX| #X;.[.8.2.+.).6.O.(.=.).].].;.8.;.0.(.I (.qX;.8.:XA =X:XXXX.<.o.4.4.4.4.'.{.1.4.#.X.<.S ,.,.{.mX4.2.",
"X.O.,.'.| 4.4.-.*.<.,.eX4.S OXU ;.'.<.P &X0.).*X6.).%.+Xo.2.'.eXY _.).).;.;.'.*.S F X.@.oXP [.#.[.4.$.| 1.^.<X4.#X<.#XX. .%X>.S ",
"X.4.<X'.{ 2X#.'.-.1.{ :.@X3.5Xo.P '...5X).:X:X7.%.}.=.qX`.=.>X%. X`.Y &.2.(.#X..#.OXX.1.1.X.F [.OX{ E #XS | #X4.-.2.*.*.4.0.4.,.",
"*.oX..0.#X4.F '.OX+X| x.X.4X .>X'.*.oX0.=.%.:X].q.8.(._.].8.8.%. X(.&._.=X;X2.<.XX#.4.>.^.#XX.1.#.1.^.{ ^.~.^.~.;.(.{.4.4.,.3.*."
};
