/* XPM */
static char *result[] = {
/* columns rows colors chars-per-pixel */
"64 64 178 2 ",
"   c black",
".  c #130D14",
"X  c #1A111B",
"o  c #1D131E",
"O  c #2B1C1D",
"+  c #3E2613",
"@  c #2E2533",
"#  c #3B3630",
"$  c #62351C",
"%  c #2C4A02",
"&  c #325207",
"*  c #35540C",
"=  c #3B570D",
"-  c #365909",
";  c #3B5A0E",
":  c #375716",
">  c #375B11",
",  c #3C5C13",
"<  c #375A18",
"1  c #3D5C1B",
"2  c #3D6115",
"3  c #3F611A",
"4  c #425E13",
"5  c #425F1A",
"6  c #496D0B",
"7  c #426216",
"8  c #496515",
"9  c #476816",
"0  c #4A6916",
"q  c #44641B",
"w  c #4A651C",
"e  c #466A1D",
"r  c #4B6B1D",
"t  c #516D1E",
"y  c #4E701E",
"u  c #52721E",
"i  c #405E20",
"p  c #744B30",
"a  c #466521",
"s  c #4A6622",
"d  c #466922",
"f  c #4C6C23",
"g  c #4B6528",
"h  c #46682B",
"j  c #4D6C2A",
"k  c #526D24",
"l  c #526E2A",
"z  c #596E2D",
"x  c #4E7125",
"c  c #4E712B",
"v  c #537225",
"b  c #597626",
"n  c #567926",
"m  c #5A7926",
"M  c #54742B",
"N  c #59752C",
"B  c #56792C",
"V  c #5B7A2D",
"C  c #4B6830",
"Z  c #526E33",
"A  c #596F31",
"S  c #567431",
"D  c #5A7632",
"F  c #567931",
"G  c #5C7C33",
"H  c #5D763B",
"J  c #5D7C39",
"K  c #60772E",
"L  c #617D2F",
"P  c #617636",
"I  c #687736",
"U  c #627D34",
"Y  c #697837",
"T  c #61763A",
"R  c #627D3B",
"E  c #6A7D3C",
"W  c #3D3748",
"Q  c #4C4C4C",
"!  c #515247",
"~  c #4A4759",
"^  c #4D4A5D",
"/  c #56515F",
"(  c #5E7C42",
")  c #637C42",
"_  c #697D40",
"`  c #676759",
"'  c #6E6E5F",
"]  c #757666",
"[  c #726B7E",
"{  c gray48",
"}  c #942B30",
"|  c #A46B37",
" . c #A74149",
".. c #996B4A",
"X. c #A17C50",
"o. c #5E812D",
"O. c #5E8134",
"+. c #5F823A",
"@. c #62822E",
"#. c #6B8F2D",
"$. c #638235",
"%. c #698537",
"&. c #668837",
"*. c #6A8B36",
"=. c #64843B",
"-. c #6A853C",
";. c #66893C",
":. c #6B8A3D",
">. c #708A3D",
",. c #6E903E",
"<. c #73913E",
"1. c #658441",
"2. c #6B8542",
"3. c #668942",
"4. c #6C8B43",
"5. c #658248",
"6. c #688148",
"7. c #6D8C49",
"8. c #708646",
"9. c #728D44",
"0. c #798A46",
"q. c #738E4A",
"w. c #798E4E",
"e. c #6E9144",
"r. c #6E9149",
"t. c #729245",
"y. c #799545",
"u. c #7A9B47",
"i. c #74934B",
"p. c #79944C",
"a. c #76994D",
"s. c #7B9B4C",
"d. c #6F8D50",
"f. c #728B53",
"g. c #788D52",
"h. c #769452",
"j. c #7A9552",
"k. c #759852",
"l. c #7C9C53",
"z. c #7B935B",
"x. c #7FA052",
"c. c #819651",
"v. c #829D53",
"b. c #839D5A",
"n. c #82A255",
"m. c #84A25A",
"M. c #89A55C",
"N. c #84A95C",
"B. c #89A95C",
"V. c #98BC5A",
"C. c #84A262",
"Z. c #8BAA64",
"A. c #92A563",
"S. c #93AD65",
"D. c #8FB167",
"F. c #99B662",
"G. c #92B46C",
"H. c #9BB96F",
"J. c #95B671",
"K. c #9DBA77",
"L. c #AFCF7C",
"P. c gray55",
"I. c #A29583",
"U. c #A99C89",
"Y. c #B19998",
"T. c #B4A692",
"R. c #B7A995",
"E. c #BDAE99",
"W. c #C4B59F",
"Q. c #D4F894",
"!. c #C1C1A7",
"~. c #C6C7AC",
"^. c #CCCDB1",
"/. c #CFD0B4",
"(. c #D7D8BB",
"). c #E5E6C7",
"_. c #F4F4F4",
"`. c white",
/* pixels */
"R S i.q J D a J 1.v 7.d g D +.J +.,.4.o.3.+.=.4.r -.i.-.f :.;.x ;.t.D -.A 8.z G N D g J 4.1.d ;.J $.$.G G :.M v J t.D ;.S j R ) ",
"2.j J s 3.v M =.S , j j.7.j J j O.x O.+.+.o.+.B %.t.E U s.4.;.B F M U U R D 8.2.H J i.4.J i.i.M 2.J e.$.G 4.=.t.V ;.j.v R J 2.1.",
"2.S l.=.S 2.M ;.f ;.a S k.M =.j F x.O.3.O.3.r.F *.E y.$.;.V O.=.l.=.9.4.=.z q.=.j 2.+.J +.+.j =.4.:.i.q $.M 7 f N ;.S 2.=.J D 7.",
"=.R D 2.q 7.=.a.J $.D =.1.1.D 3.x a.c +.+.O.O.k.N >.-.-.9.t.$.G f M N i.-.U w.q.R z 4.J D.e.3 +.V , x G M i.N k 2.i.=.1.Z.q D S ",
"1.D i.D 4.4.B f J M c i.D j J 3.+.x e.F 3.+.R R 2.>.i.E %.%.n.B n.=.-.l 2.E P w.-.k R D +.+.3.G.x x.O.F O., D ;.t.i.3.F , c q F ",
"h.=.J a i.f c l.G 3.=.i.D G.=.g x.J F +.S k.=.1.D =.N 9.U =.G O.; r.M k U p.-.K 9.R R l c 1.2 a.M F x.O.O.M & N J q B x +.x ,.O.",
"D j ;.M G =.e.O.B O.+.M =.i.j 3.1.J F 1.+.S g M z U 4.%.k V ;.j $.B D =.9.0.5 Y P G 1.=.r.3 c l.e.2 +.O., v g z M J B c 3 x e.O.",
"4.=.2.B M e.x =.$.B e F 7.h.Z.v +.J 1.J 5.S 2.R 2.:.U G f a.q e.B O.-.%.s.%.0.E D 9.4.M x +.k.> e.e.O.+.D t.=.5 D N 2 O.o.3 2 B ",
"F l.x.=.o.c +.3.G M e.a.e.4.J ;.+.;.D S 2.h.D 1.q.M i.O.:.G O.;.3.3.V n.-.K Y 0.0.N -.G e.;.3.+.;.;.c i.M f k R w w G M f 4.x o.",
"J 2.1.4.O.B e.o.e.B O.M O.;.S M 2.g R ) H 1.q.U =.4.V V x s.O.;.F ;.$.4.K 9.N %.N t.v.l.M 4.=.e r.e O.D M.2.l l M m.B =.:.O.r.;.",
"+.J +.4.c 3 r.o.B O.B x G f 3.=.D J R l D P k R M =.v 4.;.;.G O.4.G M :.9.l 8.t N :.l 2.J ;.t.a.O.c ;.e f U N i.f M.=.j r.c O.+.",
"M f O.d +.+.;.o.G e.;.M ;.=.+.G 4.l =.7.D 8.-.D &.M v B G O.U :.$.V t.-.-.-.b y.%.v G ;.+.c x s.;.3.x q G D 4.V 8.v B =.O.3 3.;.",
"M 1.=.r.3 c O.a.;.+.4.;.3.B ;.+.+.e.x i.b.N -.M U -.$.. . . . . . . . . . %.= 8 k =.V e M x G q r.j t.$.=.$.$.M G V J =.3 F d h ",
"J S M h.3.O.+.O.3 4.;.o.G G x M B d B O.D U z R 9.. . + + $ $ $ p ....X.X.. U G s.V 4.,.O.=.G 7.1.J e.=.M :.G B p.4 M h.> 3.k.+.",
"j 4.J F +.B O.o.o.+.c 3 e.;.;.F o.B :.;.;.=.p.V . + O O + + + $ $ p p p p X.. $.-.r ;.G & :.D -.a J 2.F G $.s.v l.f i.=.s Z j R ",
"J 2.7.B c o.c c o.o.;.e.F 3.x 3.x ;.;.J M U %.. O O + + + $ p p $ $ $ $ p p p . :.e.i.D l.v G :.;.4.v f V :.$.b V M 4.;.j.H S 1 ",
"+.1.;.;.M G M B B e.O.,.F 4.o.o.x B x r :.:.. O O + + + p p ....p p $ $ $ p ..X.. q.:.J ;.B d O.M 3.M i.+.G o.y M ;.O.&.M F , 1.",
";.G J G =.n.x M $.$.B ;.+.O.+.;.x 3 r &.=.. O + + + + + $ p ........X.X.X.X.X.X.... M D f ;.O.=.3.q j 7.J.x o.t.2 B :.e $.d S ( ",
"v ;.v G +.e M B B =.$.B ;.O.,.o.y u.7 =.B . O + + + + $ $ $ p ....X.. . . O O O X.... U &.v B B 3.=.1.c 4.O.o.o.B B x ,.F j J S ",
"O.e.O.G i.a.B J c e.e.V o.*.x.o.o.0 v e.=.. O + + + + $ $ p ....X..       . . . O X.. 4.$.=.$.O.B =.c +.x O.&.o.x x O.v =.k.d 1.",
"O.o.;.e.e.j =.J * 2.=.V @.@.<.t.L G U v 2.. + + O + + + $ p p ..X.. Q Q ! '     p . k f $.=.=.V O.k.d f e x &.x.$.M M :.e =.j 1.",
"e M O.x q c k.c j f 4.M L @.m 6 t.V 8 e.. O + O O + + + $ $ p ..X.. (.(.~.!.`   p . R M $.f ;.=.V e O.e.f B M m M M e.e $.M S c ",
"e.v i.G +.D 7.J M 4.G &.V L o.y b b B i.. + + . O + + + + $ $ p X.. ).).).^./.  ... -.b U q q.V $.M M O.2 ;.;.; V B.v V f 3.h.1.",
"=.;.:.f ;.V D q =.4.$.m u.y v o.e e V f . + O . + + + + + + $ p X.. ).).).)./.  ... G =.=.2.G v x.&.O.x x O.O.&.- e.;.t.=.2.l.S ",
"i.N w U 5 4.r V v ;.f - B n n ,.n n c O.. + . O + p $ + + + + $ ... W.).).).E.  X.. G U 4.V 9.U O.y :.e.x q f M N.j 4.7 ;.F g i.",
"D l.z U %.4.f U O.:.,.$.O.O.a.o.y x e.a . + . O + p $ + + + + $ ... `.).).W.~   X.. r M V =.4.f O.M 9 G ;.=.f a $.- 7 r m.v 2.=.",
"I l U R n.U ;.i.o.x x ;.x x x M B G 3.D . + . . + $ X.$ + + $ p p . } o o W.R.. X.. v G G G M G N.V i.r 7 x j & ;.V l.i.i.x l.4.",
"n.P 9.i.G O.r G e y ;.;.x +.d =.V b R O.. + . . O + $ X...$ p . . } |  .).W._.. p . r O.N %.N v V v 7 G $.i.j F 2.=.:.x B 2.G k.",
"%.i.V N 9.w 4.O.B O.O.c +.c x =.v b M , . + . . . + $ p X....   P.Y. .[ ).W.X . . ,.y ,.$.2.$.%.V V G V j j j j e B q M =.j B =.",
"0.-.%.M e 4.r.+.3.r.3.d O.+.O.q =.-.R ;.. + O . . O + $ p p .   { `.`.W.W.o / . n B v n ;.$.N M :.7 4.b U D D D M r J i.x e.B O.",
">.%.V :.=.4.F d +.k.j j 1.f G B G :.v M . + O . . O O + $ $ p . . # I.T.U.]   ,.n 9 o.$.&.r M V %.V 4.V %.M i S $.b $.f F B m.a.",
"*.%.L V V $.=.q +.F 7.h J M M x M :.a J . . . . + + O O + + $ ..p . .     . . e n n.y b v $.M -.b P :.k G 1.1.J $.O.j ;.x G :.u.",
">.I 9.U a.o.u.a.M =.d i.O.B x O.q O.R J . p p $ $ $ + O O O + p ..$ . . . + . o L.6 L %.G b -.9.G v N >.U =.N ;.$.$.9 G V t.b &.",
"I -.-.b &.#.y y v 4.i.4.v n e V M z l D . . ..p p $ $ + + + + $ p ..$ $ O p + . . @.; L %.-.>.M P U K N %.E 9.y.M 4.:.$.:.:.%.*.",
"-.j.y.G y ,.o.O.O.=.d e.n B v q V o o o o . . ......p $ $ $ $ p p ..p O $ p p . . o o k k U M U J b 0.-.I L -.M -.n.=.i.P -.U t ",
">.N 7.l.;.;.o.o.v J ;.f m y B D o [ ).[ W W . . . . ....$ p p ....p p $ O O . . . [ `.o N -.b J $.=.V :.U 9.w s.%.:.M U y.>.9.-.",
"U S.4.4.+.c O.x 4.M e.,.o.u $.:.o `.[ W.W ).W . + $ . . . ..........O O . . p p . W.[ o U G U M r v v V i.$.N r E c.t I -.R 9.4.",
"p.w 7.q.F k.o.e.O.:.n n *.7 V :.o [ W.[ Y.).W o . O + $ $ . . . . . . . p p p p . [ ).o i.;.N b v U O.$.B j S.M b c.c.K -.v.s 4.",
"v =.f F +.O.M ;.t.e.V o.r u N V o ).[ Y.[ W.W o . . O + + p p p p p p p p p p $ . W.[ o U G N G U >.V M O.O.4.-.w I Y z 2.D D F ",
"O.i.i.J 3.+.O.e.V 9 >.V @.&.p.b t.o W.^ Y.W.o %.. b . $ $ p p p ....p p p p p $ . @ ^ o -.V R 4.G P x.M ;.N.x ;.A.Y E E w.;.J c ",
"V e.1.3.c 3.+.r.4.x G ,.m <.-.G v G o Y.Y.[ o . l.4.. + $ $ $ p p ......p p p O . Y.o O.M U =.q G ;.4.M U G -.D E w E I T R q.7.",
"U G J < 5.k.F 3.5 =.-.:.@.m U 0 B =.M o [ ^ o . %.:.. . + + $ $ + + $ $ p . $ . [ `.o x.=.v q.v G O.B 4.l.5 -.t.z E P E A l R l ",
"7.J f d.+.3.3.d q l %.r K L *.t.M v O.t.o o =.. :.. o . + + $ $ $ p p p . . . . o o j D b s.R U G =.=.f v l.G z E Y _ z _ j.z.2.",
"-.K.J H 5.h 3 c D l M 9.*.%.%.N M $.V n y v v y.$.. . . . . . . . . . . p $ . . ,.&.4.=.i.-.P U k p.7 $.J J J R 8.c.0.P _ 1.J S ",
"E 1.R 5.d 1.J r.f.=.j z >.v k v.k b 0 0 &.@.&.G $.. + + $ $ $ p ........p $ . B y O.e.x V v N D 2.I 4.4.j G D i.k -.E R p.q.S C.",
"D 1.f.7.1.+.D 2.5.b.R R >.*.%.8 G w >.<.y &.o.;.2 . O O O O + O O p ..p $ p . O.&.;.J O.=.q j.R D -.M D J -.7.t.D 2.H i.S 2.R j ",
"_ _ R ) q.7.2.J D ) A q.0.b V K p.i.L L ,.O.e V . O O O $ $ $ $ $ $ p $ + p . =.n ,.M =.R U 2.D l U a R R 2.R =.h.D i.+.R 4.2.i.",
"z.D g 6.D J i.1._ z.6.-.-.p.k %.%.E t.@.<.m $.G . O + O + + + + $ $ + + $ p . J B n.f 4.G %.w p.2.;.R D M b.l F e 3 ;.F S 1.q.R ",
"f J _ ) ( C c.A g.g.) A P P N J j l -.$.$.n m m . O O + O + + + O + + $ p $ . =.M =.=.:.U l :.$.V B 1.J ;.J 3.c M ;.a.B 3.3.+.5.",
"q.R Z f.) H T _ _ T A 8.P P z D l q =.:.&.m y x.. O O + + O O O O O $ p $ + . =.R D i.U L k b v B :.B J G e j 7.3 x J c M +.j S ",
"7.=.f.( z.) T R A T g.I N l =.R M M v ;.4.x t.t.. + O O + $ + + + $ $ p $ + . B G =.f M k V V V e.O.4.G B ;.q f r.3.d +.c ;.M +.",
"S f.Z ) ) T 8.T g.z z z b -.2.7 $.N V s G D ;.f . O + O O + p $ $ p p ..$ + . 4.M V j z M.=.J $.f $.y &.;.$.G B O.c +.J l.=.e.;.",
";.J 2.S ) z.5 D j.8.2.-.>.k N -.V >.i.=.D l a V . + $ + O O + + + + p ..$ + . B f O.3.M g B j.2.J M $.G f $.&.9 V G ) 7.4.2.J 4.",
"J 2.J D s J R T R j.N N U L 4.N &.s.f k D =.l.7.. p $ $ + O O O + $ ..$ + O . o V x x 7.j =.M 7.D b -.=.=.f V &.;.J , , F M 3.2.",
"1.7.f h.G 2.D l 2.P U V L <.G -.b V G 7.V v N U . $ p $ $ $ + + $ p $ + O O . ).o v V r V k -.f V 0 t b J U U J +.f #.V.9 ;.l.z.",
"J j 3.$.% N j j.l M u.%.r v =.7 U G r :.$.,.V M a.. . p p $ $ $ $ $ . . . . Y.`.o &.=.=.J U D U b F.V.z G M l =.j v 6 Q., S M F ",
"j J * $.l.$.M 1.D =.O.&.n.r t.$.R D 7 V b n v b , o Y.. . . . . . . o o o o o o o V U &.U -.U M v c.i.s 7.=.$.t.N.8 j M D M G U ",
"( q G M $.4.j 1.q U ;.B n &.t.e N J s.V 9 b y.%.i.o Y.^ `.^ `.^ `.o V k V M , U :.r V =.U N 4 y.0 w s =.R V B x , v g m.M 1.R 9 ",
"J S l.r v ;.J ;.h.f f r D 4 p.x 4.-.&.:.U N G U -.k o o o o o o o M k -.-.l V 9.U G k G 9.%.P U s f -.=.N M u.@.f f <.9 N ) J b ",
"a J G V i.S j d c =.f e.3.e t.M f R :.- D -.%.i.b =.4.D $.e.G =.m.4.U U N V =.M 7 $.=.s.w N r 4.M w V , V -.r O.f ;.$.,.=.f R j ",
"D g D M S q 1.S F x.c M 1.d 7.V ;.U G z -.P l $.N %.-.-.V U V J $.8 L v.V U p., e.i.1.j D k J J J J =.:.S +.c j D : S S :.H.J D ",
"j l S =.a J J B M F S C.J : 4.e V =.D q q.R %.0.P %.b 4.k G =.M.k &.%.%.V V =.M 1 3 g v 2.q ;.M ;.J v d F +.d.J 7.D 7.j f 9.Z 1 ",
"j J f.=.a h.c =.B F h C 5.H l.k q =.g l.%.i.p.P b >.N c.*.N u.N <.*.t m G $.4.g j 3.j F F j 3 ;.1.h i 7.< d 7.J B G M M J R J S ",
"S 2.s R 7.J 3 =.3.4.d ( C h.f u.=.M 2.R N b i.-.E U $.%.-.U P m <.@.n &.e.t.G D 1.c J Z +.7.h F c F +.h +.O.+.O.V $.:.J J S H l "
};
