/* XPM */
static char *floor21693422512[] = {
/* columns rows colors chars-per-pixel */
"64 64 32 1 ",
"  c #2E2300",
". c #343100",
"X c #3B3700",
"o c #4B2C0A",
"O c #413D01",
"+ c #573713",
"@ c #454103",
"# c #474405",
"$ c #4B4707",
"% c #504C0A",
"& c #534F0C",
"* c #56520E",
"= c #595511",
"- c #5B5712",
"; c #5E5A14",
": c #62421C",
"> c #615D17",
", c #656019",
"< c #68641C",
"1 c #6E4C25",
"2 c #7A572E",
"3 c #6D6920",
"4 c #736F25",
"5 c #7A752A",
"6 c #866238",
"7 c #837F32",
"8 c #957146",
"9 c #8F8B3C",
"0 c #A19D4B",
"q c #A88356",
"w c #B8B45F",
"e c #BC9668",
/* pixels */
"5O&=94*4O**75<X>,>*O-<;o%-55.>*#>668*;::<=4%$&=%X*&<4<&*;>X5X$>O",
"&<O&.=@;3%X-,<-53<>>*3.->3$<%.5>>&353436<%<6<#*$55*O47-3>4#24 >$",
".3<,$@; ;>*9<=4.-%>*>%><X1q &7<-26-5>;4$1:66594-5>45 X3$.%&* $4>",
">$3O**>**7@O>39*%>5$73<48.4$>3<9:2%39-.>;..$;4&59>>5>#O%$<3$$5>5",
"4 #%> +=<86<%<*O,<,.X9e2555*$O.>1q1++#;94334;@8<><$4#79<X&#X42O&",
"*7 .52::8;$2* o%X%3o>182695>%*>%3&9<>939$$*93&-<4->X*O&$7q8%*:X#",
"#<#O,+o11694%O::+X+:6861+8o,3.4>7795>>;;4&$%**-*759 >4O5&*8>>O9X",
"<#O=&==o22>OO6e6*O*O:8q:68869#X*44<3>*4$5%5&.4;5%>34 X44..%O3<5;",
"**%*$O6112:+46-#-6*O59w07:82 1@93>3-%&<5.*>54@q6O<.542XX#X*O.4*$",
"@ 35O;q61826<$%%**OO<4-9@*9<<;3*;>83%7o>4<334864844*03$X%O O$<. ",
"$OO$=6:8162::++6>:.O35*>X@$X9#9*38.6* >>>*59816e+ %8>%*5.O>#%X%>",
"*<-O**82662:11124-9>#9<$X$9;;w3-3<>;<*&+4<3#4<7*51%*.59.<O**%O5>",
"3> *340688866822>O%59*5*>***4*o6-O$3;9$1*#-%-43*9<>$o8O#O. >>6 -",
"O$>O%X*e628668o::oo.*q%X$<*5*3;<1:6*;-*1<$>,<><<#%O99#$<&43O*-O$",
"=3q* :2261q812:o+:<<9>;7.4OX5<#1:8627393-5%-&>-#O.>*3*<X#111%O-%",
"-;.$:o161qq6+822>*5O>>%93X99**6-::+6&-<,O$##O%%-4*9># .*&<>+%>.#",
">> 1<+:611q26#5*9.455>>>5>9944<*&<>>>>3>%4O$*OO.O% <85$5%$@OX.5X",
"o:116:122:e24%$5@-*<>;2:%52--9$63<7&5>$.>O4.O787-*9.oe4OX*:6*-o:",
"28q888662>@>9--*4 <3%$%4>3&*9*;6%&<*$<O.O O7 $7%9OO48>*:++281++2",
"166+2*8-O*-O.=*3%99X<5>*>>#@;>*6=%35405-#=O$4OOOX5O<;%5826112+62",
">:o+2:O<.$>>#-;$55%4-.99<4-785*>4<O37>>$*#- ><%=*#-,#Oq.*+:62:86",
"2168+6>3126-% $<*.9@>.:*-#9>><<4O3%%494O.-93$*<3>X5.-94<3*%q*6*2",
":22::-&<8254+<*@<3$;*1285>4540-O333%*>%#>>&>3<%>><X@#<*>*O#%-q*,",
"582+:>;69X$9$9<9=%:oq2e6+7O50.<-$>4= %>5*>>%*>%=O-%9X@,$%. #XOO2",
":61:1<;>-$>-X%>>$**4->%*=4q*#5*<>>>4%>%$X#7<<$$$= 9.;*$O##O<# >%",
"1262:+1-$-2:o11*q.>O<*<5*=X8<.>*<3<<>=<%*.*OO&4O79**9-XO*4>.*>>1",
"22+2116<*:26288q*265.9<*39*;394*>4%$=>&<$.=%&$$>7%40%$O#-6* $#:1",
"81:26626*261211:2222*>O;555X.5-%$O5>59.*%>**$XX><5;-%>66:1:6::86",
"268822682<o*::22:8666o6$999e>,><#X%>$=>&O*&>$.O4#<,>>>o6q2+1:q11",
"+62182:+1:> :6::86611:*95XX4;<4#*343*$&<OO$..54 $&>%3>:12q61281:",
":11:8616q6;<;2219q<1:1:O@<>$,9 <5>4454>+<=->#$<+68Oo:82221:o+266",
"1+289@,45<>>+1e618e6182<%;944*#*OO$-O:68o$#%-%>:1<q8o66:881:112:",
"61661166o==>>16:OO#3=7X8O=>$4>>=>OO4>>+1>6*=9>>66>5=46453>>8<>76",
"288622222&X>6<12=-4=>35.<7*=O#>&%=6>>*>$$O$.&>&2:3O>>%%8>3*6>>*6",
"882686612O$**><145>O=OO>,%$=<..>$O3>:+*3.o>3>$$3><O>3O2&6$%<>66+",
"1188686&:4w9>&5=4=-0=*-&O$8<&==%*&.>:O>34&$>=&8$.>7*.3>6O4782122",
"82616211:>8>34*>5$%6+o>:52:+++$%#%96+8>.=3%>>O7>4:+7$58&<>7$2166",
"162126:1+>&33577>#O<7112X<o16%O>%=386>77&.>*O<O*>1&$> O>>#.&&:6:",
"*>4>O388>>O>533$4<4.99$5=#=:=%>%O:61::34%45*O22*68e474>%%4$=6+o:",
":1663>7>**< 33X+4%$4$.=%>%>%O>$=65216>9>>:>6111263&9X>O>=>36o66:",
"=1>6<>OO4>X%*>*168<<6O&>>O++2o.OO*4940$O94>1686:6XO74=*=>6 3:116",
":>2:9q%44=X9>0&649O-%%>>O%o7o&->XX8>%*>>5>26861o+:8 OO74>::1:O6:",
"8q>%543%781:o63+O<<><O=&$=<6<5&O<>&=O=%<$&8e6688>67>9633816o*6%1",
"6+%%>*=+%O+$5O>5<=5$=>.<=4>O#O>OO>>&=>%><>6111886>o&O3&::616:128",
"88>5> o*6>>=#4<1*>.-%=o+.O$5#.$>=O<>$%666%8818q+888>3>>>66166:68",
">778=12$$955-<7*O%>O>>7<<%>%#<$%<>O%4=>&*<>>+>8O7=O973&3;:6::865",
"3>*3:2>5>*07,-O9OO>44#%&>>><37<.O>3>4>*O%>5>5&35=O>4&*9=>O6+6:6=",
">%OO>04.<34>O<>O>*>OO>5=$-.X4%<9&<>$*3*>9$$739<4>73>9&%>&>>&>$>>",
"28*>*$O$*$>>>>&3$>>4O$4<35X-7$$>*;$$-X,944%<*>3<4O305%>3X<<<44=1",
"6:6+>9$7%$<XO37>>&#57&4,-<7X&7-%;39**9;-;>9>*>#>49&.=X%<-$#<.99+",
"%4>>*3>>3>>39$$4<$<&%>><>#&-<%>9*%95<5<-9*9$#<;974>%>--*34-:=O>6",
"545%%53$$<#53 OO<57q4@4#-$O<&><%X$*3$>;&X8;5-*8-77*7%<=<=*%%<9=%",
"$O><3=>>>*&=4=7%X&=>5&#%58:=-O5>+;>*>542896-*53,>$5=O%>$* #::2.=",
"$O=**$$>%*>9$&>$74%$-4<>>5<<&X&<9*<;5#<9<<--,$997>*44OX95O6*1o+8",
"6%7538*7:O>>#=9&#<>O=<>&%>=$3>=:3*4*59>3;39@*<$>36o-q%=0.<q:11:6",
"%%O=774>4  =>::&O=-O=,><5%3<435>>>X><><4**<5%Xw3O7>7$%>O-<121:,:",
"<;6#5O,<$>OX3*$3<$$&>%<=7<6>O<49#95<>#5%-<X49@56+--$<<-<<#*6-:#9",
"39++>=O5<>4&>>& #X>O%-><%O-9>.%74$;,645>%q,:.<#O#:+$+;*<X#%>,*#*",
"33;39<.->$*7>>>>O>#5>->=4$.X>=<$;O5*%--%9.<5<%3;94X=9;$,*,-;@@O-",
"O>X*-,*>4>XO%<>=-q<#%>>o899#&*-095999*X9,;#;<<*4*,4**9$3<O%-*<>$",
"%O,XO%44O>3>>OO*<O>><>+>oq=5*4%Oq4<X594;$X<O<34 --%-%;1<*$-**%$@",
"X>9#*X,=>7>>757>>44&>->84,=OO<<.54<$*Xq4*5;X#@@9O<*%;*:81X%.$$X<",
"-O3%>oO7773>3O5$%%,3OO<5&<--9 =<-0$9>4#2-X--X-<<*#*%*9$:X$#$*3X-",
"%5<8>.>&73$3>*5>XX-.-<>#&=%=,%$9<+9:>616o<>@*@%#. X*,<#X-;*<O.O*"
};
