/* XPM */
static char *floor1693422511[] = {
/* columns rows colors chars-per-pixel */
"64 64 48 1 ",
"  c #1A2422",
". c #1C2625",
"X c #1F2925",
"o c #232D27",
"O c #202B29",
"+ c #25302D",
"@ c #39392C",
"# c #293431",
"$ c #2B3733",
"% c #2D3835",
"& c #2E3936",
"* c #2F3A37",
"= c #313C38",
"- c #313C39",
"; c #343F3B",
": c #35403B",
"> c #37423E",
", c #454437",
"< c #343F40",
"1 c #3A4541",
"2 c #3D4842",
"3 c #3D4844",
"4 c #3F4A46",
"5 c #3E4948",
"6 c #404B4A",
"7 c #424D48",
"8 c #424D4A",
"9 c #504F41",
"0 c #45504B",
"q c #46514D",
"w c #48534E",
"e c #49534E",
"r c #5B594B",
"t c #495450",
"y c #4A5550",
"u c #4C5751",
"i c #515C56",
"p c #57625C",
"a c #666455",
"s c #5D6861",
"d c #726F60",
"f c #66716A",
"g c #717C75",
"h c #807E6E",
"j c #92907E",
"k c #828D85",
"l c #96A199",
"z c #A5A290",
/* pixels */
"s+>3gp>po11fsu+700>#>u7@;7psO6;;uadh1899t7i;=13;o11uiu1178.s$$7o",
">u+>.2$7i;Oqyu5siii7;iO70i*u;Op786isipidy>udi$1%ss1osf5iup$ai.t;",
".iue-$7 7e1fi5p.7;7>8;8i+rj ;fe7ad7se7s$99ddsgi3s7ss Xi*.;11.*i8",
"0*i+117>1f$oqpf1o0s%fiiihOi%8iif,a,ip6.ee..*7p3sg7qs7*o*$yi**sys",
"p $;0 ,3uhdu;u1Xei0o%gzasss1*+Oerjr,92uspuip7%hu7u%i%fgio>*Xia$*",
"1f .sa99h7$a1 @e=;i@ergadgse;1e;i;gu7fig**3ge=6ip7tO3o1;fkg,39+*",
"$u$+e,@rrdgp;+99,o,,ahdr,h@7iOi7fsff6eius<*;7;6;fsg.tios>7g78os*",
"u$+3>37@aae++dzd;#7o,jk9dhhdf;o7psuie2i%s;a;Opus;8ip OsioO1+iys8",
"1,>>##drra9,pd7$3d3Xsglkf9ha r=fiqi211us.1usp$jdoi.siaoo#O;#Oi>=",
"$ iao7jdrhadu*;;11#ous6f$3fuyep>e7hi;sO7puiiphdihii1ki%+$# ##e o",
"*o+=7d,jrda99,,d89.oif1t$O*Xf=g1qj.d1.7771sghrdz,O;he;6iO+e%;O;8",
"1u7+>>hadda9rrrasyf7$fi*O=ge7li7uu8eu12,iui$iif2sr;1osfoeo;6;$a0",
"i8.1ipkdhhhddhaa8%;sg,s1t>>1p>@d1o;its*r6$7*7ii;gu8%@g$%oO 88d 6",
"+%8#>#>zdahadg,,9@@.1k;o%i1s>i7ur9d3u87ri%8qi8qi*;ogg%%u1ii$17o%",
"7ik1o,aadrjjra,,,9uigttf.soOfy*r9haafisi7s;7;87$oOu1i>eO%rrr;+6;",
"77o*,@rdrjkd,haa81so773fiogf>>d299,d18iio*%$+;;7s6su% O11u8,;8 $",
"87ori,rdrrjad$s1f.issqqes8ffspt2;ueeq7i7;s%-1%O.$;.uka%s;;++O s$",
"@,rrd,raa9zai;%s%77uq7a9;sd77g%diuf>py*.5.s.#akf1;f.@zi+o19d16@9",
"akjdhhddaq$7g731p yp>--i7i;3g17d*>u1=u%.$ Of #a1f#%sh88,,,ahr,,a",
"rdd,a>h7+17O.71i;gf+yp77t8-$787d2;ispks3$1o%i#o+#sOu8;ahadrra,da",
"7,@,a,#i.>7q$77$ss,i7 fgui7fha;7puoif7u=1%3.8u;63%67$oko7,9da9gd",
"ardj,d7irad7- *i3Ofo7o,75$g88eii$i;=pgpO.5gi*1ii8.f.7fiii;;j1d,a",
",da,,7;uhasp,u>*ui>u7raksqsssk7#iii;27;=u71tiu;7uuO%;i166o%;7k18",
"aha,r0edgX=g>fif33,@jaza,fOsk i6=7p3 ;6s166%;e;6o8;fo+8;*  $oo$a",
"9dr9ruqq7%77o>q7*,1i77;77ik,%s>iqt7p;7;*o%feu$*;1 g.e;$$%$+u$ e%",
"rada9,r7*7a,@rr1ko7#e;ii;7+he 8>tiuuy2u;> 1$o;i+ff77s7o+8i7O>qqr",
"aa,arrdu29adahhj3adsoge7ig77igi67p*$2q>u=O6;1%%uf;ik8;+=7d7O%%9r",
"hr9addad7adrarr9aaaa77o7ssaoOs7;*$susg.1;e><;OO8is71;eda,r,d99hd",
"adhhaadhaq@199aa9hddd@d=fgfziu8i#o=e*371$;17% oi#i870e@dja,r9jrr",
",darha9,r97 9d99hddra,7fs+Oi8ui%>ipi1*>y #%OOss %;q1i09rajdrahr9",
"9rr9hdrdjd7y8aarfkur,r,+$ie*qf.uayppsi8,u677%%u,dho@9haaar9@,add",
"r,ahf*iisie7,rzdrkzdahdu;6gii6=1X%=7#9ak@%$=6;rr,ejk@dd9hhr9rra9",
"d,ddrrdd@177qrd9+$-i7fog+3y*iyy1to$i8q,red;2g7ead6s7idssii7hiqsd",
"ahjaaaaaa1X7dura13p57is.if>1+-5311dy83e*%#%O;q<ari#76=;hye7aqe7d",
"jj,hhddrao$11qyrps7O7$*371;,y..7$+i79,>iO@ei7==iqioqi#a7a%;ieda,",
"r,kkdhd39plge;s3p1,k6;31o*gi111111.79$3ip;#77;h*O8s2Oi7a$pfharaa",
"hadrdarr93htip1ys*:d,@8,sa9,,,-;$>ga,hu.7i;q8Osyi9,s;sh1eef*arad",
"raaraa9r,u1iisff7*+yfrrdXu@rd;o7;3rkaeff;Oe1+u#,7r;-u Oee*.;19ar",
">7propjky3$7sii=pyp.gg*s1$595;t1O9dr99ip=is1$aa7djjpsii;*i;7a9@r",
",rddu1a311y iiX,p;-p$.117*t>X7$1dsard3ge79udrrradp>gou$12upa,da9",
"qrudi7+$i3O;3q1rdguud+>e7*,,a@X+$1pgik-ogi6rdha,ao#fi717ed i9rra",
",ia,gj;ip>Og7k>dpg$1>-e3X1@f@158XXgi-1yqsyadhdr@,,g.Oofp799r9od9",
"jj7;api;sjr9@di,+ui7u+>1-3udys1Ouu;7$11i;1hzddhhidfegdiihaa,7d1r",
"d,*;7>7,;$,*s+qsi,s->e.u1iyo$oyo+87=1y;7u7drrrhjdu@1$i;99aaa9rah",
"hgeat @1d8y3$ptr17.3>1@,.o-s$.*y1oe0*:dad;hhrhj@hhj6iu7qahraa9aj",
"qffg3ra%-gss5if1$:y+qqfuy;y-$y*-i7$;i7y11uuq,qkos7ogfi;i79d9rhdi",
"iu1i9a7s31kfe1$gX$7pp$>>8qyuifi.*7i7p72o;6s7i1is3%>a>2g7uOd,a9d7",
"0-X%ekp.yipyoy7oy17X$es1*3.Xp;yg-uq*2i17g=;figup7syyg<-q<7u1y=7e",
"aj:73$$*1*e7781u*7qpO-puiso3f-$7>e;=7Oufpp:e>0iis%uka;6iXtyips5r",
"d,d,7g$f;$uX$ist7:*sf>p77efX2f3:7pf>2g63eife70$eig1.1o1i8$=t.ff,",
";pu71iq7iy7ig*;pi-y--q7i7*17y:yg>;gsusi3f7f>$i0fssy=877;ip797%ud",
"spa;>si**y*si.o$usfjp*p*7*oy18y1o=2i=761ogep2>h7gs1f;t7i11;;yf31",
"*+yyi17e6113p1f;o11ys>$:sg937os7,yq;8spdhgd76pii3;s3o1q*>o>,9a.3",
"$$311=*t>26g*1t*fi>*7ii70auy1X1uf6u7f=ufuu,77*gfse1psoofsod7r@,g",
"d;fsig,f9O7q$1g>+u7+2i77:87-i859i1i7pfei6if=>i$eidX8k;6kOij,ra,d",
"*;$1ffp7p  2799>$>7$10eus:iyiis877Oei7ep22is;Oli*stf%17#6erar,er",
"ied$s+eu*7OOi>$ie*=-q:i>fyd7$yig%fsu8=s10iopf*sd,77*uu6ei+;d79;f",
"if,,q5osi7p>eu> $o7$=70y:$7g7.1fp>8idis8>k09.i%#$9,*,e;io$;0e>%7",
"iiqifi.7e*2fet7u$7$s770>p*.X81y$eXs7137;fXusi*i7fs+,g7*0>e77$$o8",
"oe317u>qp7O#*u73qky$:e7@ggg$>15kgsgff3oft8%8uu2i2qi6;g*ieo;71ee%",
">*;X#qpp=7iye$#>iXy5i7,7@k>a1i1%jsuoffsq$Xu+yis 31>7>8ri;=8;1;%$",
"Xt3%=%73ef7epsse7pp177qhpt6$oii.sii11okp1s8X$$$foi1;069hro;O**oe",
"77p1;7*sfsi3pOs;>;yi*ous>u7,f.1u1k*fep*a3o75o1yi1$1;>f;,$%$%>iO6",
"1aig7<e>fi%ie2puOX3.3u7$>3>331-gi,h,edrd@yt#1$;$ .X;ee%O661e+OO1"
};
