/* XPM */
static char *c5f5203fdd0d4056e0ad2b3c131247e7lkBGVtNzMM5nVd4k[] = {
/* columns rows colors chars-per-pixel */
"64 64 6 1 ",
"  c #3E575E",
". c #4A6371",
"X c #536D7D",
"o c #5C7689",
"O c #658095",
"+ c #718CA1",
/* pixels */
". .XooOOoooOO++OOoooXo. .. .oX..oXX.XoXooXooO++OoOoXXooOo ..XXXo",
"oooOoXOOOOooo.X.XooOooo.ooXOX..XXXoOO oooXOOo.XX. ......XoXoXXOO",
"XXO++X..O..XXoOooOOXoOooOOOXoOOX.  ooX+ooXXoOXXooooXX.X..oOOOOOo",
" .X.O+OooOX. .X.XOOooo.oOO. ...oooo.XOXXXoOXoOX. .X.XoX. ..  .X.",
"O.Xo  XX.XOoX..XO..oXXXOoo+Oo..XoOOOOooXOooo  .++OOoXoXXOooX. .o",
" .OXOoXOOOO+oXoOOXoOOOOXoo.OX.. XX   X  .  .....XOOo+X O+O+++OoX",
"X+XXXooooXoooXXOO+X..O..XXXXo... .OoXooOO+XXoooXoXoOOoX.oX.XXoOX",
"OoXX..oo.Xo....X.++OooOX...o+XO+OOOOo...Xo.   .. ...o++oooX.  .o",
"XXoOOoXXX  ooOXXX  .X..OoX.ooOooO.   o+O. XoO+o.oXXo. ..XoO++ooX",
"XoO  X  ..XX ..oooXOooOOooOo..oXXXoooo.X.    X.OooOOoOOoOOOXXOXX",
"XX.XX. Xo++ooXXXo+OOoOoX.Oo+oXoO+ooO+OoOoOOo+ooooOoooO....XooOOo",
". X.oO+OX. ...Xoo      XXo. .XO++O++oXoOoXXo+o. XXXOOXoooX.   X.",
"XX++O. o+OXoXX .  ..XOO....o+OX   . XOOooXOOXXoXX.X. .  .XX.   X",
"X   ..ooXo+OooOoX+O..X.o+OO+++OXXX..X.oOoX.X    X+O+Oo...oOO+OOo",
"+oXXoo. .. ooX.X.      .X oo.oOO++OOO+..oo.XoX...  X+++OoX   .o+",
"+O.X..XX..... .XX.O+OoXoX.XOo.XOooO+O+OX.oOOOooO+OX....X.oXXX. O",
" XXXXoOO+ooXOOO+OOo.XX...X  .X...XXoX       . XX..   .X. .ooX   ",
"XX  XX  ..XX.XXXo...XooOOooX  .OoXX.XooX...oOooX..o++OOX.o. XOoo",
"X .oOo+oXooXXX..Xo..o+OoXXXXXXOooXo..OXXo.X..   .X..XoXO+oO++++O",
"OOO. .  XoXXo      .  XXoOoOOX..   ......XX .+OOOooX. ...  .  .o",
"XXoOOOOXo..++o+o.  ...   ..ooXoOO++OoXooOooo  X. ... ..X..XXX...",
"..O. .oOoXOO   .XXXo..XXo. .X......XO+oOO. XOoo+OXooXooo+OoOX.oo",
"oOooOo .oX......XX.  .oOooXX..X.XXoooXXX..X.XXX.  .oXX.X .XXX+oo",
"OXOoXoXXXOOXXOoOooO.  X .X.o.Xo   ...O+oXo.   Xo.....o++X+OooOOO",
"++oo. .......  XXooO+++ooX++oOOOOOOO+XXoOXXOO++oo+Oooo..  XXXXoO",
". XXooXXXX.XoXoo... ..X.      XX...oOoooXoO.oOoO+o..oXo.Xo      ",
"OOoooOo+++ooooXX.XoXoo...oooX..XXoOXXoXXXX   ...  ..      .XXOOO",
"..oOOOoo...XX..XoXXoX   X. ooooX.XooO+++OOOX.XX.X.X+OoooX+O+oXXX",
"X.     ..   .o+oXOX.XOO.XoX .oOoXoXoX .oXX++O+OXoOXXoX.X+XX...o.",
"oXXoX...XOO+O     .XX.X+OoooXoo..XoX.oX ..XOOoX+OOOoOOX..  XO. X",
"ooo.XXX..XXXXOOOO..  ....X.XOoOo.XX.ooXXooOXoOX.ooXXXoOoXXOoXXoO",
".  .....X....XoOOO++o..oOO++o+OoOOX.oOoXOOo..oOOXoOX..Xoo..X.XXX",
".oXXXooo++Oooo..OX.X+.... .o XooO+++++O..ooOo+OXXXoO+OXXXXoOX.  ",
". .OO.OX..XXXOoOoXoX Xo++XooooXOOXX..XoXOoOoOo.  .XXXXO+OoOoOooX",
"OOo..ooXoXXO+OooOO++ooOoXooOOX ..XXXX...XoOOOoooO++OOOoooo.X+O+O",
"X+oX.OooXX..oXXOOX.X.. . ....oXoX.XOoXXooXo+OOoooX...ooOoXXX.oX.",
"XoOO. .XXXo. ..oOoXooooXo.X..XOOOOOOoXoO+o. oX XXoooooOXXOOoooOo",
" ...oXoX.OOoooOoX+oX. ..XoX...X   X. ...o++ooOoX. XX.oOooOX.OOo ",
"oX..XOOOOOoXoooo.  o+OOOooXXoOoXX  XOX.O. .X..ooX..XoX oXX.XoXO+",
"o.X..o.  X.  . ...XX.Xo.o+XX+OO++OOX. ooooXoOOO+ooXXooo++oOoO+OO",
"XX.X. XOXooOO+OXXoo.oX  . .XXOoX.oOoXOO.XXooOXXX..  .oo..Xoo. . ",
"OOX+OOOOOX...oX    O+OO+OXoOoXoOX .OOOoX..ooX.oo.XoO+XXXoX .. ..",
"oOOoOX   .+Oo .ooOO.XoXoOO+oO.XO++o.XX.XoX XoX .oOX..O+oXoO.XOo.",
"X.XoXXXoXOXX.    ..XOoOOXoooo+OOXoOXXX XoX..Xooo. XXo.XOO.XoXXOo",
"OXoO+ooO++oooo+oOOXoooOooOX .. ..oooo.oOXOOoOOOOoo.XXOOOoOOXXoo+",
" Xo+++O++XXOoXXXOOX .XXoOoXooOOoX. XX++oXoO+oX.  .XXo. .   XXoX ",
"++o.  ...OOooooOOXoXXX..... .XoXooX.XX.o+o .O+ooXo. .  ..o+X....",
"+++oXXX X..Ooo.X.   .O+OOOX..XOOOOOOo.  ..XoXXO+OoOO.OOo.XX.OOO+",
"..Oo++OoO+O .OX.XoX... .O++OOo.   XOOOoXooo .. .oo..o  .   .X..O",
"oX.Oooo++O+XXXOOOOooOOo....X.oX.XX.X++XX...X...... .X..O+OXoo..o",
" XX. .XXo       .  o.X.  .XX  Xoo.   .oXXXOO+Oooo+O++OOX... .o. ",
".  oOXX..oooX..XOooo..XO+OOo.oX..oooXoX .X.  .XXX....... .XoOoXo",
"X.oOoXoX.ooXoXXX..  ..X..XoX+Oo++++OO. XOooOXXo. .ooooXXoOo...X.",
"OoXX.  .......XX oOOOoOXo  ..  .  .XOOOO+++X oO+O++o.oooO+oXo+Oo",
"oX.oOO++OooooOoo..XX ...  ....XX....XXoOo...XOXoooX.XXoo..oOOoOo",
"OoXX. ...X.XoX    .o...Xo...oOoOOOXX..XooooOOOOOOoX.XXX++OoOoXX.",
".XoOoX.  .XooXoOO.XXOOO.XoooXXXXo.oX.XX.O++XooXX..X.    .XooXooo",
"+oXoOOOoOo+oX...XoO.oooXXOoo   ..  ooo.   ..    . .X.oX. XXXXXOO",
"O.oX.XX. .oOOoXooX     XOXXXO+OOO.X...XXXXoX..XoO+OO++OoO+O++OO+",
"XOOOOXo..oX  .X. Xo..X.   ...XXX.OOOO+++OX  X+Ooooo+O++XooooXXOo",
"XoOXXXO+O. XOOooX.oOXoX.OOooXo...X. ....oOOOX  XOOXX.Xo++OX  . .",
"oXoOO. .oOOXX.  ..... ..o....  ... ..  ..XoOoOOo  .oOo+oO+OOOo.o",
"++. XoOooooXooOO+oXXooO+O.o. .....oooOoXXX.oo..Oo.... oX ooO++++",
".oXoOOOOOX  .XXXXo+OOoooXo+oX..OOooOO+oXoo.o.XX  oO+oXoXOXOOXXX."
};
