/* XPM */
static char *floor31693422512[] = {
/* columns rows colors chars-per-pixel */
"16 16 2 1 ",
"  c #2E753C",
". c #4EB139",
/* pixels */
"                ",
"                ",
"..   .          ",
" .. ..     .. . ",
"  . .    . .  . ",
"                ",
"                ",
"       ..       ",
" .  . ..  .  .  ",
"..  . .   .  .. ",
".             . ",
"                ",
"    .           ",
"    .. ..   ..  ",
"     . .     .  ",
"                "
};
