/* XPM */
static char *_cc4c1933c534be58e644ecb68534873YY4lE5xB1vsJiAfs[] = {
/* columns rows colors chars-per-pixel */
"16 16 10 1 ",
"  c None",
". c #17121A",
"X c #753B37",
"o c #2E753C",
"O c #392A51",
"+ c #FB6060",
"@ c #37378E",
"# c #316BD2",
"$ c #FC9D81",
"% c white",
/* pixels */
"   ..........   ",
"  .+$$$$$$$$+.  ",
"  .$..$$$$..$.  ",
"  ..%%$$$$%%..  ",
" ..%..%$$%..%.. ",
".$$%oo%$$%oo%$$.",
".$+%..+$$+..%+$.",
" ..$%$$++$$%$.. ",
"   .+$$$$$$+.   ",
"    .@O++O@.    ",
"   .@@@@@@@@.   ",
"  .@@O@@@@O@@.  ",
" .$$.@@@@@@.$$. ",
" .$+.######.+$. ",
"  ...#@..@#...  ",
"    .X.  .X.    "
};
