/* XPM */
static char *eb8c0388e5f04195ee6a66a0b4c9a22cKQi68OhTLuZqRVNR[] = {
/* columns rows colors chars-per-pixel */
"64 64 186 2 ",
"   c #25191F",
".  c #271620",
"X  c #2A1B24",
"o  c #361625",
"O  c #341C25",
"+  c #3B1C27",
"@  c #3C1C2A",
"#  c #1D2720",
"$  c #1D3523",
"%  c #262521",
"&  c #2B2723",
"*  c #252C22",
"=  c #2B2B23",
"-  c #312525",
";  c #332D23",
":  c #3C2429",
">  c #3C2A2B",
",  c #253424",
"<  c #2A3324",
"1  c #233925",
"2  c #2F3A29",
"3  c #39302A",
"4  c #3C2535",
"5  c #3B2C36",
"6  c #373336",
"7  c #3B3335",
"8  c #47182D",
"9  c #431D2C",
"0  c #4F1D31",
"q  c #541B34",
"w  c #591C36",
"e  c #5D1C39",
"r  c #661E3C",
"t  c #6A1E3E",
"y  c #721E3C",
"u  c #43212C",
"i  c #4B222F",
"p  c #462B2C",
"a  c #41302E",
"s  c #442434",
"d  c #4C2432",
"f  c #442934",
"g  c #4D2A32",
"h  c #442638",
"j  c #4A253A",
"k  c #542532",
"l  c #522A33",
"z  c #592C32",
"x  c #54273B",
"c  c #5D253C",
"v  c #5B2D39",
"b  c #433233",
"n  c #4D3333",
"m  c #423E31",
"M  c #4A3E33",
"N  c #553636",
"B  c #602E33",
"V  c #63233C",
"C  c #69223E",
"Z  c #612A3B",
"A  c #633336",
"S  c #6C3636",
"D  c #683937",
"F  c #713B36",
"G  c #244429",
"H  c #284029",
"J  c #254C2C",
"K  c #2B4C2D",
"L  c #25532E",
"P  c #2A522E",
"I  c #3C4C32",
"U  c #2C5430",
"Y  c #265B31",
"T  c #2A5B32",
"R  c #355536",
"E  c #325A33",
"W  c #3D5C37",
"Q  c #335D39",
"!  c #2A6334",
"~  c #2B6937",
"^  c #2C6E39",
"/  c #366437",
"(  c #34673A",
")  c #2E753C",
"_  c #31743D",
"`  c #39713C",
"'  c #444433",
"]  c #475D38",
"[  c #6E4337",
"{  c #436B3B",
"}  c #54613A",
"|  c #6D1E40",
" . c #6E2442",
".. c #742144",
"X. c #792247",
"o. c #7D234A",
"O. c #447D4E",
"+. c #497F52",
"@. c #841F39",
"#. c #8F2039",
"$. c #962138",
"%. c #A42237",
"&. c #83244D",
"*. c #8A244C",
"=. c #8F294C",
"-. c #93254B",
";. c #9B264A",
":. c #94284C",
">. c #A22748",
",. c #A52749",
"<. c #AB2749",
"1. c #AC2849",
"2. c #B52847",
"3. c #BB2847",
"4. c #B12749",
"5. c #B42848",
"6. c #B92A48",
"7. c #C42A46",
"8. c #CC2A44",
"9. c #D42C43",
"0. c #D82F43",
"q. c #CC3446",
"w. c #C03949",
"e. c #D63244",
"r. c #DA3343",
"t. c #D23A46",
"y. c #DF3943",
"u. c #E23D44",
"i. c #CD4349",
"p. c #DC4046",
"a. c #E54244",
"s. c #EA4644",
"d. c #ED4A44",
"f. c #F14E45",
"g. c #ED534A",
"h. c #F65245",
"j. c #FC5845",
"k. c #F75848",
"l. c #FC5D49",
"z. c #FC614E",
"x. c #FC6651",
"c. c #FC6B56",
"v. c #FB6E5A",
"b. c #FC735D",
"n. c #FC7C64",
"m. c #FC7C65",
"M. c #4D8156",
"N. c #54845B",
"B. c #5B8761",
"V. c #5D8863",
"C. c #618A67",
"Z. c #648C6A",
"A. c #698F6E",
"S. c #6C9171",
"D. c #719476",
"F. c #FC826A",
"G. c #FC896F",
"H. c #FC8C73",
"J. c #FC9076",
"K. c #FC957A",
"L. c #FC997E",
"P. c #90A893",
"I. c #A2B5A5",
"U. c #A6B8A9",
"Y. c #ABBBAD",
"T. c #AEBEB0",
"R. c #B0BFB1",
"E. c #FC9C80",
"W. c #B4C2B5",
"Q. c #B6C4B8",
"!. c #B9C6BB",
"~. c #BCC9BE",
"^. c #BFCAC0",
"/. c #C2CDC4",
"(. c #C6D0C7",
"). c #C7D1C8",
"_. c #CBD4CC",
"`. c #CFD7D0",
"'. c #CFD8D0",
"]. c #D2DAD3",
"[. c #D5DDD6",
"{. c #D7DED8",
"}. c #D8DFD9",
"|. c #DBE2DC",
" X c #DFE5E0",
".X c #F4F6F4",
/* pixels */
"R.I.I.I.I.U.U.U.U.Y.Y.Y.T.R.W.W.W.W.W.Q.Q.Q.Q.!.~.~.~.^.^./././././././.(.(.).).).).)._._._._._._.`.`.].].].].].].[.[.[.[.[.|..X",
"D.O.O.O.O.O.O.O.O.O.O.O.+.+.+.+.+.M.M.M.M.M.N.N.N.N.N.N.N.N.N.N.N.N.B.B.B.B.V.V.V.V.V.V.V.C.C.C.Z.Z.Z.Z.Z.Z.A.A.A.S.S.S.S.S.P. X",
"A._ ) ) ) ) ) ) ) ) ) ) ) ) ) ) ) ) ) ) ) ) ) ) ) ) ) ) ) ) ) ) ) ) ) ) ) ) ) ) ) ) ) ) ) ) ) ) ) ) ) ) ) ) ) ) ) ) ) ) ) ) S.|.",
"A._ ) ) ) ) ) ) ) ) ) ) ) ) ) ) ) ) ) ) ) ) ) ) ) ) ) ) ) ) ) ) ) ) ) ) ) ) ) ) ) ) ) ) ) ) ) ) ) ) ) ) ) ) ) ) ) ) ) ) ) ) D.}.",
"A._ ) ) ) ) ) ) ) ) ) ) ) ) ) ) ) ) ) ) ) ) ) ) ) ) ) ) ) ) ) ) ) ) ) ) ) ) ) ) ) ) ) ) ) ) ) ) ) ) ) ) ) ) ) ) ) ) ) ) ) ) S.}.",
"Z._ ) ) ) ) ) ) ) ) ) ) ) ) ) ) ) ) ) ) ) ) ) ) ) ) ) ) ) ) ) ) ) ) ) ) ) ) ) ) ) ) ) ) ) ) ) ) ) ) ) ) ) ) ) ) ) ) ) ) ) ) S.}.",
"Z._ ) ) ) ) ) ) ) ) ) ) ) ) ) ) ) ) ) ) ) ^ ^ ^ ^ ^ ^ ^ ^ ^ ) ) ) ) ) ) ) ) ) ) ) ) ) ) ) ) ) ) ) ) ) ) ) ) ) ) ) ) ) ) ) ) S.{.",
"C.) ) ) ) ) ) ) ) ) ) ) ) ) ) ) ) ) ) ) ^ , = ; * * * * = ; ; = * * * * < < G ) ) ) ) ) ) ) ) ) ) ) ) ) ) ) ) ) ) ) ) ) ) ) S.[.",
"C.) ) ) ) ) ) ) ) ) ) ) ) ) ) ) ! J J J K C #.%.y t t t #.%.%.@.t r r y $.@.v P L L Y ~ ) ) ) ) ) ) ) ) ) ) ) ) ) ) ) ) ) ) S.[.",
"C.) ) ) ) ) ) ) ) ) ) ) ) ^ ! ! I d d O O &.,.3.;.;.;.;.3.8.8.2.;.-.-.;.3.,...% - : 3 E ^ ^ ) ) ) ) ) ) ) ) ) ) ) ) ) ) ) ) S.[.",
"C.) ) ) ) ) ) ) ) ) ) ) ) U = - V o.o.e + &.*.;.8.8.8.9.9.9.9.9.9.9.8.7.-.*.X.o r o...l * 1 ! ) ) ) ) ) ) ) ) ) ) ) ) ) ) ) A.[.",
"V.) ) ) ) ) ) ) ) ) ) ^ H v ..X.o.&.&.o.X.*.<.7.9.9.9.9.a.f.f.f.f.d.u.9.3.;.&...>.5.&...t V ' T ) ) ) ) ) ) ) ) ) ) ) ) ) ) A.[.",
"V.) ) ) ) ) ) ) ) ) ~ U v ..&.,.;.*.,.<.<.<.7.9.u.a.u.a.f.j.j.j.j.j.d.u.9.3.,.,.5.5.*.-.-.o.c m ~ ) ) ) ) ) ) ) ) ) ) ) ) ) A.[.",
"V.) ) ) ) ) ) ) ) ^ L - o.&.*.8.1.-.8.9.9.9.9.r.h.j.j.j.j.j.j.j.j.j.j.h.e.9.9.8.1.-.*.5.7.&.o. .1 ! ) ) ) ) ) ) ) ) ) ) ) ) A.].",
"V.) ) ) ) ) ) ) ^ , % o o.&.-.8.5.-.9.9.9.e.s.h.j.j.j.j.j.j.j.j.j.j.j.j.f.u.9.9.8.3.-.3.7.*.&...  1 L ) ) ) ) ) ) ) ) ) ) ) Z.].",
"V.) ) ) ) ) ) ! U c r r &.;.5.9.7.2.9.u.s.s.h.j.j.j.j.j.j.j.j.j.j.j.j.j.j.d.a.a.r.8.1.7.8.,.-.X.q k M ! ) ) ) ) ) ) ) ) ) ) Z.].",
"V.) ) ) ) ) ) L - o.&.&.&.1.8.9.9.9.e.s.j.l.l.j.l.l.j.j.l.l.l.j.j.j.l.l.j.l.l.h.a.e.9.9.9.8.,.&.o.o. .1 ! ) ) ) ) ) ) ) ) ) Z.].",
"V.) ) ) ) ) ) P : o.&.&.*.*.;.9.9.e.h.j.z.J.m.x.J.m.l.z.F.K.K.m.l.l.m.H.z.F.H.l.j.h.h.u.9.9.,.&.&.&...* ! ) ) ) ) ) ) ) ) ) Z.].",
"V.) ) ) ) ) P N C &.&.*.5.5.3.9.9.0.a.f.l.m.F.F.m.c.z.F.J.E.E.H.m.l.b.F.F.J.K.l.j.j.j.a.9.9.3.,.&.&.o.v I ! ) ) ) ) ) ) ) ) Z.].",
"B.) ) ) ) ^ * V o.&.&.*.8.9.9.9.e.r.y.d.j.l.m.H.z.j.z.L.E.E.E.E.K.l.l.c.L.L.J.l.j.j.j.a.9.9.9.7.&.&.&.o.g J ) ) ) ) ) ) ) ) C.'.",
"B.) ) ) ) ^ , V o.&.&.;.9.9.9.0.s.j.j.j.j.j.l.l.l.j.z.L.E.E.E.E.K.l.l.c.K.m.z.j.j.j.j.a.9.9.9.7.*.&.&.o.d G ) ) ) ) ) ) ) ) C.`.",
"B.) ) ) ) ) ! ' k &.,.7.9.u.s.e.s.j.j.j.j.j.j.l.F.b.z.m.H.E.L.H.m.l.b.F.m.c.j.l.b.m.j.a.r.s.r.8.4.-.o.c I ! ) ) ) ) ) ) ) ) C._.",
"B.) ) ) ) ) ) L + &.5.9.9.a.d.e.a.f.h.j.j.j.j.z.H.m.c.z.m.J.H.m.z.c.F.G.z.j.j.l.m.F.l.a.y.h.u.9.7.;...= ! ) ) ) ) ) ) ) ) ) C._.",
"B.) ) ) ) ) ^ K u &.5.8.9.e.e.e.0.e.r.d.j.l.l.j.z.F.H.l.l.l.l.l.x.J.m.z.j.l.l.j.l.l.j.a.y.j.u.8.-.&...= ! ) ) ) ) ) ) ) ) ) V._.",
"B.) ) ) ) ^ H v ..&.-.,.9.a.f.f.u.e.f.j.z.H.b.l.j.x.v.j.j.j.j.j.l.b.x.j.l.m.F.l.j.j.a.r.y.h.u.7.&.&.o.V ' T ) ) ) ) ) ) ) ) V._.",
"B.) ) ) ) ^ * r &.,.;.-.9.d.j.d.u.r.j.c.m.L.H.b.j.j.j.j.j.j.j.j.j.j.j.l.b.H.K.b.z.h.u.u.a.f.y.7.*.;.-.o.d G ) ) ) ) ) ) ) ) V._.",
"B.) ) ) ) ^ % r -.8.4.;.9.s.h.e.9.e.k.m.K.E.L.K.l.j.j.j.j.j.j.j.j.j.j.x.K.L.L.K.b.j.j.h.f.e.9.7.-.6.3.&.0 G ) ) ) ) ) ) ) ) V._.",
"B.) ) ) ) ^ % r -.8.8.8.9.e.r.9.9.9.y.g.v.L.L.K.l.j.j.j.j.j.j.j.j.j.j.l.c.c.c.c.z.h.u.u.y.9.9.9.7.<.;.o.0 G ) ) ) ) ) ) ) ) V._.",
"B.) ) ) ) ^ % r *.4.5.5.5.8.9.a.s.a.e.u.g.F.F.m.l.j.j.j.h.d.j.j.j.j.j.j.j.j.j.d.d.d.a.a.u.9.7.3.5.;.&.o.0 G ) ) ) ) ) ) ) ) V._.",
"B.) ) ) ) ^ < V o.&.&.&.*.3.e.h.j.h.r.e.y.k.l.l.j.j.j.j.s.u.j.j.j.j.j.j.j.j.h.e.e.u.h.h.f.9.<.*.*.&.&.o.d G ) ) ) ) ) ) ) ) V.).",
"B.) ) ) ) ) ^ K & o t &.*.3.9.e.d.j.h.a.9.e.e.e.r.e.y.j.j.h.j.j.j.j.j.j.j.s.r.9.s.f.r.r.e.9.<.*.o.e @ > E ^ ) ) ) ) ) ) ) ) B.).",
"N.) ) ) ) ) ) ! L X t *.5.7.8.5.w.i.a.y.9.9.9.0.a.y.e.s.s.s.s.h.j.d.h.j.s.y.9.9.u.a.6.5.3.9.3.,.&.q * L ~ ) ) ) ) ) ) ) ) ) B.).",
"N.) ) ) ) ) ) ^ ! : | -.7.8.7.*.-.>.9.9.8.9.9.r.h.s.r.r.e.9.e.d.h.y.d.h.r.9.9.9.9.8.-.*.;.8.8.7.&.w 2 ^ ) ) ) ) ) ) ) ) ) ) B.).",
"N.) ) ) ) ) ) L > o.&.&.*.*.*.*.5.8.9.1.;.9.9.r.h.j.j.h.a.9.9.d.j.j.j.j.h.u.8.;.3.9.8.,.*.*.*.*.&.o. ., ! ) ) ) ) ) ) ) ) ) B.).",
"N.) ) ) ) ) ) J @ o.&.&.&.&.&.*.3.9.9.1.-.8.7.6.a.f.j.a.q.5.5.t.s.j.f.a.i.q.8.-.3.9.9.<.&.&.&.&.&.&...% ! ) ) ) ) ) ) ) ) ) B.(.",
"N.) ) ) ) ) ) J 9 o.&.&.&.&.&.&.4.8.9.1.;.8.1.-.8.a.d.q.<.*.*.5.e.g.p.7.:.5.7.*.3.9.8.,.&.&.&.&.&.&...% ! ) ) ) ) ) ) ) ) ) N.(.",
"N.) ) ) ) ) ) J > o.o.o.o.o.&.&.&.;.8.<.-.8.1.*.*.*.=.-.*.*.&.*.-.=.*.*.*.*.*.*.5.7.-.&.&.&.&.&.&.&...* ! ) ) ) ) ) ) ) ) ) N.(.",
"N.) ) ) ) ) ) ~ E l q q q q e &.&.*.,.;.-.8.7.5.*.&.*.6.3.5.*.,.5.*.&.*.5.3.5.*.;.,.&.&.o.e w w w w n T ^ ) ) ) ) ) ) ) ) ) N./.",
"N.) ) ) ) ) ) ) ^ G * . 8 0 w &.&.&.&.&.-.7.7.3.*.&.-.8.9.8.,.3.7.*.&.*.7.7.3.*.&.&.&.&.o.8 8 8   , J ) ) ) ) ) ) ) ) ) ) ) N./.",
"N.) ) ) ) ) ) ) ) ) J > X.o.&.&.&.&.&.&.&.*.*.*.&.&.-.8.9.9.9.9.8.*.&.&.*.*.*.&.&.&.&.&.&.o.o...* Y ) ) ) ) ) ) ) ) ) ) ) ) N./.",
"N.) ) ) ) ) ) ) ) ) ~ E d ..&.&.&.&.&.&.&.&.&.&.&.&.*.;.,.<.9.9.8.*.&.&.&.&.&.&.&.&.&.&.&.&.C n ! ^ ) ) ) ) ) ) ) ) ) ) ) ) N./.",
"N.) ) ) ) ) ) ) ) ) ! R k ..&.&.&.&.&.&.&.&.&.&.&.&.&.&.&.-.3.3.5.*.&.&.&.&.&.&.&.&.&.&.&.&.r n ! ^ ) ) ) ) ) ) ) ) ) ) ) ) N./.",
"N.) ) ) ) ) ) ) ) ) L a X.&.&.&.&.o.o.o.o.&.&.&.o.o.&.&.&.&.*.*.*.&.o.&.&.&.&.o.o.o.o.&.&.&.o...< ! ) ) ) ) ) ) ) ) ) ) ) ) N./.",
"N.) ) ) ) ) ) ) ) ) ^ ! p  .o.&.c u u u k o.&.o.x j c &.&.&.&.&.o.x j c o.&.o.0 u 9 i  .&.o.V b ~ ) ) ) ) ) ) ) ) ) ) ) ) ) N./.",
"N.) ) ) ) ) ) ) ) ) ) ^ P N C C ' K J J I V r r s 4 j o.&.&.&.&.o.h 4 j r t Z K J J K N C C M U ) ) ) ) ) ) ) ) ) ) ) ) ) ) N./.",
"N.) ) ) ) ) ) ) ) ) ) ) ) K * * ! ) ) ) ~ % . O d s j o.o.o.o.o.o.h d i . . , ^ ) ) ) K = = T ) ) ) ) ) ) ) ) ) ) ) ) ) ) ) N.^.",
"N.) ) ) ) ) ) ) ) ) ) ) ) ) ^ ^ ) ) ) ) ~ # X f S z d j j j j j x D S D 4 X $ ) ) ) ) ) ^ ^ ) ) ) ) ) ) ) ) ) ) ) ) ) ) ) ) N.^.",
"N.) ) ) ) ) ) ) ) ) ) ) ) ) ) ) ) ) ) ) ~ # @ g F B k v g s s s g F S A v : 1 ) ) ) ) ) ) ) ) ) ) ) ) ) ) ) ) ) ) ) ) ) ) ) N.^.",
"N.) ) ) ) ) ) ) ) ) ) ) ) ) ) ) ) ) ) ) ~ # u z S B z S B k d d l S B z S p , ) ) ) ) ) ) ) ) ) ) ) ) ) ) ) ) ) ) ) ) ) ) ) M.~.",
"N.) ) ) ) ) ) ) ) ) ) ) ) ) ) ) ) ) ) ) ! * z D f d d f A S k s 4 k s 4 k + , ^ ) ) ) ) ) ) ) ) ) ) ) ) ) ) ) ) ) ) ) ) ) ) M.~.",
"N.) ) ) ) ) ) ) ) ) ) ) ) ) ) ) ) ) ) ! K : l l 4 d d 4 A S k s 4 d s 4 s u > L ~ ) ) ) ) ) ) ) ) ) ) ) ) ) ) ) ) ) ) ) ) ) M.~.",
"N.) ) ) ) ) ) ) ) ) ) ) ) ) ) ) ) ) ^ J - i b 7 4 d d 4 A S z b 7 l s 5 6 f u & T ^ ) ) ) ) ) ) ) ) ) ) ) ) ) ) ) ) ) ) ) ) M.~.",
"N.) ) ) ) ) ) ) ) ) ) ) ) ) ) ) ) ~ 1 a g 7 Q / n g g 5 A F [ } { [ N M ( R 7 g ; G ) ) ) ) ) ) ) ) ) ) ) ) ) ) ) ) ) ) ) ) M.!.",
"N.) ) ) ) ) ) ) ) ) ) ) ) ) ) ) ) ^ T W W Q ^ _ W ] W Q ] } } { ` } ] / _ ( Q W E T ) ) ) ) ) ) ) ) ) ) ) ) ) ) ) ) ) ) ) ) M.Q.",
"N.) ) ) ) ) ) ) ) ) ) ) ) ) ) ) ) ) ) ) ) ) ) ) _ _ ) ) _ _ _ _ ) _ _ _ ) ) ) ) ) ) ) ) ) ) ) ) ) ) ) ) ) ) ) ) ) ) ) ) ) ) +.Q.",
"M.) ) ) ) ) ) ) ) ) ) ) ) ) ) ) ) ) ) ) ) ) ) ) ) ) ) ) ) ) ) ) ) ) ) ) ) ) ) ) ) ) ) ) ) ) ) ) ) ) ) ) ) ) ) ) ) ) ) ) ) ) +.Q.",
"M.) ) ) ) ) ) ) ) ) ) ) ) ) ) ) ) ) ) ) ) ) ) ) ) ) ) ) ) ) ) ) ) ) ) ) ) ) ) ) ) ) ) ) ) ) ) ) ) ) ) ) ) ) ) ) ) ) ) ) ) ) +.Q.",
"M.) ) ) ) ) ) ) ) ) ) ) ) ) ) ) ) ) ) ) ) ) ) ) ) ) ) ) ) ) ) ) ) ) ) ) ) ) ) ) ) ) ) ) ) ) ) ) ) ) ) ) ) ) ) ) ) ) ) ) ) ) +.Q.",
"M.) ) ) ) ) ) ) ) ) ) ) ) ) ) ) ) ) ) ) ) ) ) ) ) ) ) ) ) ) ) ) ) ) ) ) ) ) ) ) ) ) ) ) ) ) ) ) ) ) ) ) ) ) ) ) ) ) ) ) ) ) +.W.",
"M.) ) ) ) ) ) ) ) ) ) ) ) ) ) ) ) ) ) ) ) ) ) ) ) ) ) ) ) ) ) ) ) ) ) ) ) ) ) ) ) ) ) ) ) ) ) ) ) ) ) ) ) ) ) ) ) ) ) ) ) ) +.W.",
"M.) ) ) ) ) ) ) ) ) ) ) ) ) ) ) ) ) ) ) ) ) ) ) ) ) ) ) ) ) ) ) ) ) ) ) ) ) ) ) ) ) ) ) ) ) ) ) ) ) ) ) ) ) ) ) ) ) ) ) ) ) +.W.",
"M.) ) ) ) ) ) ) ) ) ) ) ) ) ) ) ) ) ) ) ) ) ) ) ) ) ) ) ) ) ) ) ) ) ) ) ) ) ) ) ) ) ) ) ) ) ) ) ) ) ) ) ) ) ) ) ) ) ) ) ) ) O.W.",
"M.) ) ) ) ) ) ) ) ) ) ) ) ) ) ) ) ) ) ) ) ) ) ) ) ) ) ) ) ) ) ) ) ) ) ) ) ) ) ) ) ) ) ) ) ) ) ) ) ) ) ) ) ) ) ) ) ) ) ) ) ) O.W.",
"S.B.B.B.B.B.B.B.B.B.B.B.B.B.B.B.B.B.B.B.B.B.B.B.B.B.B.B.B.V.V.V.V.V.V.V.V.V.V.V.V.V.V.V.V.V.V.V.V.V.V.V.V.V.V.V.V.V.V.V.V.V.A.Q."
};
