/* XPM */
static char *wall1693422512[] = {
/* columns rows colors chars-per-pixel */
"64 64 48 1 ",
"  c None",
". c #2B1C06",
"X c #37270C",
"o c #38270C",
"O c #3A2A0D",
"+ c #3F2E10",
"@ c #432F0F",
"# c #493207",
"$ c #4C350A",
"% c #4F380D",
"& c #50390E",
"* c #422F11",
"= c #443112",
"- c #4A3613",
"; c #4F3911",
": c #543D12",
"> c #583E14",
", c #513719",
"< c #543E19",
"1 c #583F1A",
"2 c #574015",
"3 c #594116",
"4 c #57421B",
"5 c #5B411D",
"6 c #5F481D",
"7 c #63451D",
"8 c #61491E",
"9 c #5F4621",
"0 c #604720",
"q c #654D22",
"w c #6B4C24",
"e c #6F4F28",
"r c #704E27",
"t c #714F28",
"y c #675025",
"u c #695227",
"i c #6C5429",
"p c #73542B",
"a c #73582B",
"s c #7B5A31",
"d c #77602E",
"f c #776030",
"g c #7B6332",
"h c #816935",
"j c #846D39",
"k c #957F45",
"l c #AE9E5B",
"z c #C8BF92",
/* pixels */
"X**X*5,1*.X55,qqqpa9iaq5o5p158u36$6#6#%y$6#u$4#y                ",
"*XXX,q55,..,5,,qqpqq555a5o5p5au&y%#5yqu$3i%6$66$                ",
"X*X.,q559o.X5q5,5qqqq5*qsq*ed70>36:$2&q&3636$uy2                ",
"X*..,5,5q1..*qqqq9pqq5*Xqhipi3lzzll$26:8%36$3uii$               ",
"**..*5**1qX.X5pqq5qq9q**oqwajlzzzzll:5:83%662i6%%               ",
"**.X*5*.9q9X*59pqq551qq+1*walklzzzllll2:26:62668y               ",
"**XXX,*X+qq*,555qq19q9p=aaahkkllzlllkll2$6:2%33326              ",
"*X.XX*XXXqp5*1915qq1q1p9aahkkkllkzlllkhk:6u2y646&8              ",
"*.XX***XXqpq955555q5qq5pqahahkzlkkllhkhhk6i2q:3%3i              ",
",XX**X**X5pp555551qqq55qqaaahhlkkkklk5kahq:6i2i663              ",
",X,,,***X5qpq55q9qwa*,q5ah8hpkkklkkklaqkaa5yq%q623              ",
"5*,,,*.X*55pw55qqqq**5qqaa5pkljlklkkklaahaq56#6q66              ",
"q,,*XX.X*51ete*9pa,*,qqq68qqalljllklkkhaaha,5532yy         3yqy:",
"q,XXXXXX*q5qppq*q,*,1qqq,5qahhljlkkklhaahaq5,5366%q     33u23u2u",
"q,**XXX.5q9qpeeq***555q,515hghzlkahkkkh5hhaq55qq:22%36%q3q$y236%",
"q5*XX*X.551qqep**,,,559,111hksllahahkhka5ahaaqq5qy33%226622:3u82",
"q5*X.**.555pqw*XX,,,,,*5q9,phaklahaakakk5,q5aahhay%&3y:%3382%36:",
"q,*..**.*X555X.**,,,,,*qq,1qaaqlkahahahhh5,,qa5hgayyuu#66&q3$y6y",
"q,*X.X5XXX55,X.,5*,,55,q5,q5ahqhhhqqhhqhkh5,,a5,haa8q&&38%u$y$y%",
"q*XXXX5XX*55*X*qq,,*5*55*555hhaqhhaqha5ahha,,5a,3aaaqq65266q6q$%",
"q5XXXX5XXX,5X,,9,,,**,5,,qq,gaaqqaha5p9aqhaq,,aa,yaaq55:%4%y%y%%",
"p5X.*55*X*1*X+,,,,***555qqq,aaqqqqhha55a5haaa,1qa,qaqq55y%29i$yi",
"eq++=511O15X.X*,XX**,5550q559hqqpqahha5qqphqhq11q5,qqqa5q6u6u4u2",
"iw--$07191*.XX*,XXX,55q,,9,5,apqa5qahaq5h5haqh915q,5q5aq3a4u%uuy",
"0>q1-3aq55.XXX**X*,q0,w,9,,5,pp9,555qaa5qaqpaag1,555hq5a55a3aqq3",
"qiq15q+q5=.*XX*X.,55,,09,,905yp,555,,ah55pq9a5kq,,q,qaaq5,aw<0uq",
":i0q5qq1,.XX.XX.,,X*,*55,55+,5q,,555Xqp515apgy5l5,,,,aa,qq,aqq3:",
"3qq:w5qqX...X..X*X,**,55,5,X,0yy,,q,X55,55qjaa5qh,,,Xqp55qq55q:q",
"$$6%5q59X......*XX***555*,,X50505qp*X5q*91qqaqq5aa55X,q555t73i&2",
"#5i095q5X.....+,,*X**,55,*,**55,5qq*X,5X*5q5q5qq55q5oo*5555a56uu",
"q#6q5qq5.....*5,,**XX*555***o,9**55*X*,*.,55905qq55pqo*oqq@qg7%&",
"8&%317q*...XX*5,**XX**,55**X*,5,X*,XX*,,..5q,5qqqaqaaq*o=aqo8j&$",
"yyq8i7qo.XXXX*X*,XXX,555,*XX*,55X**X*5,5*.X55,qqqpa9ppq5X9p55>q>",
"q-$57qq,XX*XXX*,*XX,q555,*XX*,55*XXX,y55,..,5,,qqpqq195a5X9p>i29",
";:>waw75XX**Xo**XXX5q5,55,XX*,5*X*X.,0555X.X5q5,1qqqq5*wsq=pa6qi",
"zlk>rr5XXXXX*XXXXXX555,,,,*XX,5XX*..,5,5q5..*q0yq9pqq5*o0haauilz",
"zzlleq*XXXXX*XXXXXX5,55,***XX*,X**..*5**5qX.X5pqq9qq5q**Xqadhlzz",
"zzlllkXXXXXXXXXXX*XX*5,5***XX**X**.X*5*.5q5X*55pq0559qq*5@wplllz",
"zlllkll***XXXX*X**XX*5,,***XX*,X**XXX,*o*qy*,555qq9505a*aaphljll",
"lzlllkhk*X*XXX,****X*,5,X**.X,,X*X.XX*XoXqp5*5555q05q5a5aahkjjll",
"jkllgkhhlX.ooX*X*X**X*5,X*,..,5X*.XX***XXqpq555559q5qq5aqahahkzl",
"kkklk1kahq@OXX*XXX**XX*5X,,..,,X,XX**X**X5pp555515qqq55qqaaahhlk",
"lkkklaqkaa5+XXXXXX*,*XX**,,..**.,X,,,***o5ypq55q90qp*,q5ahqhakkk",
"klkkklaahaq5***XXX,,,XXX***.XXX.9*,,,*.X*55pw55qqqq**5qqaa5aklkk",
"llklkkhaaja,5+9*X**,,,X.**X.*oooq,,*XX.X*55tpt*5aa,*,wqq5qqqalkk",
"lkkklhaagsy5,55X**X,,5,XX*X.**o*q,XXXXXX*y5qppq*q,*,1qqq,5qahhlk",
"kahkkkh1ggpy550y**.,,55**,XX5*o*q,**XXX.5y5ypteq***555q,555hhhzl",
"ahahkhka9sgppqw50XX,,55X5,XX55**q5*XX*X.5550eep**,,,555,51,hkhll",
"ahaakakk5,q5aahhaqo,,55X55X*11,105*X.**.555pqw*Xo,,,,,*5q5,pjall",
"kahphahhh5,,qa5hhaqX,q,Xq5*X*,,9q,*..**.*X555X.**,,,,,*qq,50ppij",
"hhqqhhqhkh5,,a5,haaqq5,XpqX.o*owq,*X.X5XXX55,X.,5*,,55,q5,y5ahqh",
"hhaqha5ahhp,,5a,5aaaqq*5eqXXo*orq*XXXX5XX*55*X*qq,,*5*55*555hhaq",
"qaha5a5aqhaq,,aa,qaaq195eqoXXXX7s5ooXX5XXX,5X,,5,,,**,5,,qq,haaq",
"qqhha55a5haaa,5qa,qaqq11qp=o*O*7p5X.*55*.*5*X*,,,,***519qqq,aaqq",
"aqahha5qqahqhq55q5,qqqa9qq9O*==ppqXo*q95o55X.X*,XX**,911qq191hqq",
"a5qahaq5j5hpqh195q,1q9aq1p,9595qte*+*5qe55*.XX*,XXX,55q,,1,1,aaq",
",955qap50aqaaah5,555hq5a55a5i51qp095=1iq55.XXX**X*,qq,q,5,,5,pp9",
"115,,pj15aq5a5ka,,q,qaaq5,aeqi5ie0p558=q5*.*XX*X.,55,,q5,,5q5qa,",
",555Xqp955aahq9k9,,,,aa,qq,aui6u0e9q$8q5,.XX.XX.,,X*,*55,55*,9q,",
",,q,X55,55qhpp1qg,,,Xqa51q75q$u%iy0;85qqX...X..X*X,**,55,5,o,qqq",
"5qp*X5q*55qqaqq5aa55X,q551e7>y#6q&:y5q55X......*XX***555*,,X1q5q",
"5qq*X,5X*5q1q5qq55q5XX*5911p3i:%2y&355q5X.....*,,*X**,55,*,**55,",
"*59+X*,*.,195q9qq55aqX*Xqq*qa::iq33850q5.....*5,,**XX*555***o,5*",
"X*,XX*,,..5q,5qqqaqapq*X=pq+qdqq2%u25wq*...XX*5,**XX**,55**o*,5,"
};
