/* XPM */
static char *wall11693422512[] = {
/* columns rows colors chars-per-pixel */
"64 64 140 2 ",
"   c None",
".  c #041D01",
"X  c #181600",
"o  c #1A1802",
"O  c #201E01",
"+  c #201E08",
"@  c #052402",
"#  c #082702",
"$  c #092C02",
"%  c #0B2A08",
"&  c #0B3203",
"*  c #103601",
"=  c #133D02",
"-  c #1B3B06",
";  c #103708",
":  c #133A0B",
">  c #1A3D0C",
",  c #262402",
"<  c #292701",
"1  c #2D2B03",
"2  c #26240E",
"3  c #302F06",
"4  c #333207",
"5  c #323008",
"6  c #36380D",
"7  c #282610",
"8  c #2A2A11",
"9  c #383B10",
"0  c #154004",
"q  c #1A4304",
"w  c #1E4C01",
"e  c #1B4509",
"r  c #1E490D",
"t  c #1F4111",
"y  c #274706",
"u  c #204F03",
"i  c #23440A",
"p  c #2E440E",
"a  c #264F0F",
"s  c #2A4B0A",
"d  c #35430D",
"f  c #3C440E",
"g  c #334E0C",
"h  c #215004",
"j  c #285007",
"k  c #275900",
"l  c #2B5D04",
"z  c #265409",
"x  c #28570B",
"c  c #2A590D",
"v  c #234515",
"b  c #2F4711",
"n  c #264B11",
"m  c #2B4C12",
"M  c #264818",
"N  c #294B1B",
"B  c #354712",
"V  c #3B4214",
"C  c #344913",
"Z  c #3A4A15",
"A  c #324C1A",
"S  c #3C4E1A",
"D  c #275010",
"F  c #2A5214",
"G  c #2E5810",
"H  c #2F571A",
"J  c #3E5716",
"K  c #315C15",
"L  c #33541B",
"P  c #3D531B",
"I  c #335A1D",
"U  c #3A5C1D",
"Y  c #2E6007",
"T  c #2F6108",
"R  c #306703",
"E  c #336906",
"W  c #32640B",
"Q  c #366C09",
"!  c #396E0C",
"~  c #39700C",
"^  c #376910",
"/  c #3B6B14",
"(  c #3A631E",
")  c #3E7511",
"_  c #365120",
"`  c #3C5523",
"'  c #375F22",
"]  c #3E5B22",
"[  c #3C6125",
"{  c #444611",
"}  c #454914",
"|  c #4A4B16",
" . c #404518",
".. c #4D4E19",
"X. c #435015",
"o. c #42521D",
"O. c #4F501B",
"+. c #52531E",
"@. c #47601F",
"#. c #436C1C",
"$. c #427416",
"%. c #427915",
"&. c #457719",
"*. c #467B1A",
"=. c #497C1D",
"-. c #474E20",
";. c #445621",
":. c #455A24",
">. c #495A25",
",. c #435C29",
"<. c #4C5E29",
"1. c #545621",
"2. c #426626",
"3. c #456F25",
"4. c #4C622D",
"5. c #466D29",
"6. c #51622D",
"7. c #467126",
"8. c #4D7F21",
"9. c #49702D",
"0. c #50782F",
"q. c #4F6430",
"w. c #4F6A30",
"e. c #546631",
"r. c #576833",
"t. c #596A35",
"y. c #5D6E39",
"u. c #5F713C",
"i. c #62733E",
"p. c #647540",
"a. c #49801C",
"s. c #4F8022",
"d. c #538526",
"f. c #56852A",
"g. c #57892A",
"h. c #5B8C2C",
"j. c #5F9229",
"k. c #6C9F36",
"l. c #6DA037",
"z. c #6FA239",
/* pixels */
"          r r Y ~ d.R x ~ W W Q q i o.+.{ Z l %.E E ~ ~ h.) *.u 0 e b B ;.S ;.1.t.| +.| C g h w ) ~ *.~ Y #.:.y.+.<.} | y Y E c ",
"          k = = k.h.E ) ~ l e & q I i.4.| } q 0 ~ W h.~ a.%.w 0 h k m ..1.k.S B r.e.;.f ! =.h h z ! W E 0 0 d +.Z { 6.p c = h Q ",
"        0 ; h k k.k.g.Y u = * : w w ;.S { a Y : l u W l r Y = = h & o } e.k.h.t.<.i.+.m u 8.$.z = r w Y T ) @.1...P } d 0 E h & ",
"        a q h k.k.k.h.> ; & x k e @ d ..O.- e w ) e * ; = r w %.h : - 8.l.h.k.( >.1.] n = u Y R ~ l E T *.d.W o.o.+.6.o.* 0 h E ",
"          & H k.7.8.k.( z u l W & : C | ;.L 0 k u k Y ) E Q Q W h w ' v 7.7.s.H t.;.> u 0 0 %.*.) ) a.Q c Y = m >.+.s.f 2 & % = ",
"        e =.h.7.8.H 7.8.7.I x u z - } S +.l.* w ; w W W R c W . & I k.h.s.v H ~ o.S e k u Y k.F k E Y & q q k _ S l.h.e.O + = & ",
"          N k.h.h.8.h.H ! v # & = 4 y.O.k.k.l.= & & & & ; ; ; & ( 7.( h.8.8.7.~ Y W : 0 z h l.k.& % q 0 0 0 u U k.k.h.9.V , 7 & ",
"        [ 7.H 8.7.h.H ( & ~ c = 2 1 <.k.k.k.l.H * $ ; $ @ & & a.h.7.( ( 8.( ~ h Y m 0 0 = l.l.l.l.I w k x w @ h.7.k.h.I } 6.( o.",
"      7.h.h.( H v ( a a 8.8.Y 0 o 6 u.7.H h.h.( o 0 0 0 : = 0 M h.h.7.v r D D Y Y ~ 8 * l.l.l.l.g.l.D c ~ e s.h.=.I v s.E d.k.] ",
"        7.h.8.7.H H ~ Y Y Y 0 u 1 3.k.8.h.H ( s.7.: 0 & & h t 7.v s.7.7.H ~ h Y 8.Y 0 X 7.l.g.h.l.v e . 0 * 7.( h.=.=.~ W k.k.h.",
"4.| Z I H H 8.7.s.~ 8.h 0 @ Y w   7.( h.7.h.8.n ~ 0 4 4 v D k.( v H ( s.~ s.h Y 0 0 0 I 7.7.7.I j.H g.& ( a.H ( ( h.I Q k.k.k.k.",
"L Z B ( H n v ( a ~ Y h & 0 0 v h.8.( 7.( h.( H & ~ l P B ,.k.( 8.n z 0 Y u 0 & & ~ F l.l.l.g.7.7.7.7.s.( s.7.( v I a W 7.3.8.h.",
"8.P n v n ~ ~ & @ & @ 0 0 h 0 0 h.k.7.H v H a Y s.~ Y Y e.l.l.k.H Y 0 & & & & 0 h @ 7.h.7.l.h.h.7.g.H ( 0 H s.( s.! h.k.h.h.v ( ",
"8.! ! : z Y h h Y 0 Y Y h ~ 0 0 ( 8.k.( 7.H ~ Y Y ~ @ [ k.h.k.h.7.0 Y ~ ~ Y 0 ~ & 7.7.7.7.h.g.s.7.[ H 0 ~ ~ H 7.Y ! ( 3.h.h.h.7.",
"( v u = 0 @ 0 Y h ~ h Y & 0 ( ( H H H h.8.~ ~ h h H h.h.7.7.7.k.n @ u Y u 0 u h 7.h.l.7.s.( 7.H ( H ( s.s.Y Y u 0 i 3.( h.h.7.7.",
"H W ~ ~ w @ @ @ Y Y & h @ ( h.v ( ( v ~ 0 Y h & @ & h.h.h.h.( v [ Y @ @ @ h & @ a g.l.g.7.( ( ( 7.H Y Y Y Y 0 0 u g.k.( ( ( I ( ",
"a ! 8.0 h + @ @ @ @ @ @ ( k.k.8.v 8.z & & @ & : ( 7.7.7.k.h.s.8.~ T ~ @ @ @ & @ l.( s.( h.7.h.[ g.~ ~ ~ h 0 h 0 G h.h.h.[ t M H ",
"~ ! 0 0 0 @ & 0 & & & 0 7.( ( ( Y & T h ! u h 7.h.h.7.7.( k.( ( a h 0 0 & & & ( g.H v s.( h.s.! ~ s.h Y @ 0 h 0 F I H 7.s.8.~ s.",
"Y @ & u T o @ 0 0 @ = 3.8.8.( ~ ~ 0 h h Y Y h ( h.l.h.( v 7.H a T l ~ T 3 0 @ k.l.( t ( v s.z ! 0 Y 0 @ 0 & & h 7.H r v 8.Y ~ h ",
"0 0 & h @ & 4 5 4 o ( I ( 8.( Y 0 Y @ = @ 0 0 v ( 7.h.( ( H ( a T s.~ h = 4.7.l.l.l.8.~ a & & & @ @ 0 Y 0 h 0 ; t I s.H 0 & 0 @ ",
"0 h ~ & & 0 { +.Z 6.h.8.H v a h ~ ~ h @ @ @ I h.v s.( h.8.~ 8.Y ~ T Y 0 O.l.l.l.l.h.h.Y u 0 & & 0 0 & h ~ 0 @ t r Y 0 Y h u 0 & ",
"h Y Y T I @ | S | Z v ( ~ ~ ~ ~ Y 0 0 h l.0 H ( ( H H h.Y ~ h.0 ~ @ & @ A 7.7.7.g.l.H & h u Y Y Y 0 Y Y Y 0 ( l.8.@ h 0 h Y ~ Y ",
"h 0 = @ v s.{ +.I ( a 0 ~ Y Y Y @ 0 h a k.0 v H [ a.t 0 0 0 Y h @ & H 8.l.g.h.7.H 7.7.s.0 u Y Y 0 ~ @ & X 7.l.l.k.7.@ & h ~ h u ",
"Y @ @ I l.h.( ..S 0 Y Y 0 & & & u 0 a h.k.h.v a D D h 0 & & & & h h w v l.h.l.h.7.g.s.H s.0 u 0 & h ~ @ @ 7.H l.8.H & @ @ @ @ @ ",
"@ & 0 H 7.[ H ^ o.& = 0 h T Y h h Y 7.k.h.k.H & 0 & T l T Y Y h T h ( 7.( h.h.h.7.=.( ! 0 & @ @ X & & & j.g.h.( [ s.~ t & & @ & ",
"& 0 D 7.8.7.~ z T e & @ h h & Y @ 7.( 7.H 7.7.0 @ & D T ~ T 0 h ~ h.h.h.7.7.7.8.7.H I 0 Y ~ 0 @ & @ & 0 7.( s.h.s.( H w & 0 @ 0 ",
"& F 8.H H H z Y s.~ v I @ @ @ @ H h.h.h.7.( 5.8.0 ( 7.@ h & ~ & & h.k.k.7.( v H ( v Y ~ 8.Y ~ 0 Y & ( h.( ( [ l.( Y 0 Y ~ @ & 0 ",
"o > 8.7.L z c ~ h = k.8.0 & = 0 ( 7.7.h.8.7.( z n h.k.& @ @ @ @ 0 7.k.7.h.( 7.( 7.( Y Y ~ Y 0 @ & 0 [ g.8.s.t H a a ~ 8.h 0 X 5 ",
"t.I v ~ ~ ~ ~ 0 & h.h.h.a o 3 h.h.( 7.H ( H a 7.l.l.l.8.@ @ & & H ( H 7.7.8.k.( l.~ ~ ~ h 0 Y & X 4 v H 7.7.8.H ~ ~ ~ T 0 H 1.p.",
"/ Y a a h 0 & = 8.( ( H 8.Z +.( l.=.( H v Y u 7.h.l.l.7.0 & 0 v 8.( v 7.H k.( ~ ! ~ & h @ Y 0 1.t.Z s.v I t 8.~ ~ T 0 & h F 1.e.",
"s.0 a h h h h H 8.h.7.7.~ ~ | I H 7.( s.~ 7.h.h.7.7.( ( ( o 5 v v ( ( H H H 0 Y & Y & @ h & W = y.a h.H ( & 0 h 0 0 & 0 0 & ..U ",
"d.a.q @ h h H 7.H ( 8.( a h l ( v H ~ s.~ ( h.7.k.( =.s.~ x e.i ( n 8.8.v @ & @ @ 0 & Y 0 h @ @ t.h.l.h.0 ~ 0 & 0 & T w & & J g.",
"W W r & @ @ ( l.7.v a a Y 8.Y h 8.~ t & 7.h.t s.7.h.7.( z = i.t.X ~ 0 0 h h Y Y = Y & ~ Y @ 0 L 2.7.[ ( l u T ! T Y h h 0 : k c ",
"l Y Q 4 0 & 7.n ~ 8.~ ~ ~ h & = T h h z h.h.7.( H s.v T - ! W = h & h @ ~ & Y Y W h Y Y Y h h 0 3.h.=.~ W 0 & T & Y @ & ; l %.=.",
"%.~ z w $ ( h.0 a ~ Y ~ & & W & & : Y Y 7.s.h.[ v H n h 8.s.Y z o 0 @ & l.Y Y & l & = o & @ ( h.H v ( z h ~ u @ @ @ & & = u k / ",
"l e Y =./ s.z.h.z @ & 0 0 h = @ & @ 0 7.H I 7.8.s.~ s.l T h 0 4 & @ @ H l.s.@ @ & W @ @ & & H h.7.D m u ~ ~ 0 @ 0 & & q ! Q k = ",
"W E W %.0 z.z.h.[ T Y h h T 0 & & & v I H H t s.Y ~ s.@ 0 & ~ o o @ z l.k.l.l.@ @ @ & 0 @ v I v H 8.8.T = 0 = # 0 0 h 2 T Q ! Y ",
"=.%.E : j.7.z.k.H l 0 h 0 @ & o X 0 & H ! 8.v @ & & 0 0 & 0 & 0 3 o 3.l.k.g.7.H @ & & h u v a ~ h 0 0 0 & 0 o o 5 o + h 0 u z *.",
"w Y = l h.7.( H 8.7.& 0 @ & & 5 o @ 0 t a z u h 0 0 0 0 c q $ n 3 5 h.7.7.H 7.s.a 0 u o @ 3 a h h h h h T 0 0 1.e.y.s : h l r = ",
"0 r h z.s.l.7.h.8.H H @ & = o ] r o & & l.& h u ~ Y Y u T u & U <.7.h.h.7.s.g.H ~ o @ o 4 & = @ h ~ h.0 0 0 e 6.| r.O.D l w l w ",
"E Y ( [ 7.8.k.7.( a ~ ~ 0 X g 1.O.t.6 8.k.8.@ ~ ~ h h & & 0 @ ] e.7.[ h.g.7.( H 0 ~ X O.+.o @ @ @ h.k.& @ & 9 o.} { g.h.; = l W ",
"= 7.h.7.7.n 7.H a Y s.~ T P +.{ +.t.k.l.k.h.( @ @ @ 0 @ @ 0 o U h.7.( H 7.[ v Y s.~ ~ h } o o a k.k.k.h.= o ,...>.( 8.h.a $ $ 0 ",
"@ v l.s.7.H H H Y ~ Y T & o.....| e.l.H h.l.n & @ & @ @ & @ o { h.g.7.( t I H Y R ~ & z 4...o ( h.k.k.8.o  .6...8.=.I I Q & = $ ",
"0 H 7.( 7.h.7.8.s.h 0 & ~ B ;.,.h.h.7.s.H ( 7.~ @ & 0 & & v 7.A 7.( s.7.8.~ 8.Y u & c n Z [ h.l.7.3.( ( 8.+.A 8.I ( =.! z T q = ",
"w 8.v a v h.Y Y ~ 0 @ 0 & & ..+.[ h.h.h.7.g.( ~ u o o 5 X h.l.( D I & 8.n ~ ~ 0 & = $ h Z S h.7.h.( 8.8.~ z ` h.7.v a a c ~ Q , ",
"H v H ~ a & & @ @ 0 w h & & P 7.7.( 7.s.s.( z 0 W ;.>.    l.l.g.z ( z 0 & 0 @ 0 = z e # 7.h.v 7.7.k.7.( a 0 a v 7.s.Y T Y ~ 0 t.",
"4.v Y a h 0 Y 0 h h T ~ 0 & [ h.h.7.H H H v T 8.~ ~ A 5.l.l.l.l.3.c h h h & h h R ) = = h.h.7.( I 8.v Y 0 ~ Y a a ~ ~ T = & 0 ;.",
"p 0 & & h Y ~ ~ h h h & & 6 I h.7.h.( ( ~ Y ~ c ~ &   [ 7.7.s.h.H & h h Y ~ h Y = = = M 7.h.h.[ a a a h ~ 8.Y Y h & & 0 0 0 & $.",
"~ : 0 @ @ h h Y Y 0 @ @ & 1 ( v ( ( h.~ 8.~ Y h & v h.l.h.h.v ( 8.( & & Y ~ u h @ @ a 8.H H 3.8.=.~ ~ Y Y Y 0 0 T Y Y h Y 0 = *.",
"g.w % & & @ @ o @ @ = u e [ 7.v v a 8.~ Y ~ @ & u Y [ 7.h.h.h.7.8.~ ! @ & @ @ & @ & v H H [ v 8.Y ~ 8.& 0 & l & @ 0 h h @ 0 / &.",
"W z w & & & & @ & & 7.k.& 5 D s.~ a @ & & & h h h ( 7.( h.h.7.7.( v h h @ @ & @ @ 0 & H ~ =.M @ & & 0 0 & 0 0 @ & @ @ @ & e k 0 ",
"E W l e & 0 0 @ 0 z 8.8.I N v 0 h 0 ~ u Y u 0 ~ 7.g.l.( ( ( H ( H Y ~ ~ Y @ 0 & u @ o I 0 h u u = 0 0 0 Y 0 @ ( 0 0 & 0 : E E ~ ",
"E l h Y z 5 o o 5 ( h.( l Y & & & Y h ~ h Y & h H h.h.h.( v t H a ~ s.0 h o 5 o o 0 ( h.@ & c u ~ W Y h ! h Y h.A a q o q u z k ",
"h h T =.h _ +.{ 8.( v Y Y h Y @ & 0 h Y 0 Y @ @ H H H 7.8.s.~ 8.~ ~ 0 0 0           ~ ( z @ @ R ~ u h & & Y 8.s.I V +.m ~ Y k 0 ",
"x ~ ~ k 0 r { :.( ~ ~ Y Y ~ h @ Y h.@ @ @ @ & H 7.H v v s.Y ~ u Y @ & u Y         I 8.~ Y h @ @ @ @ 0 @ 0 7.s.( l >...C Y Q ) W ",
"E ~ 0 * z q <.n a a ~ ~ Y & 0 v 7.( Y @ & & & 0 v H s.H 0 & 0 @ 0 0 & u @ &     8.~ 0 h T ~ = & @ @ @ a =.D Y Y h h O.F 0 k = %.",
"q ; q z q ; > i Y Y & & & h 0 H 8.~ Y h = & h @ v Y 0 Y h h 0 & 0 h ~ & & 0     a a 8.~ Y 0 0 & & & 0 a H 8.a Y Y ~ K z w z 0 e ",
"k h k W W 0   & & & Y ~ h Y ~ 7.0 h Y ~ o o o v 0 @ u 0 h Y ~ Y h Y Y Y h @   N a h 0 0 0 0 o o o o v a a Y ~ ~ Y 0 z q i k Y w ",
"W E u q $ *   F @ @ & @ 0 @ a a 8.~ Y 0       0 @ h @ & h ~ h h u 0 0 @ @     0 & 0 Y Y h h 0       0 a Y & & 0 & h q   0 ; w Y ",
"= 0 = $ * ;     o @ 0 & & 0 a h 0 0 0 0 &       5 @ & @ @ @ @ @ Y @ @ 0 & 5     @ @ & & @ @ 5       @ 0 & ~ Y h Y 0 0   ; & & 0 ",
"& & & ; 0 1       o o o 5 @ & 0 Y Y h h 0       o o & @ & & @ & @ & 0 @ o 5     o & 0 & 0 & =       o @ @ @ 0 0 & @     o & & & ",
"= = 0 0 2 e                 @ @ & & @ @ =       5 o o = & 0 @ 0 & 0 0 0 o 5       5 o o o 0         5 @ 0 & @ & & o     1 + & q ",
"7 1 ; 0                     o & 0 & 0 & 5         5 o @ = @ & 0 & h o o 5                             v 5 o 0 0 o 5       1 8 q ",
"                              5 o o o 5               5 5 o o 5 o o 5 =                                                         "
};
