/* XPM */
static char *wall21693422820[] = {
/* columns rows colors chars-per-pixel */
"64 64 42 1 ",
"  c #2B1C06",
". c #37270C",
"X c #38270C",
"o c #3B2A0D",
"O c #3F2E10",
"+ c #493207",
"@ c #47320F",
"# c #4C350A",
"$ c #4F380D",
"% c #513A0F",
"& c #422F11",
"* c #453211",
"= c #4A3615",
"- c #4D3917",
"; c #543D13",
": c #593F14",
"> c #513719",
", c #553E19",
"< c #583F19",
"1 c #574015",
"2 c #5A4117",
"3 c #5B411D",
"4 c #5F481D",
"5 c #63461D",
"6 c #62491E",
"7 c #5F4620",
"8 c #5E4820",
"9 c #604721",
"0 c #654D22",
"q c #6B4C24",
"w c #675025",
"e c #6A5125",
"r c #6D5429",
"t c #6F5828",
"y c #71542A",
"u c #73582B",
"i c #795931",
"p c #7C6532",
"a c #816935",
"s c #957F45",
"d c #AE9E5B",
"f c #C8BF92",
/* pixels */
".&&.&3>3& .33>000uu3uuq3X3q,2##r1;3;200X ....&.&>...>333>&..&>33",
"&...>033>  >3>>00u00333u3X7q6r0ew329490>..&...&>&..>0333>&..&>33",
".&. >0333. .303>3000w3&9i0=<0e60$+;0y50<..&&..&&...303>33>..&>3&",
".&  >3>303  &00003u003&.0aq9r4dffdd$:y3X....&......333>>>>&..>3.",
"&&  &3&&30. .3u0030030&&X05radffffdd50&X....&......3>33>&&&..&>.",
"&& .&3& 303.&33u0033300&3*rudsdfffddds...........&..&3>3&&&..&&.",
"&&...>&.&00&><33003303u&uuuassddfdddsdd&&&....&.&&..&3>>&&&..&>.",
"&. ..&...0u3&7<339w303u3uuasssddsfdddsas&.&...>&&&&.&>3>.&& .>>.",
"& ..&&&..0y0333333030w3u0uauasfdssddasaas&....&.&.&&.&3>.&>  >3.",
">..&&.&&.3yy3333330003300uuuaadssssds7sua0&&..&...&&..&3.>>  >>.",
">.>>>&&&.30y0330300uO>03ua0ausssdsssdu0suu<&......&>&..&&>>  && ",
"3&>>>& .&33r9330000&&300uu3usdsssdsssduuau03&&&X..>>>...&&& ... ",
"0>>&.. .&33qqy&<yu>&>0003000udssddsdssauuau>3&3&.&&>>>. &&. &...",
"0>......&q30iyq&0>&>3000>30uaadsdsssdauuau03>33X&&.>>3>..&. &&.&",
"0>&&..X 3070iqqq&&&333w>333aaafdsuasssa<aau03300&& >>33&&>..3&.&",
"03&..&. 33<09qy&&>>>333>33>asadduauasasu3uauu003w..>>33.3>..33&&",
"03&. && 333u0q&..>>>>>&303>uausduauususs3>03uuaayw.>>33.33.&33>3",
"0>&  && &.33<. &&>>>>>&00>30uuussuauayaaa3>>0y3aay0.>0>.03&.&>>3",
"0>&. .3...33>. >3&>>33>03>0<ua0aaa00aawasa3>>u3>auu003>.u0. .&.q",
"0&X...3..&37&.&00>>&3&33&337aau0aau0au3uaau>>3u>3uuu00&3q9...&.q",
"y3....3...><.>>3>>>&&>3>>00>auu00uau3u3u0au0>>uu>0uu033756Oo.XXq",
"q3. &77*.O,&.&>>>>&&&333000>uu0000aau33u3auuu>30u>0y00330r*&&o&<",
"y0o&*377*33. .&>..&&>333003,3p00u0uaau300ua0a03303>w00u300<o=*>q",
"qq=**30u33& ..&>...>330>>3>7>iu0u30uau03a3auwa3330>303u02u,93,70",
"423,-26033 ...&&.&>09>w>3>>3>uu3>3330uu30u0uuua3>333a03u33u2r<4,",
"q24470&03& &..&. >33>>w3>>3930u>333>>ua33u03u3su>>0>0uu03>uq;2:4",
";e9r#403> .. .. >>.&>&33>33&>30>>333.wu333uua03s3>>>>uu>00>q0;94",
";$029300.   .  .&.>&&>33>3>X>009>>0>.33>330auu30a>>>.0u33093er4%",
"46;w2033.      &..&&&333&>>.3w3q30y&.30&7<00u003uu33.>03330q9u0$",
"1w117303.     &>>&.&&>33>&>&&33>300&.>3.&<0303003303.X&3333rq%$$",
"#1$43003     &3>>&&..&333&&&.>3&&33&.&>& >333030033u0X&X00@0p1;4",
"$$11720&   ..&3>&&..&&>33&&.&>3>.&>..&>>  30>3000u0uu0&X&u0X1t;$",
"4$;6r50X ....&.&>...>333>&..&>33.&&.&3>3& .33>000uu3uu03.3q<<w2r",
"4822500>..&...&>&..>0333>&..&>33&...>033>  >3>>00y00333u3X<r:q$9",
",10%rq53..&&..&&...303>33>..&>3&.&. >w333. .303>3000q,&qi0&9e2#4",
"fds,5u3.....&......333>>>>&..>3..&  >3>3w3  &00003u0w3&.0prru%df",
"ffddq9&.....&......3>33>&&&..&>.&&  &3&&30. .3yw030030&&.6rupdff",
"ffdddsXX.........&..&3>3&&&..&&.&& .&3& 303.&33y0w33300&<*4udddf",
"fdddsdd&&&....&.&&..&3>>&&&..&>.&&...>&.&00&>333003303u&uuuassdd",
"dfdddsas&.&...>&&&&.&>3>.&& .>>.&. ..&...0u3&333300303u3uupssadd",
"asddpsaad. ...&.&.&&.&3>.&>  >3.& ..&&&..0u033333303003u0uauasfd",
"sssds<sup0&&..&...&&..&3.>>  >>.>..&&.&&.3yi3333330003300uuuaads",
"dsssdu0siu3&......&>&..&&>>  && >.>>>&&&X30rq<30300u&>0<ua0ausss",
"sdsssduupy03&&&...>>>...&&& ... 3&>>>& .&33y9330000&&300uu3usdss",
"ddsdssauuau>3&3&.&&>>>. &&. &XXX9>>&.. .&33qqq&3uu>&>0003000udss",
"dsssdauuauw3>33.&&.>>3>..&. &&X&0>......Oq30iy0&0>&>7000>30uaads",
"suasssa3aayw3300&& >>33&&>..7&X&0>&&... 3030yqqq&&&3330>333aaafd",
"uauasasu3uauy0030..>>33.3>..3<&&03&..&. 33300qy&&>>>333>33>asadd",
"uauususs<>q3uuaau0.>>33.33.&<3>303&. && 333u9q&.X>>>>>&3w3>uausd",
"suauauaaa3>>0u3aau0.>0>.03&.&>>30>&  && &.333. &&>>>>>&00>,quuus",
"aa00aa0asa3>>u3>auu003>.y0. X&X00>&. .7...33>. >3&>>33>03>03uawp",
"aau0au3uaau>>3u>3uuu00&3rw..X&Xq0&....<..&33&.Oq0>>&3&33&333aau0",
"0uau3u3u0au0>>uu>0uu0337<9oO...qr3XX..7..X>3.>>3>>>&&>3>>0w>auu0",
"00aau33u3auuu>30u>0u0033qq-o*X&5r,X &<3& &3&.&>>>>&&&333000>uu00",
"u0uaau300ua0a03303>000u30q<O==-509&O*093&33X .&>X.&&>33300333a00",
"u30uau03a3au0a3330>303u03u,83<<055>&>70r33& ..&>...>330>>3>3>uu0",
">3330uu30u0uuup<>333a03u33r4w<;45539=40033 ...&&.&>00>9>3>>3>yu3",
"333>>ua33u03u7su>>0>0uu03>uq$60re:r<,6*03& &..&. >33>>w3>>3030u>",
">333.0u333uua07s3>>>>uu>00>r;%04#4400603> .. .. >>.&>&33>33&>30>",
">>0>.33>330auu30a>>>.0u3300310e#$22;4300.   .  .&.>&&>33>3>.>w00",
"39u&.30&3300u003uu33.>q<33q02e1#w$,$3033.      &..&&&333&>>.3030",
"3w0&.>3.&30303003303..&<33<u2e2#;rw02303.     &>>&.&&>33>&>&&33>",
"&33&.&>& >333030033u0.&.00&0e6##61+23003     &3>>&&..&333&&&.>3&",
".&>X.&>>  30>3000u0uu0&X&u0&ww14e+,4720&   ..&3>&&..&&>33&&.&>3>"
};
